G04 #@! TF.FileFunction,Copper,L2,Bot,Signal*
%FSLAX46Y46*%
G04 Gerber Fmt 4.6, Leading zero omitted, Abs format (unit mm)*
G04 Created by KiCad (PCBNEW 4.0.7) date 01/19/19 15:04:45*
%MOMM*%
%LPD*%
G01*
G04 APERTURE LIST*
%ADD10C,0.100000*%
%ADD11R,1.700000X1.700000*%
%ADD12O,1.700000X1.700000*%
%ADD13R,1.000000X1.000000*%
%ADD14O,1.000000X1.000000*%
%ADD15C,0.600000*%
%ADD16C,0.250000*%
%ADD17C,0.350000*%
%ADD18C,0.750000*%
%ADD19C,0.254000*%
G04 APERTURE END LIST*
D10*
D11*
X128680000Y-56000000D03*
D12*
X128680000Y-58540000D03*
X128680000Y-61080000D03*
X128680000Y-63620000D03*
X128680000Y-66160000D03*
X128680000Y-68700000D03*
X128680000Y-71240000D03*
X128680000Y-73780000D03*
X128680000Y-76320000D03*
X128680000Y-78860000D03*
X128680000Y-81400000D03*
X128680000Y-83940000D03*
X128680000Y-86480000D03*
X128680000Y-89020000D03*
X128680000Y-91560000D03*
X128680000Y-94100000D03*
X128680000Y-96640000D03*
X128680000Y-99180000D03*
X128680000Y-101720000D03*
X128680000Y-104260000D03*
D11*
X169320000Y-56000000D03*
D12*
X169320000Y-58540000D03*
X169320000Y-61080000D03*
X169320000Y-63620000D03*
X169320000Y-66160000D03*
X169320000Y-68700000D03*
X169320000Y-71240000D03*
X169320000Y-73780000D03*
X169320000Y-76320000D03*
X169320000Y-78860000D03*
X169320000Y-81400000D03*
X169320000Y-83940000D03*
X169320000Y-86480000D03*
X169320000Y-89020000D03*
X169320000Y-91560000D03*
X169320000Y-94100000D03*
X169320000Y-96640000D03*
X169320000Y-99180000D03*
X169320000Y-101720000D03*
X169320000Y-104260000D03*
D13*
X158353760Y-102229920D03*
D14*
X158353760Y-103499920D03*
X157083760Y-102229920D03*
X157083760Y-103499920D03*
X155813760Y-102229920D03*
X155813760Y-103499920D03*
X154543760Y-102229920D03*
X154543760Y-103499920D03*
X153273760Y-102229920D03*
X153273760Y-103499920D03*
D15*
X163367720Y-79390240D03*
X162278060Y-72143620D03*
X162549840Y-79405480D03*
X161450020Y-72143620D03*
X161726880Y-79400400D03*
X160599120Y-72130920D03*
X163111180Y-72171560D03*
X164211000Y-79375000D03*
X144452340Y-70444360D03*
X141150340Y-70431660D03*
X135011160Y-59674760D03*
X138140440Y-59674760D03*
X135021320Y-58821320D03*
X138145520Y-58821320D03*
X131495800Y-53695600D03*
X131983480Y-57525920D03*
X130954780Y-57536080D03*
X130611880Y-54371240D03*
X135016240Y-60558680D03*
X138135360Y-60553600D03*
X147843240Y-99308920D03*
X153306780Y-80490060D03*
X149184360Y-73058020D03*
X149108160Y-77160120D03*
X151043640Y-74279760D03*
X129895600Y-80126840D03*
X134531100Y-93840300D03*
X138196320Y-72633840D03*
X134119620Y-83337400D03*
X151950420Y-74307700D03*
X151455120Y-75841860D03*
X136626600Y-97873820D03*
X132029200Y-88252300D03*
X142750540Y-89555320D03*
X146598640Y-82245200D03*
X138440160Y-99385120D03*
X147302220Y-86959440D03*
X151124920Y-83527900D03*
X149997160Y-82392520D03*
X160553400Y-80807560D03*
X157998160Y-59448700D03*
X159669480Y-80802480D03*
X154680920Y-58150760D03*
X149504400Y-60538360D03*
X152847040Y-56667400D03*
X138508740Y-75323700D03*
X137764520Y-76032360D03*
X134157720Y-84373720D03*
X133106160Y-84353400D03*
X133027420Y-85257640D03*
X147294600Y-83157060D03*
X148224240Y-83134200D03*
X150505160Y-103510080D03*
X166603680Y-74904600D03*
X165963600Y-61607700D03*
X153276300Y-76923900D03*
X148087080Y-73075800D03*
X136093200Y-82468720D03*
X131160520Y-90937080D03*
X134127240Y-90479880D03*
X138181080Y-70622160D03*
X139971780Y-69745860D03*
X164180520Y-54406800D03*
X162351720Y-60213240D03*
X141274800Y-72656700D03*
X141640560Y-75857100D03*
X139857480Y-64305180D03*
X144465040Y-68828920D03*
X141142720Y-68849240D03*
X144978120Y-80205580D03*
X137891520Y-106273600D03*
X132207000Y-94983300D03*
X145061940Y-92971620D03*
X147924520Y-93863160D03*
X140914120Y-81633060D03*
D16*
X162278060Y-72143620D02*
X162278060Y-75572620D01*
X163410900Y-76705460D02*
X162278060Y-75572620D01*
X163410900Y-79347060D02*
X163410900Y-76705460D01*
X163410900Y-79347060D02*
X163367720Y-79390240D01*
X161450020Y-72143620D02*
X161450020Y-75839320D01*
X162542220Y-76931520D02*
X161450020Y-75839320D01*
X162542220Y-79397860D02*
X162542220Y-76931520D01*
X162542220Y-79397860D02*
X162549840Y-79405480D01*
X160599120Y-72130920D02*
X160599120Y-76009500D01*
X161726880Y-77137260D02*
X160599120Y-76009500D01*
X161726880Y-77137260D02*
X161726880Y-79400400D01*
X163111180Y-72171560D02*
X163111180Y-75293220D01*
X164205920Y-76387960D02*
X163111180Y-75293220D01*
X164205920Y-79369920D02*
X164205920Y-76387960D01*
X164205920Y-79369920D02*
X164211000Y-79375000D01*
X144439640Y-70431660D02*
X141150340Y-70431660D01*
X144439640Y-70431660D02*
X144452340Y-70444360D01*
X135011160Y-59674760D02*
X138140440Y-59674760D01*
X135021320Y-58821320D02*
X138145520Y-58821320D01*
X131978400Y-54178200D02*
X131495800Y-53695600D01*
X131978400Y-57520840D02*
X131978400Y-54178200D01*
X131983480Y-57525920D02*
X131978400Y-57520840D01*
X130611880Y-54371240D02*
X130952240Y-54711600D01*
X130952240Y-57533540D02*
X130952240Y-54711600D01*
X130952240Y-57533540D02*
X130954780Y-57536080D01*
X135021320Y-60553600D02*
X138135360Y-60553600D01*
X135021320Y-60553600D02*
X135016240Y-60558680D01*
D17*
X147843240Y-99308920D02*
X147853400Y-99308920D01*
D16*
X151028400Y-75239880D02*
X149108160Y-77160120D01*
X151028400Y-74295000D02*
X151028400Y-75239880D01*
X151043640Y-74279760D02*
X151028400Y-74295000D01*
X129895600Y-85029040D02*
X129895600Y-80126840D01*
X132770880Y-87904320D02*
X129895600Y-85029040D01*
X132770880Y-92080080D02*
X132770880Y-87904320D01*
X134531100Y-93840300D02*
X132770880Y-92080080D01*
X138196320Y-72633840D02*
X138196320Y-72649080D01*
X151950420Y-75346560D02*
X151950420Y-74307700D01*
X151455120Y-75841860D02*
X151950420Y-75346560D01*
X136626600Y-97873820D02*
X132029200Y-93276420D01*
X132029200Y-93276420D02*
X132029200Y-88252300D01*
X142750540Y-89555320D02*
X142796260Y-89509600D01*
X142796260Y-89509600D02*
X144119600Y-89509600D01*
X144119600Y-89509600D02*
X146598640Y-87030560D01*
X146598640Y-87030560D02*
X146598640Y-82245200D01*
X138440160Y-96459040D02*
X138440160Y-99385120D01*
X142372080Y-92527120D02*
X138440160Y-96459040D01*
X144406620Y-92527120D02*
X142372080Y-92527120D01*
X147782280Y-89151460D02*
X144406620Y-92527120D01*
X147782280Y-87439500D02*
X147782280Y-89151460D01*
X147302220Y-86959440D02*
X147782280Y-87439500D01*
X151124920Y-83520280D02*
X151124920Y-83527900D01*
X149997160Y-82392520D02*
X151124920Y-83520280D01*
X160553400Y-77851000D02*
X160553400Y-80807560D01*
X156911040Y-74208640D02*
X160553400Y-77851000D01*
X156911040Y-67442080D02*
X156911040Y-74208640D01*
X158935420Y-65417700D02*
X156911040Y-67442080D01*
X158935420Y-60385960D02*
X158935420Y-65417700D01*
X157998160Y-59448700D02*
X158935420Y-60385960D01*
X159654240Y-80787240D02*
X159669480Y-80802480D01*
X159654240Y-77805280D02*
X159654240Y-80787240D01*
X156199840Y-74350880D02*
X159654240Y-77805280D01*
X156199840Y-68011040D02*
X156199840Y-74350880D01*
X155265120Y-67076320D02*
X156199840Y-68011040D01*
X155265120Y-58729880D02*
X155265120Y-67076320D01*
X154686000Y-58150760D02*
X155265120Y-58729880D01*
X154686000Y-58145680D02*
X154686000Y-58150760D01*
X154680920Y-58150760D02*
X154686000Y-58145680D01*
D17*
X149504400Y-60010040D02*
X149504400Y-60538360D01*
X152847040Y-56667400D02*
X149504400Y-60010040D01*
D16*
X131123040Y-68700000D02*
X128680000Y-68700000D01*
X132542280Y-70119240D02*
X131123040Y-68700000D01*
X132542280Y-73837800D02*
X132542280Y-70119240D01*
X133959600Y-75255120D02*
X132542280Y-73837800D01*
X138440160Y-75255120D02*
X133959600Y-75255120D01*
X138508740Y-75323700D02*
X138440160Y-75255120D01*
X131280520Y-71240000D02*
X128680000Y-71240000D01*
X131536440Y-71495920D02*
X131280520Y-71240000D01*
X131536440Y-74122280D02*
X131536440Y-71495920D01*
X133466840Y-76052680D02*
X131536440Y-74122280D01*
X137744200Y-76052680D02*
X133466840Y-76052680D01*
X137764520Y-76032360D02*
X137744200Y-76052680D01*
X129403280Y-74503280D02*
X128680000Y-73780000D01*
X130520440Y-74503280D02*
X129403280Y-74503280D01*
X132669280Y-76652120D02*
X130520440Y-74503280D01*
X132669280Y-82885280D02*
X132669280Y-76652120D01*
X134157720Y-84373720D02*
X132669280Y-82885280D01*
X130736960Y-76320000D02*
X128680000Y-76320000D01*
X131719320Y-77302360D02*
X130736960Y-76320000D01*
X131719320Y-82966560D02*
X131719320Y-77302360D01*
X133106160Y-84353400D02*
X131719320Y-82966560D01*
X130363580Y-78860000D02*
X128680000Y-78860000D01*
X131079240Y-79575660D02*
X130363580Y-78860000D01*
X131079240Y-83309460D02*
X131079240Y-79575660D01*
X133027420Y-85257640D02*
X131079240Y-83309460D01*
X158353760Y-106365040D02*
X158353760Y-103499920D01*
X157599802Y-107118998D02*
X158353760Y-106365040D01*
X151447078Y-107118998D02*
X157599802Y-107118998D01*
X151165560Y-106837480D02*
X151447078Y-107118998D01*
X151165560Y-99959160D02*
X151165560Y-106837480D01*
X149473920Y-98267520D02*
X151165560Y-99959160D01*
X149473920Y-94348300D02*
X149473920Y-98267520D01*
X148346160Y-93220540D02*
X149473920Y-94348300D01*
X148346160Y-87030560D02*
X148346160Y-93220540D01*
X147119340Y-85803740D02*
X148346160Y-87030560D01*
X147119340Y-83332320D02*
X147119340Y-85803740D01*
X147294600Y-83157060D02*
X147119340Y-83332320D01*
X148846540Y-93042740D02*
X148846540Y-93057980D01*
X148224240Y-83134200D02*
X147665440Y-83693000D01*
X147665440Y-83693000D02*
X147665440Y-85636100D01*
X147665440Y-85636100D02*
X148846540Y-86817200D01*
X148846540Y-86817200D02*
X148846540Y-93042740D01*
X150334980Y-98430080D02*
X151648160Y-99743260D01*
X151648160Y-99743260D02*
X151648160Y-106392980D01*
X151648160Y-106392980D02*
X151818340Y-106563160D01*
X151818340Y-106563160D02*
X156093160Y-106563160D01*
X156093160Y-106563160D02*
X157083760Y-105572560D01*
X157083760Y-103499920D02*
X157083760Y-105572560D01*
X149946360Y-98041460D02*
X150334980Y-98430080D01*
X149946360Y-94157800D02*
X149946360Y-98041460D01*
X148846540Y-93057980D02*
X149946360Y-94157800D01*
X153977340Y-107569000D02*
X151099520Y-107569000D01*
X166603680Y-77830680D02*
X165562280Y-78872080D01*
X165562280Y-78872080D02*
X165562280Y-79692500D01*
X165562280Y-79692500D02*
X166314120Y-80444340D01*
X166314120Y-80444340D02*
X166908480Y-80444340D01*
X166908480Y-80444340D02*
X167220900Y-80756760D01*
X167220900Y-80756760D02*
X167220900Y-105613200D01*
X167220900Y-105613200D02*
X165265100Y-107569000D01*
X165265100Y-107569000D02*
X153977340Y-107569000D01*
X166603680Y-74904600D02*
X166603680Y-77830680D01*
X150505160Y-106974640D02*
X150505160Y-103510080D01*
X151099520Y-107569000D02*
X150505160Y-106974640D01*
X166578280Y-74879200D02*
X166603680Y-74904600D01*
X166578280Y-72001380D02*
X166578280Y-74879200D01*
X165069520Y-70492620D02*
X166578280Y-72001380D01*
X165069520Y-62501780D02*
X165069520Y-70492620D01*
X165963600Y-61607700D02*
X165069520Y-62501780D01*
X153276300Y-74462640D02*
X153276300Y-76923900D01*
X151142700Y-72329040D02*
X153276300Y-74462640D01*
X148833840Y-72329040D02*
X151142700Y-72329040D01*
X148087080Y-73075800D02*
X148833840Y-72329040D01*
D18*
X136039860Y-82468720D02*
X136039860Y-82423000D01*
X136093200Y-82468720D02*
X136039860Y-82468720D01*
D17*
X132207000Y-94983300D02*
X132207000Y-94785180D01*
X131160520Y-93738700D02*
X131160520Y-90937080D01*
X132207000Y-94785180D02*
X131160520Y-93738700D01*
X136039860Y-82423000D02*
X136039860Y-83667600D01*
X136039860Y-83667600D02*
X133731000Y-85976460D01*
X133731000Y-85976460D02*
X133731000Y-90083640D01*
X133731000Y-90083640D02*
X134127240Y-90479880D01*
X136039860Y-82423000D02*
X136179560Y-82423000D01*
X136179560Y-82423000D02*
X136969500Y-81633060D01*
X136969500Y-81633060D02*
X140914120Y-81633060D01*
D16*
X140914120Y-81633060D02*
X140736320Y-81633060D01*
X140736320Y-81633060D02*
X140395960Y-81292700D01*
X140395960Y-81292700D02*
X140395960Y-77370940D01*
X140395960Y-77370940D02*
X139720320Y-76695300D01*
X139720320Y-76695300D02*
X139720320Y-72176640D01*
X139720320Y-72176640D02*
X138181080Y-70637400D01*
X138181080Y-70637400D02*
X138181080Y-70622160D01*
X140914120Y-81633060D02*
X140914120Y-77028040D01*
X140914120Y-77028040D02*
X140329920Y-76443840D01*
X140329920Y-76443840D02*
X140329920Y-71437500D01*
X140329920Y-71437500D02*
X139971780Y-71079360D01*
X139971780Y-71079360D02*
X139971780Y-69745860D01*
X164180520Y-54429660D02*
X164180520Y-54406800D01*
X162306000Y-56304180D02*
X164180520Y-54429660D01*
X162306000Y-60167520D02*
X162306000Y-56304180D01*
X162351720Y-60213240D02*
X162306000Y-60167520D01*
X141274800Y-75491340D02*
X141274800Y-72656700D01*
X141640560Y-75857100D02*
X141274800Y-75491340D01*
D17*
X141142720Y-68849240D02*
X141142720Y-68722240D01*
X139857480Y-67437000D02*
X139857480Y-64305180D01*
X141142720Y-68722240D02*
X139857480Y-67437000D01*
X141163040Y-68828920D02*
X144465040Y-68828920D01*
X141142720Y-68849240D02*
X141163040Y-68828920D01*
D16*
X142341600Y-80205580D02*
X144978120Y-80205580D01*
X142341600Y-80205580D02*
X140914120Y-81633060D01*
X134112000Y-106273600D02*
X137891520Y-106273600D01*
X132100320Y-104261920D02*
X134112000Y-106273600D01*
X132100320Y-95089980D02*
X132100320Y-104261920D01*
X132207000Y-94983300D02*
X132100320Y-95089980D01*
X145074640Y-92984320D02*
X145061940Y-92971620D01*
X147045680Y-92984320D02*
X145074640Y-92984320D01*
X147924520Y-93863160D02*
X147045680Y-92984320D01*
D19*
G36*
X170290000Y-54515000D02*
X169605750Y-54515000D01*
X169447000Y-54673750D01*
X169447000Y-55873000D01*
X169467000Y-55873000D01*
X169467000Y-56127000D01*
X169447000Y-56127000D01*
X169447000Y-56147000D01*
X169193000Y-56147000D01*
X169193000Y-56127000D01*
X167993750Y-56127000D01*
X167835000Y-56285750D01*
X167835000Y-56976310D01*
X167931673Y-57209699D01*
X168110302Y-57388327D01*
X168284777Y-57460597D01*
X168240853Y-57489946D01*
X167918946Y-57971715D01*
X167805907Y-58540000D01*
X167918946Y-59108285D01*
X168240853Y-59590054D01*
X168570026Y-59810000D01*
X168240853Y-60029946D01*
X167918946Y-60511715D01*
X167805907Y-61080000D01*
X167918946Y-61648285D01*
X168240853Y-62130054D01*
X168570026Y-62350000D01*
X168240853Y-62569946D01*
X167918946Y-63051715D01*
X167805907Y-63620000D01*
X167918946Y-64188285D01*
X168240853Y-64670054D01*
X168570026Y-64890000D01*
X168240853Y-65109946D01*
X167918946Y-65591715D01*
X167805907Y-66160000D01*
X167918946Y-66728285D01*
X168240853Y-67210054D01*
X168570026Y-67430000D01*
X168240853Y-67649946D01*
X167918946Y-68131715D01*
X167805907Y-68700000D01*
X167918946Y-69268285D01*
X168240853Y-69750054D01*
X168570026Y-69970000D01*
X168240853Y-70189946D01*
X167918946Y-70671715D01*
X167805907Y-71240000D01*
X167918946Y-71808285D01*
X168240853Y-72290054D01*
X168570026Y-72510000D01*
X168240853Y-72729946D01*
X167918946Y-73211715D01*
X167805907Y-73780000D01*
X167918946Y-74348285D01*
X168240853Y-74830054D01*
X168570026Y-75050000D01*
X168240853Y-75269946D01*
X167918946Y-75751715D01*
X167805907Y-76320000D01*
X167918946Y-76888285D01*
X168240853Y-77370054D01*
X168570026Y-77590000D01*
X168240853Y-77809946D01*
X167918946Y-78291715D01*
X167805907Y-78860000D01*
X167918946Y-79428285D01*
X168240853Y-79910054D01*
X168570026Y-80130000D01*
X168240853Y-80349946D01*
X167978177Y-80743070D01*
X167923048Y-80465921D01*
X167758301Y-80219359D01*
X167445881Y-79906939D01*
X167199319Y-79742192D01*
X166908480Y-79684340D01*
X166628922Y-79684340D01*
X166322280Y-79377698D01*
X166322280Y-79186882D01*
X167141081Y-78368081D01*
X167305828Y-78121519D01*
X167363680Y-77830680D01*
X167363680Y-75467063D01*
X167395872Y-75434927D01*
X167538518Y-75091399D01*
X167538842Y-74719433D01*
X167396797Y-74375657D01*
X167338280Y-74317038D01*
X167338280Y-72001380D01*
X167280428Y-71710541D01*
X167115681Y-71463979D01*
X165829520Y-70177818D01*
X165829520Y-62816582D01*
X166103280Y-62542822D01*
X166148767Y-62542862D01*
X166492543Y-62400817D01*
X166755792Y-62138027D01*
X166898438Y-61794499D01*
X166898762Y-61422533D01*
X166756717Y-61078757D01*
X166493927Y-60815508D01*
X166150399Y-60672862D01*
X165778433Y-60672538D01*
X165434657Y-60814583D01*
X165171408Y-61077373D01*
X165028762Y-61420901D01*
X165028721Y-61467777D01*
X164532119Y-61964379D01*
X164367372Y-62210941D01*
X164309520Y-62501780D01*
X164309520Y-70492620D01*
X164367372Y-70783459D01*
X164532119Y-71030021D01*
X165818280Y-72316182D01*
X165818280Y-74367493D01*
X165811488Y-74374273D01*
X165668842Y-74717801D01*
X165668518Y-75089767D01*
X165810563Y-75433543D01*
X165843680Y-75466718D01*
X165843680Y-77515878D01*
X165024879Y-78334679D01*
X164965920Y-78422918D01*
X164965920Y-76387960D01*
X164908068Y-76097121D01*
X164743321Y-75850559D01*
X163871180Y-74978418D01*
X163871180Y-72734023D01*
X163903372Y-72701887D01*
X164046018Y-72358359D01*
X164046342Y-71986393D01*
X163904297Y-71642617D01*
X163641507Y-71379368D01*
X163297979Y-71236722D01*
X162926013Y-71236398D01*
X162728201Y-71318132D01*
X162464859Y-71208782D01*
X162092893Y-71208458D01*
X161863901Y-71303075D01*
X161636819Y-71208782D01*
X161264853Y-71208458D01*
X161039733Y-71301475D01*
X160785919Y-71196082D01*
X160413953Y-71195758D01*
X160070177Y-71337803D01*
X159806928Y-71600593D01*
X159664282Y-71944121D01*
X159663958Y-72316087D01*
X159806003Y-72659863D01*
X159839120Y-72693038D01*
X159839120Y-76009500D01*
X159852136Y-76074934D01*
X157671040Y-73893838D01*
X157671040Y-67756882D01*
X159472821Y-65955101D01*
X159637568Y-65708539D01*
X159695420Y-65417700D01*
X159695420Y-60398407D01*
X161416558Y-60398407D01*
X161558603Y-60742183D01*
X161821393Y-61005432D01*
X162164921Y-61148078D01*
X162536887Y-61148402D01*
X162880663Y-61006357D01*
X163143912Y-60743567D01*
X163286558Y-60400039D01*
X163286882Y-60028073D01*
X163144837Y-59684297D01*
X163066000Y-59605322D01*
X163066000Y-56618982D01*
X164343040Y-55341942D01*
X164365687Y-55341962D01*
X164709463Y-55199917D01*
X164885997Y-55023690D01*
X167835000Y-55023690D01*
X167835000Y-55714250D01*
X167993750Y-55873000D01*
X169193000Y-55873000D01*
X169193000Y-54673750D01*
X169034250Y-54515000D01*
X168343691Y-54515000D01*
X168110302Y-54611673D01*
X167931673Y-54790301D01*
X167835000Y-55023690D01*
X164885997Y-55023690D01*
X164972712Y-54937127D01*
X165115358Y-54593599D01*
X165115682Y-54221633D01*
X164973637Y-53877857D01*
X164710847Y-53614608D01*
X164367319Y-53471962D01*
X163995353Y-53471638D01*
X163651577Y-53613683D01*
X163388328Y-53876473D01*
X163245682Y-54220001D01*
X163245621Y-54289757D01*
X161768599Y-55766779D01*
X161603852Y-56013341D01*
X161546000Y-56304180D01*
X161546000Y-59715492D01*
X161416882Y-60026441D01*
X161416558Y-60398407D01*
X159695420Y-60398407D01*
X159695420Y-60385960D01*
X159637568Y-60095121D01*
X159472821Y-59848559D01*
X158933282Y-59309020D01*
X158933322Y-59263533D01*
X158791277Y-58919757D01*
X158528487Y-58656508D01*
X158184959Y-58513862D01*
X157812993Y-58513538D01*
X157469217Y-58655583D01*
X157205968Y-58918373D01*
X157063322Y-59261901D01*
X157062998Y-59633867D01*
X157205043Y-59977643D01*
X157467833Y-60240892D01*
X157811361Y-60383538D01*
X157858237Y-60383579D01*
X158175420Y-60700762D01*
X158175420Y-65102898D01*
X156373639Y-66904679D01*
X156291384Y-67027782D01*
X156025120Y-66761518D01*
X156025120Y-58729880D01*
X156016929Y-58688700D01*
X155967268Y-58439040D01*
X155802521Y-58192479D01*
X155616047Y-58006005D01*
X155616082Y-57965593D01*
X155474037Y-57621817D01*
X155211247Y-57358568D01*
X154867719Y-57215922D01*
X154495753Y-57215598D01*
X154151977Y-57357643D01*
X153888728Y-57620433D01*
X153746082Y-57963961D01*
X153745758Y-58335927D01*
X153887803Y-58679703D01*
X154150593Y-58942952D01*
X154494121Y-59085598D01*
X154505120Y-59085608D01*
X154505120Y-67076320D01*
X154562972Y-67367159D01*
X154727719Y-67613721D01*
X155439840Y-68325842D01*
X155439840Y-74350880D01*
X155497692Y-74641719D01*
X155662439Y-74888281D01*
X158894240Y-78120082D01*
X158894240Y-80255231D01*
X158877288Y-80272153D01*
X158734642Y-80615681D01*
X158734318Y-80987647D01*
X158876363Y-81331423D01*
X159139153Y-81594672D01*
X159482681Y-81737318D01*
X159854647Y-81737642D01*
X160105516Y-81633985D01*
X160366601Y-81742398D01*
X160738567Y-81742722D01*
X161082343Y-81600677D01*
X161345592Y-81337887D01*
X161488238Y-80994359D01*
X161488562Y-80622393D01*
X161346517Y-80278617D01*
X161313400Y-80245442D01*
X161313400Y-80241111D01*
X161540081Y-80335238D01*
X161912047Y-80335562D01*
X162132360Y-80244531D01*
X162363041Y-80340318D01*
X162735007Y-80340642D01*
X162977302Y-80240528D01*
X163180921Y-80325078D01*
X163552887Y-80325402D01*
X163807914Y-80220027D01*
X164024201Y-80309838D01*
X164396167Y-80310162D01*
X164739943Y-80168117D01*
X164886105Y-80022210D01*
X165024879Y-80229901D01*
X165776719Y-80981741D01*
X166023280Y-81146488D01*
X166314120Y-81204340D01*
X166460900Y-81204340D01*
X166460900Y-105298398D01*
X164950298Y-106809000D01*
X158953596Y-106809000D01*
X159055908Y-106655879D01*
X159113760Y-106365040D01*
X159113760Y-104353164D01*
X159156326Y-104324722D01*
X159402363Y-103956502D01*
X159488760Y-103522156D01*
X159488760Y-103477684D01*
X159405248Y-103057844D01*
X159488760Y-102856229D01*
X159488760Y-102515670D01*
X159330010Y-102356920D01*
X158480760Y-102356920D01*
X158480760Y-102367946D01*
X158353760Y-102342684D01*
X158226760Y-102367946D01*
X158226760Y-102356920D01*
X158206760Y-102356920D01*
X158206760Y-102312484D01*
X158218760Y-102252156D01*
X158218760Y-102207684D01*
X158206760Y-102147356D01*
X158206760Y-102102920D01*
X158226760Y-102102920D01*
X158226760Y-101253670D01*
X158480760Y-101253670D01*
X158480760Y-102102920D01*
X159330010Y-102102920D01*
X159488760Y-101944170D01*
X159488760Y-101603611D01*
X159392087Y-101370222D01*
X159213459Y-101191593D01*
X158980070Y-101094920D01*
X158639510Y-101094920D01*
X158480760Y-101253670D01*
X158226760Y-101253670D01*
X158068010Y-101094920D01*
X157727450Y-101094920D01*
X157538942Y-101173003D01*
X157518106Y-101159081D01*
X157083760Y-101072684D01*
X156649414Y-101159081D01*
X156448760Y-101293154D01*
X156248106Y-101159081D01*
X155813760Y-101072684D01*
X155379414Y-101159081D01*
X155178760Y-101293154D01*
X154978106Y-101159081D01*
X154543760Y-101072684D01*
X154109414Y-101159081D01*
X153908760Y-101293154D01*
X153708106Y-101159081D01*
X153273760Y-101072684D01*
X152839414Y-101159081D01*
X152471194Y-101405118D01*
X152408160Y-101499455D01*
X152408160Y-99743260D01*
X152350308Y-99452421D01*
X152185561Y-99205859D01*
X150706360Y-97726658D01*
X150706360Y-94157800D01*
X150682216Y-94036420D01*
X150648508Y-93866960D01*
X150483761Y-93620399D01*
X149606540Y-92743178D01*
X149606540Y-86817200D01*
X149548688Y-86526361D01*
X149383941Y-86279799D01*
X148425440Y-85321298D01*
X148425440Y-84062737D01*
X148753183Y-83927317D01*
X149016432Y-83664527D01*
X149159078Y-83320999D01*
X149159402Y-82949033D01*
X149017357Y-82605257D01*
X148989836Y-82577687D01*
X149061998Y-82577687D01*
X149204043Y-82921463D01*
X149466833Y-83184712D01*
X149810361Y-83327358D01*
X149857237Y-83327399D01*
X150189804Y-83659966D01*
X150189758Y-83713067D01*
X150331803Y-84056843D01*
X150594593Y-84320092D01*
X150938121Y-84462738D01*
X151310087Y-84463062D01*
X151653863Y-84321017D01*
X151917112Y-84058227D01*
X152059758Y-83714699D01*
X152060082Y-83342733D01*
X151918037Y-82998957D01*
X151655247Y-82735708D01*
X151311719Y-82593062D01*
X151272470Y-82593028D01*
X150932282Y-82252840D01*
X150932322Y-82207353D01*
X150790277Y-81863577D01*
X150527487Y-81600328D01*
X150183959Y-81457682D01*
X149811993Y-81457358D01*
X149468217Y-81599403D01*
X149204968Y-81862193D01*
X149062322Y-82205721D01*
X149061998Y-82577687D01*
X148989836Y-82577687D01*
X148754567Y-82342008D01*
X148411039Y-82199362D01*
X148039073Y-82199038D01*
X147731561Y-82326099D01*
X147533642Y-82243915D01*
X147533802Y-82060033D01*
X147391757Y-81716257D01*
X147128967Y-81453008D01*
X146785439Y-81310362D01*
X146413473Y-81310038D01*
X146069697Y-81452083D01*
X145806448Y-81714873D01*
X145663802Y-82058401D01*
X145663478Y-82430367D01*
X145805523Y-82774143D01*
X145838640Y-82807318D01*
X145838640Y-86715758D01*
X143804798Y-88749600D01*
X143248288Y-88749600D01*
X142937339Y-88620482D01*
X142565373Y-88620158D01*
X142221597Y-88762203D01*
X141958348Y-89024993D01*
X141815702Y-89368521D01*
X141815378Y-89740487D01*
X141957423Y-90084263D01*
X142220213Y-90347512D01*
X142563741Y-90490158D01*
X142935707Y-90490482D01*
X143279483Y-90348437D01*
X143358458Y-90269600D01*
X144119600Y-90269600D01*
X144410439Y-90211748D01*
X144657001Y-90047001D01*
X146899417Y-87804585D01*
X147022280Y-87855602D01*
X147022280Y-88836658D01*
X144091818Y-91767120D01*
X142372080Y-91767120D01*
X142081241Y-91824972D01*
X141834679Y-91989719D01*
X137902759Y-95921639D01*
X137738012Y-96168201D01*
X137680160Y-96459040D01*
X137680160Y-98822657D01*
X137647968Y-98854793D01*
X137505322Y-99198321D01*
X137504998Y-99570287D01*
X137647043Y-99914063D01*
X137909833Y-100177312D01*
X138253361Y-100319958D01*
X138625327Y-100320282D01*
X138969103Y-100178237D01*
X139232352Y-99915447D01*
X139374998Y-99571919D01*
X139375322Y-99199953D01*
X139233277Y-98856177D01*
X139200160Y-98823002D01*
X139200160Y-96773842D01*
X142686882Y-93287120D01*
X144180630Y-93287120D01*
X144268823Y-93500563D01*
X144531613Y-93763812D01*
X144875141Y-93906458D01*
X145247107Y-93906782D01*
X145590883Y-93764737D01*
X145611336Y-93744320D01*
X146730878Y-93744320D01*
X146989398Y-94002840D01*
X146989358Y-94048327D01*
X147131403Y-94392103D01*
X147394193Y-94655352D01*
X147737721Y-94797998D01*
X148109687Y-94798322D01*
X148453463Y-94656277D01*
X148580390Y-94529572D01*
X148713920Y-94663102D01*
X148713920Y-98267520D01*
X148771772Y-98558359D01*
X148936519Y-98804921D01*
X150405560Y-100273962D01*
X150405560Y-102574993D01*
X150319993Y-102574918D01*
X149976217Y-102716963D01*
X149712968Y-102979753D01*
X149570322Y-103323281D01*
X149569998Y-103695247D01*
X149712043Y-104039023D01*
X149745160Y-104072198D01*
X149745160Y-106974640D01*
X149803012Y-107265479D01*
X149967759Y-107512041D01*
X150562119Y-108106401D01*
X150808681Y-108271148D01*
X151099520Y-108329000D01*
X165265100Y-108329000D01*
X165555939Y-108271148D01*
X165802501Y-108106401D01*
X167758301Y-106150601D01*
X167923048Y-105904039D01*
X167980900Y-105613200D01*
X167980900Y-104921006D01*
X168240853Y-105310054D01*
X168722622Y-105631961D01*
X169290907Y-105745000D01*
X169349093Y-105745000D01*
X169917378Y-105631961D01*
X170290000Y-105382984D01*
X170290000Y-109290000D01*
X127710000Y-109290000D01*
X127710000Y-105382984D01*
X128082622Y-105631961D01*
X128650907Y-105745000D01*
X128709093Y-105745000D01*
X129277378Y-105631961D01*
X129759147Y-105310054D01*
X130081054Y-104828285D01*
X130194093Y-104260000D01*
X130081054Y-103691715D01*
X129759147Y-103209946D01*
X129429974Y-102990000D01*
X129759147Y-102770054D01*
X130081054Y-102288285D01*
X130194093Y-101720000D01*
X130081054Y-101151715D01*
X129759147Y-100669946D01*
X129429974Y-100450000D01*
X129759147Y-100230054D01*
X130081054Y-99748285D01*
X130194093Y-99180000D01*
X130081054Y-98611715D01*
X129759147Y-98129946D01*
X129429974Y-97910000D01*
X129759147Y-97690054D01*
X130081054Y-97208285D01*
X130194093Y-96640000D01*
X130081054Y-96071715D01*
X129759147Y-95589946D01*
X129429974Y-95370000D01*
X129759147Y-95150054D01*
X130081054Y-94668285D01*
X130194093Y-94100000D01*
X130081054Y-93531715D01*
X129759147Y-93049946D01*
X129429974Y-92830000D01*
X129759147Y-92610054D01*
X130081054Y-92128285D01*
X130194093Y-91560000D01*
X130081054Y-90991715D01*
X129759147Y-90509946D01*
X129429974Y-90290000D01*
X129759147Y-90070054D01*
X130081054Y-89588285D01*
X130194093Y-89020000D01*
X130081054Y-88451715D01*
X129759147Y-87969946D01*
X129429974Y-87750000D01*
X129759147Y-87530054D01*
X130081054Y-87048285D01*
X130194093Y-86480000D01*
X130081054Y-85911715D01*
X129759147Y-85429946D01*
X129429974Y-85210000D01*
X129759147Y-84990054D01*
X130081054Y-84508285D01*
X130194093Y-83940000D01*
X130081054Y-83371715D01*
X129759147Y-82889946D01*
X129429974Y-82670000D01*
X129759147Y-82450054D01*
X130081054Y-81968285D01*
X130194093Y-81400000D01*
X130081054Y-80831715D01*
X129759147Y-80349946D01*
X129429974Y-80130000D01*
X129759147Y-79910054D01*
X129952954Y-79620000D01*
X130048778Y-79620000D01*
X130319240Y-79890462D01*
X130319240Y-83309460D01*
X130377092Y-83600299D01*
X130541839Y-83846861D01*
X132092298Y-85397320D01*
X132092258Y-85442807D01*
X132234303Y-85786583D01*
X132497093Y-86049832D01*
X132840621Y-86192478D01*
X132921000Y-86192548D01*
X132921000Y-87962189D01*
X132822317Y-87723357D01*
X132559527Y-87460108D01*
X132215999Y-87317462D01*
X131844033Y-87317138D01*
X131500257Y-87459183D01*
X131237008Y-87721973D01*
X131094362Y-88065501D01*
X131094038Y-88437467D01*
X131236083Y-88781243D01*
X131269200Y-88814418D01*
X131269200Y-90002174D01*
X130975353Y-90001918D01*
X130631577Y-90143963D01*
X130368328Y-90406753D01*
X130225682Y-90750281D01*
X130225358Y-91122247D01*
X130350520Y-91425163D01*
X130350520Y-93738700D01*
X130412178Y-94048674D01*
X130587764Y-94311456D01*
X131271989Y-94995681D01*
X131271838Y-95168467D01*
X131340320Y-95334207D01*
X131340320Y-104261920D01*
X131398172Y-104552759D01*
X131562919Y-104799321D01*
X133574599Y-106811001D01*
X133821161Y-106975748D01*
X134112000Y-107033600D01*
X137329057Y-107033600D01*
X137361193Y-107065792D01*
X137704721Y-107208438D01*
X138076687Y-107208762D01*
X138420463Y-107066717D01*
X138683712Y-106803927D01*
X138826358Y-106460399D01*
X138826682Y-106088433D01*
X138684637Y-105744657D01*
X138421847Y-105481408D01*
X138078319Y-105338762D01*
X137706353Y-105338438D01*
X137362577Y-105480483D01*
X137329402Y-105513600D01*
X134426802Y-105513600D01*
X132860320Y-103947118D01*
X132860320Y-95652257D01*
X132999192Y-95513627D01*
X133055647Y-95377669D01*
X135691478Y-98013500D01*
X135691438Y-98058987D01*
X135833483Y-98402763D01*
X136096273Y-98666012D01*
X136439801Y-98808658D01*
X136811767Y-98808982D01*
X137155543Y-98666937D01*
X137418792Y-98404147D01*
X137561438Y-98060619D01*
X137561762Y-97688653D01*
X137419717Y-97344877D01*
X137156927Y-97081628D01*
X136813399Y-96938982D01*
X136766523Y-96938941D01*
X132789200Y-92961618D01*
X132789200Y-88814763D01*
X132821392Y-88782627D01*
X132921000Y-88542745D01*
X132921000Y-90083640D01*
X132982658Y-90393614D01*
X133057084Y-90505000D01*
X133158244Y-90656396D01*
X133209810Y-90707962D01*
X133334123Y-91008823D01*
X133596913Y-91272072D01*
X133940441Y-91414718D01*
X134312407Y-91415042D01*
X134656183Y-91272997D01*
X134919432Y-91010207D01*
X135062078Y-90666679D01*
X135062402Y-90294713D01*
X134920357Y-89950937D01*
X134657567Y-89687688D01*
X134541000Y-89639285D01*
X134541000Y-86311972D01*
X136612616Y-84240357D01*
X136765461Y-84011608D01*
X136788202Y-83977574D01*
X136849860Y-83667600D01*
X136849860Y-83119319D01*
X137026318Y-82855230D01*
X137059461Y-82688612D01*
X137305013Y-82443060D01*
X140426679Y-82443060D01*
X140727321Y-82567898D01*
X141099287Y-82568222D01*
X141443063Y-82426177D01*
X141706312Y-82163387D01*
X141848958Y-81819859D01*
X141848999Y-81772983D01*
X142656402Y-80965580D01*
X144415657Y-80965580D01*
X144447793Y-80997772D01*
X144791321Y-81140418D01*
X145163287Y-81140742D01*
X145507063Y-80998697D01*
X145770312Y-80735907D01*
X145912958Y-80392379D01*
X145913282Y-80020413D01*
X145771237Y-79676637D01*
X145508447Y-79413388D01*
X145164919Y-79270742D01*
X144792953Y-79270418D01*
X144449177Y-79412463D01*
X144416002Y-79445580D01*
X142341600Y-79445580D01*
X142050761Y-79503432D01*
X141804199Y-79668179D01*
X141674120Y-79798258D01*
X141674120Y-77028040D01*
X141627186Y-76792089D01*
X141825727Y-76792262D01*
X142169503Y-76650217D01*
X142432752Y-76387427D01*
X142575398Y-76043899D01*
X142575722Y-75671933D01*
X142433677Y-75328157D01*
X142170887Y-75064908D01*
X142034800Y-75008399D01*
X142034800Y-73260967D01*
X147151918Y-73260967D01*
X147293963Y-73604743D01*
X147556753Y-73867992D01*
X147900281Y-74010638D01*
X148272247Y-74010962D01*
X148616023Y-73868917D01*
X148879272Y-73606127D01*
X149021918Y-73262599D01*
X149021959Y-73215723D01*
X149148642Y-73089040D01*
X150827898Y-73089040D01*
X151337386Y-73598528D01*
X151158228Y-73777373D01*
X151015582Y-74120901D01*
X151015258Y-74492867D01*
X151157303Y-74836643D01*
X151190420Y-74869818D01*
X151190420Y-74939560D01*
X150926177Y-75048743D01*
X150662928Y-75311533D01*
X150520282Y-75655061D01*
X150519958Y-76027027D01*
X150662003Y-76370803D01*
X150924793Y-76634052D01*
X151268321Y-76776698D01*
X151640287Y-76777022D01*
X151984063Y-76634977D01*
X152247312Y-76372187D01*
X152389958Y-76028659D01*
X152389999Y-75981783D01*
X152487821Y-75883961D01*
X152516300Y-75841339D01*
X152516300Y-76361437D01*
X152484108Y-76393573D01*
X152341462Y-76737101D01*
X152341138Y-77109067D01*
X152483183Y-77452843D01*
X152745973Y-77716092D01*
X153089501Y-77858738D01*
X153461467Y-77859062D01*
X153805243Y-77717017D01*
X154068492Y-77454227D01*
X154211138Y-77110699D01*
X154211462Y-76738733D01*
X154069417Y-76394957D01*
X154036300Y-76361782D01*
X154036300Y-74462640D01*
X153978448Y-74171801D01*
X153813701Y-73925239D01*
X151680101Y-71791639D01*
X151433539Y-71626892D01*
X151142700Y-71569040D01*
X148833840Y-71569040D01*
X148543001Y-71626892D01*
X148296439Y-71791639D01*
X147947400Y-72140678D01*
X147901913Y-72140638D01*
X147558137Y-72282683D01*
X147294888Y-72545473D01*
X147152242Y-72889001D01*
X147151918Y-73260967D01*
X142034800Y-73260967D01*
X142034800Y-73219163D01*
X142066992Y-73187027D01*
X142209638Y-72843499D01*
X142209962Y-72471533D01*
X142067917Y-72127757D01*
X141805127Y-71864508D01*
X141461599Y-71721862D01*
X141089920Y-71721538D01*
X141089920Y-71437500D01*
X141075816Y-71366596D01*
X141335507Y-71366822D01*
X141679283Y-71224777D01*
X141712458Y-71191660D01*
X143877199Y-71191660D01*
X143922013Y-71236552D01*
X144265541Y-71379198D01*
X144637507Y-71379522D01*
X144981283Y-71237477D01*
X145244532Y-70974687D01*
X145387178Y-70631159D01*
X145387502Y-70259193D01*
X145245457Y-69915417D01*
X144982667Y-69652168D01*
X144951940Y-69639409D01*
X144993983Y-69622037D01*
X145257232Y-69359247D01*
X145399878Y-69015719D01*
X145400202Y-68643753D01*
X145258157Y-68299977D01*
X144995367Y-68036728D01*
X144651839Y-67894082D01*
X144279873Y-67893758D01*
X143976957Y-68018920D01*
X141584913Y-68018920D01*
X140667480Y-67101488D01*
X140667480Y-64792621D01*
X140792318Y-64491979D01*
X140792642Y-64120013D01*
X140650597Y-63776237D01*
X140387807Y-63512988D01*
X140044279Y-63370342D01*
X139672313Y-63370018D01*
X139328537Y-63512063D01*
X139065288Y-63774853D01*
X138922642Y-64118381D01*
X138922318Y-64490347D01*
X139047480Y-64793263D01*
X139047480Y-67437000D01*
X139109138Y-67746974D01*
X139260764Y-67973898D01*
X139284724Y-68009756D01*
X140085926Y-68810959D01*
X139786613Y-68810698D01*
X139442837Y-68952743D01*
X139179588Y-69215533D01*
X139036942Y-69559061D01*
X139036618Y-69931027D01*
X139178663Y-70274803D01*
X139211780Y-70307978D01*
X139211780Y-70593298D01*
X139116189Y-70497707D01*
X139116242Y-70436993D01*
X138974197Y-70093217D01*
X138711407Y-69829968D01*
X138367879Y-69687322D01*
X137995913Y-69686998D01*
X137652137Y-69829043D01*
X137388888Y-70091833D01*
X137246242Y-70435361D01*
X137245918Y-70807327D01*
X137387963Y-71151103D01*
X137650753Y-71414352D01*
X137994281Y-71556998D01*
X138025904Y-71557026D01*
X138960320Y-72491442D01*
X138960320Y-74498809D01*
X138695539Y-74388862D01*
X138323573Y-74388538D01*
X138065624Y-74495120D01*
X134274402Y-74495120D01*
X133302280Y-73522998D01*
X133302280Y-70119240D01*
X133244428Y-69828401D01*
X133244428Y-69828400D01*
X133079681Y-69581839D01*
X131660441Y-68162599D01*
X131413879Y-67997852D01*
X131123040Y-67940000D01*
X129952954Y-67940000D01*
X129759147Y-67649946D01*
X129429974Y-67430000D01*
X129759147Y-67210054D01*
X130081054Y-66728285D01*
X130194093Y-66160000D01*
X130081054Y-65591715D01*
X129759147Y-65109946D01*
X129429974Y-64890000D01*
X129759147Y-64670054D01*
X130081054Y-64188285D01*
X130194093Y-63620000D01*
X130081054Y-63051715D01*
X129759147Y-62569946D01*
X129418447Y-62342298D01*
X129561358Y-62275183D01*
X129951645Y-61846924D01*
X130121476Y-61436890D01*
X130000155Y-61207000D01*
X128807000Y-61207000D01*
X128807000Y-61227000D01*
X128553000Y-61227000D01*
X128553000Y-61207000D01*
X128533000Y-61207000D01*
X128533000Y-60953000D01*
X128553000Y-60953000D01*
X128553000Y-58667000D01*
X128807000Y-58667000D01*
X128807000Y-60953000D01*
X130000155Y-60953000D01*
X130121476Y-60723110D01*
X129951645Y-60313076D01*
X129561358Y-59884817D01*
X129508359Y-59859927D01*
X134075998Y-59859927D01*
X134184722Y-60123060D01*
X134081402Y-60371881D01*
X134081078Y-60743847D01*
X134223123Y-61087623D01*
X134485913Y-61350872D01*
X134829441Y-61493518D01*
X135201407Y-61493842D01*
X135545183Y-61351797D01*
X135583447Y-61313600D01*
X137572897Y-61313600D01*
X137605033Y-61345792D01*
X137948561Y-61488438D01*
X138320527Y-61488762D01*
X138664303Y-61346717D01*
X138927552Y-61083927D01*
X139070198Y-60740399D01*
X139070212Y-60723527D01*
X148569238Y-60723527D01*
X148711283Y-61067303D01*
X148974073Y-61330552D01*
X149317601Y-61473198D01*
X149689567Y-61473522D01*
X150033343Y-61331477D01*
X150296592Y-61068687D01*
X150439238Y-60725159D01*
X150439562Y-60353193D01*
X150400733Y-60259219D01*
X153075124Y-57584829D01*
X153375983Y-57460517D01*
X153639232Y-57197727D01*
X153781878Y-56854199D01*
X153782202Y-56482233D01*
X153640157Y-56138457D01*
X153377367Y-55875208D01*
X153033839Y-55732562D01*
X152661873Y-55732238D01*
X152318097Y-55874283D01*
X152054848Y-56137073D01*
X151929156Y-56439771D01*
X148931644Y-59437284D01*
X148756058Y-59700066D01*
X148694400Y-60010040D01*
X148694400Y-60050919D01*
X148569562Y-60351561D01*
X148569238Y-60723527D01*
X139070212Y-60723527D01*
X139070522Y-60368433D01*
X138967917Y-60120111D01*
X139075278Y-59861559D01*
X139075602Y-59489593D01*
X138978258Y-59254002D01*
X139080358Y-59008119D01*
X139080682Y-58636153D01*
X138938637Y-58292377D01*
X138675847Y-58029128D01*
X138332319Y-57886482D01*
X137960353Y-57886158D01*
X137616577Y-58028203D01*
X137583402Y-58061320D01*
X135583783Y-58061320D01*
X135551647Y-58029128D01*
X135208119Y-57886482D01*
X134836153Y-57886158D01*
X134492377Y-58028203D01*
X134229128Y-58290993D01*
X134086482Y-58634521D01*
X134086158Y-59006487D01*
X134180968Y-59235946D01*
X134076322Y-59487961D01*
X134075998Y-59859927D01*
X129508359Y-59859927D01*
X129402046Y-59810000D01*
X129561358Y-59735183D01*
X129951645Y-59306924D01*
X130121476Y-58896890D01*
X130000155Y-58667000D01*
X128807000Y-58667000D01*
X128553000Y-58667000D01*
X128533000Y-58667000D01*
X128533000Y-58413000D01*
X128553000Y-58413000D01*
X128553000Y-58393000D01*
X128807000Y-58393000D01*
X128807000Y-58413000D01*
X130000155Y-58413000D01*
X130121476Y-58183110D01*
X129951645Y-57773076D01*
X129675499Y-57470063D01*
X129765317Y-57453162D01*
X129981441Y-57314090D01*
X130116839Y-57115928D01*
X130019942Y-57349281D01*
X130019618Y-57721247D01*
X130161663Y-58065023D01*
X130424453Y-58328272D01*
X130767981Y-58470918D01*
X131139947Y-58471242D01*
X131481781Y-58329999D01*
X131796681Y-58460758D01*
X132168647Y-58461082D01*
X132512423Y-58319037D01*
X132775672Y-58056247D01*
X132918318Y-57712719D01*
X132918642Y-57340753D01*
X132776597Y-56996977D01*
X132738400Y-56958713D01*
X132738400Y-54178200D01*
X132680548Y-53887361D01*
X132680548Y-53887360D01*
X132515801Y-53640799D01*
X132430922Y-53555920D01*
X132430962Y-53510433D01*
X132288917Y-53166657D01*
X132026127Y-52903408D01*
X131682599Y-52760762D01*
X131310633Y-52760438D01*
X130966857Y-52902483D01*
X130703608Y-53165273D01*
X130591100Y-53436221D01*
X130426713Y-53436078D01*
X130082937Y-53578123D01*
X129819688Y-53840913D01*
X129677042Y-54184441D01*
X129676739Y-54532275D01*
X129530000Y-54502560D01*
X127830000Y-54502560D01*
X127710000Y-54525140D01*
X127710000Y-50710000D01*
X170290000Y-50710000D01*
X170290000Y-54515000D01*
X170290000Y-54515000D01*
G37*
X170290000Y-54515000D02*
X169605750Y-54515000D01*
X169447000Y-54673750D01*
X169447000Y-55873000D01*
X169467000Y-55873000D01*
X169467000Y-56127000D01*
X169447000Y-56127000D01*
X169447000Y-56147000D01*
X169193000Y-56147000D01*
X169193000Y-56127000D01*
X167993750Y-56127000D01*
X167835000Y-56285750D01*
X167835000Y-56976310D01*
X167931673Y-57209699D01*
X168110302Y-57388327D01*
X168284777Y-57460597D01*
X168240853Y-57489946D01*
X167918946Y-57971715D01*
X167805907Y-58540000D01*
X167918946Y-59108285D01*
X168240853Y-59590054D01*
X168570026Y-59810000D01*
X168240853Y-60029946D01*
X167918946Y-60511715D01*
X167805907Y-61080000D01*
X167918946Y-61648285D01*
X168240853Y-62130054D01*
X168570026Y-62350000D01*
X168240853Y-62569946D01*
X167918946Y-63051715D01*
X167805907Y-63620000D01*
X167918946Y-64188285D01*
X168240853Y-64670054D01*
X168570026Y-64890000D01*
X168240853Y-65109946D01*
X167918946Y-65591715D01*
X167805907Y-66160000D01*
X167918946Y-66728285D01*
X168240853Y-67210054D01*
X168570026Y-67430000D01*
X168240853Y-67649946D01*
X167918946Y-68131715D01*
X167805907Y-68700000D01*
X167918946Y-69268285D01*
X168240853Y-69750054D01*
X168570026Y-69970000D01*
X168240853Y-70189946D01*
X167918946Y-70671715D01*
X167805907Y-71240000D01*
X167918946Y-71808285D01*
X168240853Y-72290054D01*
X168570026Y-72510000D01*
X168240853Y-72729946D01*
X167918946Y-73211715D01*
X167805907Y-73780000D01*
X167918946Y-74348285D01*
X168240853Y-74830054D01*
X168570026Y-75050000D01*
X168240853Y-75269946D01*
X167918946Y-75751715D01*
X167805907Y-76320000D01*
X167918946Y-76888285D01*
X168240853Y-77370054D01*
X168570026Y-77590000D01*
X168240853Y-77809946D01*
X167918946Y-78291715D01*
X167805907Y-78860000D01*
X167918946Y-79428285D01*
X168240853Y-79910054D01*
X168570026Y-80130000D01*
X168240853Y-80349946D01*
X167978177Y-80743070D01*
X167923048Y-80465921D01*
X167758301Y-80219359D01*
X167445881Y-79906939D01*
X167199319Y-79742192D01*
X166908480Y-79684340D01*
X166628922Y-79684340D01*
X166322280Y-79377698D01*
X166322280Y-79186882D01*
X167141081Y-78368081D01*
X167305828Y-78121519D01*
X167363680Y-77830680D01*
X167363680Y-75467063D01*
X167395872Y-75434927D01*
X167538518Y-75091399D01*
X167538842Y-74719433D01*
X167396797Y-74375657D01*
X167338280Y-74317038D01*
X167338280Y-72001380D01*
X167280428Y-71710541D01*
X167115681Y-71463979D01*
X165829520Y-70177818D01*
X165829520Y-62816582D01*
X166103280Y-62542822D01*
X166148767Y-62542862D01*
X166492543Y-62400817D01*
X166755792Y-62138027D01*
X166898438Y-61794499D01*
X166898762Y-61422533D01*
X166756717Y-61078757D01*
X166493927Y-60815508D01*
X166150399Y-60672862D01*
X165778433Y-60672538D01*
X165434657Y-60814583D01*
X165171408Y-61077373D01*
X165028762Y-61420901D01*
X165028721Y-61467777D01*
X164532119Y-61964379D01*
X164367372Y-62210941D01*
X164309520Y-62501780D01*
X164309520Y-70492620D01*
X164367372Y-70783459D01*
X164532119Y-71030021D01*
X165818280Y-72316182D01*
X165818280Y-74367493D01*
X165811488Y-74374273D01*
X165668842Y-74717801D01*
X165668518Y-75089767D01*
X165810563Y-75433543D01*
X165843680Y-75466718D01*
X165843680Y-77515878D01*
X165024879Y-78334679D01*
X164965920Y-78422918D01*
X164965920Y-76387960D01*
X164908068Y-76097121D01*
X164743321Y-75850559D01*
X163871180Y-74978418D01*
X163871180Y-72734023D01*
X163903372Y-72701887D01*
X164046018Y-72358359D01*
X164046342Y-71986393D01*
X163904297Y-71642617D01*
X163641507Y-71379368D01*
X163297979Y-71236722D01*
X162926013Y-71236398D01*
X162728201Y-71318132D01*
X162464859Y-71208782D01*
X162092893Y-71208458D01*
X161863901Y-71303075D01*
X161636819Y-71208782D01*
X161264853Y-71208458D01*
X161039733Y-71301475D01*
X160785919Y-71196082D01*
X160413953Y-71195758D01*
X160070177Y-71337803D01*
X159806928Y-71600593D01*
X159664282Y-71944121D01*
X159663958Y-72316087D01*
X159806003Y-72659863D01*
X159839120Y-72693038D01*
X159839120Y-76009500D01*
X159852136Y-76074934D01*
X157671040Y-73893838D01*
X157671040Y-67756882D01*
X159472821Y-65955101D01*
X159637568Y-65708539D01*
X159695420Y-65417700D01*
X159695420Y-60398407D01*
X161416558Y-60398407D01*
X161558603Y-60742183D01*
X161821393Y-61005432D01*
X162164921Y-61148078D01*
X162536887Y-61148402D01*
X162880663Y-61006357D01*
X163143912Y-60743567D01*
X163286558Y-60400039D01*
X163286882Y-60028073D01*
X163144837Y-59684297D01*
X163066000Y-59605322D01*
X163066000Y-56618982D01*
X164343040Y-55341942D01*
X164365687Y-55341962D01*
X164709463Y-55199917D01*
X164885997Y-55023690D01*
X167835000Y-55023690D01*
X167835000Y-55714250D01*
X167993750Y-55873000D01*
X169193000Y-55873000D01*
X169193000Y-54673750D01*
X169034250Y-54515000D01*
X168343691Y-54515000D01*
X168110302Y-54611673D01*
X167931673Y-54790301D01*
X167835000Y-55023690D01*
X164885997Y-55023690D01*
X164972712Y-54937127D01*
X165115358Y-54593599D01*
X165115682Y-54221633D01*
X164973637Y-53877857D01*
X164710847Y-53614608D01*
X164367319Y-53471962D01*
X163995353Y-53471638D01*
X163651577Y-53613683D01*
X163388328Y-53876473D01*
X163245682Y-54220001D01*
X163245621Y-54289757D01*
X161768599Y-55766779D01*
X161603852Y-56013341D01*
X161546000Y-56304180D01*
X161546000Y-59715492D01*
X161416882Y-60026441D01*
X161416558Y-60398407D01*
X159695420Y-60398407D01*
X159695420Y-60385960D01*
X159637568Y-60095121D01*
X159472821Y-59848559D01*
X158933282Y-59309020D01*
X158933322Y-59263533D01*
X158791277Y-58919757D01*
X158528487Y-58656508D01*
X158184959Y-58513862D01*
X157812993Y-58513538D01*
X157469217Y-58655583D01*
X157205968Y-58918373D01*
X157063322Y-59261901D01*
X157062998Y-59633867D01*
X157205043Y-59977643D01*
X157467833Y-60240892D01*
X157811361Y-60383538D01*
X157858237Y-60383579D01*
X158175420Y-60700762D01*
X158175420Y-65102898D01*
X156373639Y-66904679D01*
X156291384Y-67027782D01*
X156025120Y-66761518D01*
X156025120Y-58729880D01*
X156016929Y-58688700D01*
X155967268Y-58439040D01*
X155802521Y-58192479D01*
X155616047Y-58006005D01*
X155616082Y-57965593D01*
X155474037Y-57621817D01*
X155211247Y-57358568D01*
X154867719Y-57215922D01*
X154495753Y-57215598D01*
X154151977Y-57357643D01*
X153888728Y-57620433D01*
X153746082Y-57963961D01*
X153745758Y-58335927D01*
X153887803Y-58679703D01*
X154150593Y-58942952D01*
X154494121Y-59085598D01*
X154505120Y-59085608D01*
X154505120Y-67076320D01*
X154562972Y-67367159D01*
X154727719Y-67613721D01*
X155439840Y-68325842D01*
X155439840Y-74350880D01*
X155497692Y-74641719D01*
X155662439Y-74888281D01*
X158894240Y-78120082D01*
X158894240Y-80255231D01*
X158877288Y-80272153D01*
X158734642Y-80615681D01*
X158734318Y-80987647D01*
X158876363Y-81331423D01*
X159139153Y-81594672D01*
X159482681Y-81737318D01*
X159854647Y-81737642D01*
X160105516Y-81633985D01*
X160366601Y-81742398D01*
X160738567Y-81742722D01*
X161082343Y-81600677D01*
X161345592Y-81337887D01*
X161488238Y-80994359D01*
X161488562Y-80622393D01*
X161346517Y-80278617D01*
X161313400Y-80245442D01*
X161313400Y-80241111D01*
X161540081Y-80335238D01*
X161912047Y-80335562D01*
X162132360Y-80244531D01*
X162363041Y-80340318D01*
X162735007Y-80340642D01*
X162977302Y-80240528D01*
X163180921Y-80325078D01*
X163552887Y-80325402D01*
X163807914Y-80220027D01*
X164024201Y-80309838D01*
X164396167Y-80310162D01*
X164739943Y-80168117D01*
X164886105Y-80022210D01*
X165024879Y-80229901D01*
X165776719Y-80981741D01*
X166023280Y-81146488D01*
X166314120Y-81204340D01*
X166460900Y-81204340D01*
X166460900Y-105298398D01*
X164950298Y-106809000D01*
X158953596Y-106809000D01*
X159055908Y-106655879D01*
X159113760Y-106365040D01*
X159113760Y-104353164D01*
X159156326Y-104324722D01*
X159402363Y-103956502D01*
X159488760Y-103522156D01*
X159488760Y-103477684D01*
X159405248Y-103057844D01*
X159488760Y-102856229D01*
X159488760Y-102515670D01*
X159330010Y-102356920D01*
X158480760Y-102356920D01*
X158480760Y-102367946D01*
X158353760Y-102342684D01*
X158226760Y-102367946D01*
X158226760Y-102356920D01*
X158206760Y-102356920D01*
X158206760Y-102312484D01*
X158218760Y-102252156D01*
X158218760Y-102207684D01*
X158206760Y-102147356D01*
X158206760Y-102102920D01*
X158226760Y-102102920D01*
X158226760Y-101253670D01*
X158480760Y-101253670D01*
X158480760Y-102102920D01*
X159330010Y-102102920D01*
X159488760Y-101944170D01*
X159488760Y-101603611D01*
X159392087Y-101370222D01*
X159213459Y-101191593D01*
X158980070Y-101094920D01*
X158639510Y-101094920D01*
X158480760Y-101253670D01*
X158226760Y-101253670D01*
X158068010Y-101094920D01*
X157727450Y-101094920D01*
X157538942Y-101173003D01*
X157518106Y-101159081D01*
X157083760Y-101072684D01*
X156649414Y-101159081D01*
X156448760Y-101293154D01*
X156248106Y-101159081D01*
X155813760Y-101072684D01*
X155379414Y-101159081D01*
X155178760Y-101293154D01*
X154978106Y-101159081D01*
X154543760Y-101072684D01*
X154109414Y-101159081D01*
X153908760Y-101293154D01*
X153708106Y-101159081D01*
X153273760Y-101072684D01*
X152839414Y-101159081D01*
X152471194Y-101405118D01*
X152408160Y-101499455D01*
X152408160Y-99743260D01*
X152350308Y-99452421D01*
X152185561Y-99205859D01*
X150706360Y-97726658D01*
X150706360Y-94157800D01*
X150682216Y-94036420D01*
X150648508Y-93866960D01*
X150483761Y-93620399D01*
X149606540Y-92743178D01*
X149606540Y-86817200D01*
X149548688Y-86526361D01*
X149383941Y-86279799D01*
X148425440Y-85321298D01*
X148425440Y-84062737D01*
X148753183Y-83927317D01*
X149016432Y-83664527D01*
X149159078Y-83320999D01*
X149159402Y-82949033D01*
X149017357Y-82605257D01*
X148989836Y-82577687D01*
X149061998Y-82577687D01*
X149204043Y-82921463D01*
X149466833Y-83184712D01*
X149810361Y-83327358D01*
X149857237Y-83327399D01*
X150189804Y-83659966D01*
X150189758Y-83713067D01*
X150331803Y-84056843D01*
X150594593Y-84320092D01*
X150938121Y-84462738D01*
X151310087Y-84463062D01*
X151653863Y-84321017D01*
X151917112Y-84058227D01*
X152059758Y-83714699D01*
X152060082Y-83342733D01*
X151918037Y-82998957D01*
X151655247Y-82735708D01*
X151311719Y-82593062D01*
X151272470Y-82593028D01*
X150932282Y-82252840D01*
X150932322Y-82207353D01*
X150790277Y-81863577D01*
X150527487Y-81600328D01*
X150183959Y-81457682D01*
X149811993Y-81457358D01*
X149468217Y-81599403D01*
X149204968Y-81862193D01*
X149062322Y-82205721D01*
X149061998Y-82577687D01*
X148989836Y-82577687D01*
X148754567Y-82342008D01*
X148411039Y-82199362D01*
X148039073Y-82199038D01*
X147731561Y-82326099D01*
X147533642Y-82243915D01*
X147533802Y-82060033D01*
X147391757Y-81716257D01*
X147128967Y-81453008D01*
X146785439Y-81310362D01*
X146413473Y-81310038D01*
X146069697Y-81452083D01*
X145806448Y-81714873D01*
X145663802Y-82058401D01*
X145663478Y-82430367D01*
X145805523Y-82774143D01*
X145838640Y-82807318D01*
X145838640Y-86715758D01*
X143804798Y-88749600D01*
X143248288Y-88749600D01*
X142937339Y-88620482D01*
X142565373Y-88620158D01*
X142221597Y-88762203D01*
X141958348Y-89024993D01*
X141815702Y-89368521D01*
X141815378Y-89740487D01*
X141957423Y-90084263D01*
X142220213Y-90347512D01*
X142563741Y-90490158D01*
X142935707Y-90490482D01*
X143279483Y-90348437D01*
X143358458Y-90269600D01*
X144119600Y-90269600D01*
X144410439Y-90211748D01*
X144657001Y-90047001D01*
X146899417Y-87804585D01*
X147022280Y-87855602D01*
X147022280Y-88836658D01*
X144091818Y-91767120D01*
X142372080Y-91767120D01*
X142081241Y-91824972D01*
X141834679Y-91989719D01*
X137902759Y-95921639D01*
X137738012Y-96168201D01*
X137680160Y-96459040D01*
X137680160Y-98822657D01*
X137647968Y-98854793D01*
X137505322Y-99198321D01*
X137504998Y-99570287D01*
X137647043Y-99914063D01*
X137909833Y-100177312D01*
X138253361Y-100319958D01*
X138625327Y-100320282D01*
X138969103Y-100178237D01*
X139232352Y-99915447D01*
X139374998Y-99571919D01*
X139375322Y-99199953D01*
X139233277Y-98856177D01*
X139200160Y-98823002D01*
X139200160Y-96773842D01*
X142686882Y-93287120D01*
X144180630Y-93287120D01*
X144268823Y-93500563D01*
X144531613Y-93763812D01*
X144875141Y-93906458D01*
X145247107Y-93906782D01*
X145590883Y-93764737D01*
X145611336Y-93744320D01*
X146730878Y-93744320D01*
X146989398Y-94002840D01*
X146989358Y-94048327D01*
X147131403Y-94392103D01*
X147394193Y-94655352D01*
X147737721Y-94797998D01*
X148109687Y-94798322D01*
X148453463Y-94656277D01*
X148580390Y-94529572D01*
X148713920Y-94663102D01*
X148713920Y-98267520D01*
X148771772Y-98558359D01*
X148936519Y-98804921D01*
X150405560Y-100273962D01*
X150405560Y-102574993D01*
X150319993Y-102574918D01*
X149976217Y-102716963D01*
X149712968Y-102979753D01*
X149570322Y-103323281D01*
X149569998Y-103695247D01*
X149712043Y-104039023D01*
X149745160Y-104072198D01*
X149745160Y-106974640D01*
X149803012Y-107265479D01*
X149967759Y-107512041D01*
X150562119Y-108106401D01*
X150808681Y-108271148D01*
X151099520Y-108329000D01*
X165265100Y-108329000D01*
X165555939Y-108271148D01*
X165802501Y-108106401D01*
X167758301Y-106150601D01*
X167923048Y-105904039D01*
X167980900Y-105613200D01*
X167980900Y-104921006D01*
X168240853Y-105310054D01*
X168722622Y-105631961D01*
X169290907Y-105745000D01*
X169349093Y-105745000D01*
X169917378Y-105631961D01*
X170290000Y-105382984D01*
X170290000Y-109290000D01*
X127710000Y-109290000D01*
X127710000Y-105382984D01*
X128082622Y-105631961D01*
X128650907Y-105745000D01*
X128709093Y-105745000D01*
X129277378Y-105631961D01*
X129759147Y-105310054D01*
X130081054Y-104828285D01*
X130194093Y-104260000D01*
X130081054Y-103691715D01*
X129759147Y-103209946D01*
X129429974Y-102990000D01*
X129759147Y-102770054D01*
X130081054Y-102288285D01*
X130194093Y-101720000D01*
X130081054Y-101151715D01*
X129759147Y-100669946D01*
X129429974Y-100450000D01*
X129759147Y-100230054D01*
X130081054Y-99748285D01*
X130194093Y-99180000D01*
X130081054Y-98611715D01*
X129759147Y-98129946D01*
X129429974Y-97910000D01*
X129759147Y-97690054D01*
X130081054Y-97208285D01*
X130194093Y-96640000D01*
X130081054Y-96071715D01*
X129759147Y-95589946D01*
X129429974Y-95370000D01*
X129759147Y-95150054D01*
X130081054Y-94668285D01*
X130194093Y-94100000D01*
X130081054Y-93531715D01*
X129759147Y-93049946D01*
X129429974Y-92830000D01*
X129759147Y-92610054D01*
X130081054Y-92128285D01*
X130194093Y-91560000D01*
X130081054Y-90991715D01*
X129759147Y-90509946D01*
X129429974Y-90290000D01*
X129759147Y-90070054D01*
X130081054Y-89588285D01*
X130194093Y-89020000D01*
X130081054Y-88451715D01*
X129759147Y-87969946D01*
X129429974Y-87750000D01*
X129759147Y-87530054D01*
X130081054Y-87048285D01*
X130194093Y-86480000D01*
X130081054Y-85911715D01*
X129759147Y-85429946D01*
X129429974Y-85210000D01*
X129759147Y-84990054D01*
X130081054Y-84508285D01*
X130194093Y-83940000D01*
X130081054Y-83371715D01*
X129759147Y-82889946D01*
X129429974Y-82670000D01*
X129759147Y-82450054D01*
X130081054Y-81968285D01*
X130194093Y-81400000D01*
X130081054Y-80831715D01*
X129759147Y-80349946D01*
X129429974Y-80130000D01*
X129759147Y-79910054D01*
X129952954Y-79620000D01*
X130048778Y-79620000D01*
X130319240Y-79890462D01*
X130319240Y-83309460D01*
X130377092Y-83600299D01*
X130541839Y-83846861D01*
X132092298Y-85397320D01*
X132092258Y-85442807D01*
X132234303Y-85786583D01*
X132497093Y-86049832D01*
X132840621Y-86192478D01*
X132921000Y-86192548D01*
X132921000Y-87962189D01*
X132822317Y-87723357D01*
X132559527Y-87460108D01*
X132215999Y-87317462D01*
X131844033Y-87317138D01*
X131500257Y-87459183D01*
X131237008Y-87721973D01*
X131094362Y-88065501D01*
X131094038Y-88437467D01*
X131236083Y-88781243D01*
X131269200Y-88814418D01*
X131269200Y-90002174D01*
X130975353Y-90001918D01*
X130631577Y-90143963D01*
X130368328Y-90406753D01*
X130225682Y-90750281D01*
X130225358Y-91122247D01*
X130350520Y-91425163D01*
X130350520Y-93738700D01*
X130412178Y-94048674D01*
X130587764Y-94311456D01*
X131271989Y-94995681D01*
X131271838Y-95168467D01*
X131340320Y-95334207D01*
X131340320Y-104261920D01*
X131398172Y-104552759D01*
X131562919Y-104799321D01*
X133574599Y-106811001D01*
X133821161Y-106975748D01*
X134112000Y-107033600D01*
X137329057Y-107033600D01*
X137361193Y-107065792D01*
X137704721Y-107208438D01*
X138076687Y-107208762D01*
X138420463Y-107066717D01*
X138683712Y-106803927D01*
X138826358Y-106460399D01*
X138826682Y-106088433D01*
X138684637Y-105744657D01*
X138421847Y-105481408D01*
X138078319Y-105338762D01*
X137706353Y-105338438D01*
X137362577Y-105480483D01*
X137329402Y-105513600D01*
X134426802Y-105513600D01*
X132860320Y-103947118D01*
X132860320Y-95652257D01*
X132999192Y-95513627D01*
X133055647Y-95377669D01*
X135691478Y-98013500D01*
X135691438Y-98058987D01*
X135833483Y-98402763D01*
X136096273Y-98666012D01*
X136439801Y-98808658D01*
X136811767Y-98808982D01*
X137155543Y-98666937D01*
X137418792Y-98404147D01*
X137561438Y-98060619D01*
X137561762Y-97688653D01*
X137419717Y-97344877D01*
X137156927Y-97081628D01*
X136813399Y-96938982D01*
X136766523Y-96938941D01*
X132789200Y-92961618D01*
X132789200Y-88814763D01*
X132821392Y-88782627D01*
X132921000Y-88542745D01*
X132921000Y-90083640D01*
X132982658Y-90393614D01*
X133057084Y-90505000D01*
X133158244Y-90656396D01*
X133209810Y-90707962D01*
X133334123Y-91008823D01*
X133596913Y-91272072D01*
X133940441Y-91414718D01*
X134312407Y-91415042D01*
X134656183Y-91272997D01*
X134919432Y-91010207D01*
X135062078Y-90666679D01*
X135062402Y-90294713D01*
X134920357Y-89950937D01*
X134657567Y-89687688D01*
X134541000Y-89639285D01*
X134541000Y-86311972D01*
X136612616Y-84240357D01*
X136765461Y-84011608D01*
X136788202Y-83977574D01*
X136849860Y-83667600D01*
X136849860Y-83119319D01*
X137026318Y-82855230D01*
X137059461Y-82688612D01*
X137305013Y-82443060D01*
X140426679Y-82443060D01*
X140727321Y-82567898D01*
X141099287Y-82568222D01*
X141443063Y-82426177D01*
X141706312Y-82163387D01*
X141848958Y-81819859D01*
X141848999Y-81772983D01*
X142656402Y-80965580D01*
X144415657Y-80965580D01*
X144447793Y-80997772D01*
X144791321Y-81140418D01*
X145163287Y-81140742D01*
X145507063Y-80998697D01*
X145770312Y-80735907D01*
X145912958Y-80392379D01*
X145913282Y-80020413D01*
X145771237Y-79676637D01*
X145508447Y-79413388D01*
X145164919Y-79270742D01*
X144792953Y-79270418D01*
X144449177Y-79412463D01*
X144416002Y-79445580D01*
X142341600Y-79445580D01*
X142050761Y-79503432D01*
X141804199Y-79668179D01*
X141674120Y-79798258D01*
X141674120Y-77028040D01*
X141627186Y-76792089D01*
X141825727Y-76792262D01*
X142169503Y-76650217D01*
X142432752Y-76387427D01*
X142575398Y-76043899D01*
X142575722Y-75671933D01*
X142433677Y-75328157D01*
X142170887Y-75064908D01*
X142034800Y-75008399D01*
X142034800Y-73260967D01*
X147151918Y-73260967D01*
X147293963Y-73604743D01*
X147556753Y-73867992D01*
X147900281Y-74010638D01*
X148272247Y-74010962D01*
X148616023Y-73868917D01*
X148879272Y-73606127D01*
X149021918Y-73262599D01*
X149021959Y-73215723D01*
X149148642Y-73089040D01*
X150827898Y-73089040D01*
X151337386Y-73598528D01*
X151158228Y-73777373D01*
X151015582Y-74120901D01*
X151015258Y-74492867D01*
X151157303Y-74836643D01*
X151190420Y-74869818D01*
X151190420Y-74939560D01*
X150926177Y-75048743D01*
X150662928Y-75311533D01*
X150520282Y-75655061D01*
X150519958Y-76027027D01*
X150662003Y-76370803D01*
X150924793Y-76634052D01*
X151268321Y-76776698D01*
X151640287Y-76777022D01*
X151984063Y-76634977D01*
X152247312Y-76372187D01*
X152389958Y-76028659D01*
X152389999Y-75981783D01*
X152487821Y-75883961D01*
X152516300Y-75841339D01*
X152516300Y-76361437D01*
X152484108Y-76393573D01*
X152341462Y-76737101D01*
X152341138Y-77109067D01*
X152483183Y-77452843D01*
X152745973Y-77716092D01*
X153089501Y-77858738D01*
X153461467Y-77859062D01*
X153805243Y-77717017D01*
X154068492Y-77454227D01*
X154211138Y-77110699D01*
X154211462Y-76738733D01*
X154069417Y-76394957D01*
X154036300Y-76361782D01*
X154036300Y-74462640D01*
X153978448Y-74171801D01*
X153813701Y-73925239D01*
X151680101Y-71791639D01*
X151433539Y-71626892D01*
X151142700Y-71569040D01*
X148833840Y-71569040D01*
X148543001Y-71626892D01*
X148296439Y-71791639D01*
X147947400Y-72140678D01*
X147901913Y-72140638D01*
X147558137Y-72282683D01*
X147294888Y-72545473D01*
X147152242Y-72889001D01*
X147151918Y-73260967D01*
X142034800Y-73260967D01*
X142034800Y-73219163D01*
X142066992Y-73187027D01*
X142209638Y-72843499D01*
X142209962Y-72471533D01*
X142067917Y-72127757D01*
X141805127Y-71864508D01*
X141461599Y-71721862D01*
X141089920Y-71721538D01*
X141089920Y-71437500D01*
X141075816Y-71366596D01*
X141335507Y-71366822D01*
X141679283Y-71224777D01*
X141712458Y-71191660D01*
X143877199Y-71191660D01*
X143922013Y-71236552D01*
X144265541Y-71379198D01*
X144637507Y-71379522D01*
X144981283Y-71237477D01*
X145244532Y-70974687D01*
X145387178Y-70631159D01*
X145387502Y-70259193D01*
X145245457Y-69915417D01*
X144982667Y-69652168D01*
X144951940Y-69639409D01*
X144993983Y-69622037D01*
X145257232Y-69359247D01*
X145399878Y-69015719D01*
X145400202Y-68643753D01*
X145258157Y-68299977D01*
X144995367Y-68036728D01*
X144651839Y-67894082D01*
X144279873Y-67893758D01*
X143976957Y-68018920D01*
X141584913Y-68018920D01*
X140667480Y-67101488D01*
X140667480Y-64792621D01*
X140792318Y-64491979D01*
X140792642Y-64120013D01*
X140650597Y-63776237D01*
X140387807Y-63512988D01*
X140044279Y-63370342D01*
X139672313Y-63370018D01*
X139328537Y-63512063D01*
X139065288Y-63774853D01*
X138922642Y-64118381D01*
X138922318Y-64490347D01*
X139047480Y-64793263D01*
X139047480Y-67437000D01*
X139109138Y-67746974D01*
X139260764Y-67973898D01*
X139284724Y-68009756D01*
X140085926Y-68810959D01*
X139786613Y-68810698D01*
X139442837Y-68952743D01*
X139179588Y-69215533D01*
X139036942Y-69559061D01*
X139036618Y-69931027D01*
X139178663Y-70274803D01*
X139211780Y-70307978D01*
X139211780Y-70593298D01*
X139116189Y-70497707D01*
X139116242Y-70436993D01*
X138974197Y-70093217D01*
X138711407Y-69829968D01*
X138367879Y-69687322D01*
X137995913Y-69686998D01*
X137652137Y-69829043D01*
X137388888Y-70091833D01*
X137246242Y-70435361D01*
X137245918Y-70807327D01*
X137387963Y-71151103D01*
X137650753Y-71414352D01*
X137994281Y-71556998D01*
X138025904Y-71557026D01*
X138960320Y-72491442D01*
X138960320Y-74498809D01*
X138695539Y-74388862D01*
X138323573Y-74388538D01*
X138065624Y-74495120D01*
X134274402Y-74495120D01*
X133302280Y-73522998D01*
X133302280Y-70119240D01*
X133244428Y-69828401D01*
X133244428Y-69828400D01*
X133079681Y-69581839D01*
X131660441Y-68162599D01*
X131413879Y-67997852D01*
X131123040Y-67940000D01*
X129952954Y-67940000D01*
X129759147Y-67649946D01*
X129429974Y-67430000D01*
X129759147Y-67210054D01*
X130081054Y-66728285D01*
X130194093Y-66160000D01*
X130081054Y-65591715D01*
X129759147Y-65109946D01*
X129429974Y-64890000D01*
X129759147Y-64670054D01*
X130081054Y-64188285D01*
X130194093Y-63620000D01*
X130081054Y-63051715D01*
X129759147Y-62569946D01*
X129418447Y-62342298D01*
X129561358Y-62275183D01*
X129951645Y-61846924D01*
X130121476Y-61436890D01*
X130000155Y-61207000D01*
X128807000Y-61207000D01*
X128807000Y-61227000D01*
X128553000Y-61227000D01*
X128553000Y-61207000D01*
X128533000Y-61207000D01*
X128533000Y-60953000D01*
X128553000Y-60953000D01*
X128553000Y-58667000D01*
X128807000Y-58667000D01*
X128807000Y-60953000D01*
X130000155Y-60953000D01*
X130121476Y-60723110D01*
X129951645Y-60313076D01*
X129561358Y-59884817D01*
X129508359Y-59859927D01*
X134075998Y-59859927D01*
X134184722Y-60123060D01*
X134081402Y-60371881D01*
X134081078Y-60743847D01*
X134223123Y-61087623D01*
X134485913Y-61350872D01*
X134829441Y-61493518D01*
X135201407Y-61493842D01*
X135545183Y-61351797D01*
X135583447Y-61313600D01*
X137572897Y-61313600D01*
X137605033Y-61345792D01*
X137948561Y-61488438D01*
X138320527Y-61488762D01*
X138664303Y-61346717D01*
X138927552Y-61083927D01*
X139070198Y-60740399D01*
X139070212Y-60723527D01*
X148569238Y-60723527D01*
X148711283Y-61067303D01*
X148974073Y-61330552D01*
X149317601Y-61473198D01*
X149689567Y-61473522D01*
X150033343Y-61331477D01*
X150296592Y-61068687D01*
X150439238Y-60725159D01*
X150439562Y-60353193D01*
X150400733Y-60259219D01*
X153075124Y-57584829D01*
X153375983Y-57460517D01*
X153639232Y-57197727D01*
X153781878Y-56854199D01*
X153782202Y-56482233D01*
X153640157Y-56138457D01*
X153377367Y-55875208D01*
X153033839Y-55732562D01*
X152661873Y-55732238D01*
X152318097Y-55874283D01*
X152054848Y-56137073D01*
X151929156Y-56439771D01*
X148931644Y-59437284D01*
X148756058Y-59700066D01*
X148694400Y-60010040D01*
X148694400Y-60050919D01*
X148569562Y-60351561D01*
X148569238Y-60723527D01*
X139070212Y-60723527D01*
X139070522Y-60368433D01*
X138967917Y-60120111D01*
X139075278Y-59861559D01*
X139075602Y-59489593D01*
X138978258Y-59254002D01*
X139080358Y-59008119D01*
X139080682Y-58636153D01*
X138938637Y-58292377D01*
X138675847Y-58029128D01*
X138332319Y-57886482D01*
X137960353Y-57886158D01*
X137616577Y-58028203D01*
X137583402Y-58061320D01*
X135583783Y-58061320D01*
X135551647Y-58029128D01*
X135208119Y-57886482D01*
X134836153Y-57886158D01*
X134492377Y-58028203D01*
X134229128Y-58290993D01*
X134086482Y-58634521D01*
X134086158Y-59006487D01*
X134180968Y-59235946D01*
X134076322Y-59487961D01*
X134075998Y-59859927D01*
X129508359Y-59859927D01*
X129402046Y-59810000D01*
X129561358Y-59735183D01*
X129951645Y-59306924D01*
X130121476Y-58896890D01*
X130000155Y-58667000D01*
X128807000Y-58667000D01*
X128553000Y-58667000D01*
X128533000Y-58667000D01*
X128533000Y-58413000D01*
X128553000Y-58413000D01*
X128553000Y-58393000D01*
X128807000Y-58393000D01*
X128807000Y-58413000D01*
X130000155Y-58413000D01*
X130121476Y-58183110D01*
X129951645Y-57773076D01*
X129675499Y-57470063D01*
X129765317Y-57453162D01*
X129981441Y-57314090D01*
X130116839Y-57115928D01*
X130019942Y-57349281D01*
X130019618Y-57721247D01*
X130161663Y-58065023D01*
X130424453Y-58328272D01*
X130767981Y-58470918D01*
X131139947Y-58471242D01*
X131481781Y-58329999D01*
X131796681Y-58460758D01*
X132168647Y-58461082D01*
X132512423Y-58319037D01*
X132775672Y-58056247D01*
X132918318Y-57712719D01*
X132918642Y-57340753D01*
X132776597Y-56996977D01*
X132738400Y-56958713D01*
X132738400Y-54178200D01*
X132680548Y-53887361D01*
X132680548Y-53887360D01*
X132515801Y-53640799D01*
X132430922Y-53555920D01*
X132430962Y-53510433D01*
X132288917Y-53166657D01*
X132026127Y-52903408D01*
X131682599Y-52760762D01*
X131310633Y-52760438D01*
X130966857Y-52902483D01*
X130703608Y-53165273D01*
X130591100Y-53436221D01*
X130426713Y-53436078D01*
X130082937Y-53578123D01*
X129819688Y-53840913D01*
X129677042Y-54184441D01*
X129676739Y-54532275D01*
X129530000Y-54502560D01*
X127830000Y-54502560D01*
X127710000Y-54525140D01*
X127710000Y-50710000D01*
X170290000Y-50710000D01*
X170290000Y-54515000D01*
M02*
