M48
;DRILL file {KiCad 4.0.7} date 01/19/19 15:04:47
;FORMAT={3:3/ absolute / metric / suppress leading zeros}
FMAT,2
METRIC,TZ
T1C0.400
T2C0.650
T3C1.000
%
G90
G05
M71
T1
X129896Y-80127
X130612Y-54371
X130955Y-57536
X131161Y-90937
X131496Y-53696
X131983Y-57526
X132029Y-88252
X132207Y-94983
X133027Y-85258
X133106Y-84353
X134120Y-83337
X134127Y-90480
X134158Y-84374
X134531Y-93840
X135011Y-59675
X135016Y-60559
X135021Y-58821
X136093Y-82469
X136627Y-97874
X137765Y-76032
X137892Y-106274
X138135Y-60554
X138140Y-59675
X138146Y-58821
X138181Y-70622
X138196Y-72634
X138440Y-99385
X138509Y-75324
X139857Y-64305
X139972Y-69746
X140914Y-81633
X141143Y-68849
X141150Y-70432
X141275Y-72657
X141641Y-75857
X142751Y-89555
X144452Y-70444
X144465Y-68829
X144978Y-80206
X145062Y-92972
X146599Y-82245
X147295Y-83157
X147302Y-86959
X147843Y-99309
X147925Y-93863
X148087Y-73076
X148224Y-83134
X149108Y-77160
X149184Y-73058
X149504Y-60538
X149997Y-82393
X150505Y-103510
X151044Y-74280
X151125Y-83528
X151455Y-75842
X151950Y-74308
X152847Y-56667
X153276Y-76924
X153307Y-80490
X154681Y-58151
X157998Y-59449
X159669Y-80802
X160553Y-80808
X160599Y-72131
X161450Y-72144
X161727Y-79400
X162278Y-72144
X162352Y-60213
X162550Y-79405
X163111Y-72172
X163368Y-79390
X164181Y-54407
X164211Y-79375
X165964Y-61608
X166604Y-74905
T2
X153274Y-102230
X153274Y-103500
X154544Y-102230
X154544Y-103500
X155814Y-102230
X155814Y-103500
X157084Y-102230
X157084Y-103500
X158354Y-102230
X158354Y-103500
T3
X128680Y-56000
X128680Y-58540
X128680Y-61080
X128680Y-63620
X128680Y-66160
X128680Y-68700
X128680Y-71240
X128680Y-73780
X128680Y-76320
X128680Y-78860
X128680Y-81400
X128680Y-83940
X128680Y-86480
X128680Y-89020
X128680Y-91560
X128680Y-94100
X128680Y-96640
X128680Y-99180
X128680Y-101720
X128680Y-104260
X169320Y-56000
X169320Y-58540
X169320Y-61080
X169320Y-63620
X169320Y-66160
X169320Y-68700
X169320Y-71240
X169320Y-73780
X169320Y-76320
X169320Y-78860
X169320Y-81400
X169320Y-83940
X169320Y-86480
X169320Y-89020
X169320Y-91560
X169320Y-94100
X169320Y-96640
X169320Y-99180
X169320Y-101720
X169320Y-104260
T0
M30
