G04 #@! TF.FileFunction,Copper,L1,Top,Signal*
%FSLAX46Y46*%
G04 Gerber Fmt 4.6, Leading zero omitted, Abs format (unit mm)*
G04 Created by KiCad (PCBNEW 4.0.7) date 01/19/19 15:04:45*
%MOMM*%
%LPD*%
G01*
G04 APERTURE LIST*
%ADD10C,0.100000*%
%ADD11R,1.450000X0.300000*%
%ADD12R,0.300000X1.450000*%
%ADD13R,1.000000X1.600000*%
%ADD14R,1.600000X1.000000*%
%ADD15R,3.800000X2.000000*%
%ADD16R,1.500000X2.000000*%
%ADD17R,2.500000X1.000000*%
%ADD18R,1.000000X2.500000*%
%ADD19R,1.000000X1.250000*%
%ADD20R,1.250000X1.000000*%
%ADD21R,1.500000X1.500000*%
%ADD22R,1.400000X1.200000*%
%ADD23R,1.400000X1.000000*%
%ADD24R,0.900000X2.500000*%
%ADD25R,1.700000X1.700000*%
%ADD26O,1.700000X1.700000*%
%ADD27R,1.000000X1.000000*%
%ADD28O,1.000000X1.000000*%
%ADD29R,1.700000X1.250000*%
%ADD30R,0.800000X0.900000*%
%ADD31R,2.500000X0.900000*%
%ADD32R,1.060000X0.650000*%
%ADD33R,1.000000X1.700000*%
%ADD34R,2.540000X3.000000*%
%ADD35R,1.800000X1.900000*%
%ADD36R,2.100000X1.600000*%
%ADD37R,0.400000X1.350000*%
%ADD38C,0.600000*%
%ADD39C,0.250000*%
%ADD40C,0.350000*%
%ADD41C,0.750000*%
%ADD42C,0.254000*%
G04 APERTURE END LIST*
D10*
D11*
X144847200Y-81959000D03*
X144847200Y-82459000D03*
X144847200Y-82959000D03*
X144847200Y-83459000D03*
X144847200Y-83959000D03*
X144847200Y-84459000D03*
X144847200Y-84959000D03*
X144847200Y-85459000D03*
X144847200Y-85959000D03*
X144847200Y-86959000D03*
X144847200Y-87459000D03*
D12*
X146297200Y-88909000D03*
X146797200Y-88909000D03*
X147297200Y-88909000D03*
X147797200Y-88909000D03*
X148297200Y-88909000D03*
X148797200Y-88909000D03*
X149297200Y-88909000D03*
X149797200Y-88909000D03*
X150297200Y-88909000D03*
X150797200Y-88909000D03*
X151297200Y-88909000D03*
X151797200Y-88909000D03*
D11*
X144847200Y-86459000D03*
X153217200Y-87459000D03*
X153247200Y-86959000D03*
X153247200Y-86459000D03*
X153247200Y-85959000D03*
X153247200Y-85459000D03*
X153247200Y-84959000D03*
X153247200Y-84459000D03*
X153247200Y-83959000D03*
X153247200Y-83459000D03*
X153247200Y-82459000D03*
X153247200Y-81959000D03*
X153247200Y-82959000D03*
D12*
X151797200Y-80509000D03*
X151297200Y-80509000D03*
X150797200Y-80509000D03*
X150297200Y-80509000D03*
X149797200Y-80509000D03*
X149297200Y-80509000D03*
X148797200Y-80509000D03*
X148297200Y-80509000D03*
X147797200Y-80509000D03*
X147297200Y-80509000D03*
X146797200Y-80509000D03*
X146297200Y-80509000D03*
D13*
X151936320Y-72679560D03*
X154936320Y-72679560D03*
D14*
X135133080Y-66104640D03*
X135133080Y-69104640D03*
D15*
X136652000Y-62707920D03*
D16*
X136652000Y-56407920D03*
X134352000Y-56407920D03*
X138952000Y-56407920D03*
D13*
X134136000Y-53421280D03*
X137136000Y-53421280D03*
D14*
X138150600Y-66135120D03*
X138150600Y-69135120D03*
D17*
X149184360Y-71802120D03*
X149184360Y-68802120D03*
D18*
X142990440Y-68595240D03*
X145990440Y-68595240D03*
D17*
X144840960Y-61096020D03*
X144840960Y-58096020D03*
D19*
X139916660Y-81600040D03*
X141916660Y-81600040D03*
D20*
X143050260Y-77216760D03*
X143050260Y-79216760D03*
D13*
X151966800Y-69570600D03*
X154966800Y-69570600D03*
X146419440Y-93863160D03*
X149419440Y-93863160D03*
D14*
X132359400Y-76953240D03*
X132359400Y-73953240D03*
X135971280Y-83923000D03*
X135971280Y-80923000D03*
D21*
X143595360Y-102793800D03*
X140295360Y-102793800D03*
X143625840Y-99303840D03*
X140325840Y-99303840D03*
X143613140Y-106311700D03*
X140313140Y-106311700D03*
D22*
X156296540Y-61166120D03*
D23*
X156296540Y-59446120D03*
X154096540Y-59446120D03*
X154096540Y-61346120D03*
D24*
X148031540Y-60464700D03*
X150931540Y-60464700D03*
D25*
X128680000Y-56000000D03*
D26*
X128680000Y-58540000D03*
X128680000Y-61080000D03*
X128680000Y-63620000D03*
X128680000Y-66160000D03*
X128680000Y-68700000D03*
X128680000Y-71240000D03*
X128680000Y-73780000D03*
X128680000Y-76320000D03*
X128680000Y-78860000D03*
X128680000Y-81400000D03*
X128680000Y-83940000D03*
X128680000Y-86480000D03*
X128680000Y-89020000D03*
X128680000Y-91560000D03*
X128680000Y-94100000D03*
X128680000Y-96640000D03*
X128680000Y-99180000D03*
X128680000Y-101720000D03*
X128680000Y-104260000D03*
D25*
X169320000Y-56000000D03*
D26*
X169320000Y-58540000D03*
X169320000Y-61080000D03*
X169320000Y-63620000D03*
X169320000Y-66160000D03*
X169320000Y-68700000D03*
X169320000Y-71240000D03*
X169320000Y-73780000D03*
X169320000Y-76320000D03*
X169320000Y-78860000D03*
X169320000Y-81400000D03*
X169320000Y-83940000D03*
X169320000Y-86480000D03*
X169320000Y-89020000D03*
X169320000Y-91560000D03*
X169320000Y-94100000D03*
X169320000Y-96640000D03*
X169320000Y-99180000D03*
X169320000Y-101720000D03*
X169320000Y-104260000D03*
D27*
X158353760Y-102229920D03*
D28*
X158353760Y-103499920D03*
X157083760Y-102229920D03*
X157083760Y-103499920D03*
X155813760Y-102229920D03*
X155813760Y-103499920D03*
X154543760Y-102229920D03*
X154543760Y-103499920D03*
X153273760Y-102229920D03*
X153273760Y-103499920D03*
D29*
X132359400Y-82970580D03*
X132359400Y-78710580D03*
D30*
X145628320Y-64974980D03*
X147528320Y-64974980D03*
X146578320Y-62974980D03*
D31*
X142265400Y-62893280D03*
X142265400Y-65793280D03*
D24*
X136738700Y-72618600D03*
X139638700Y-72618600D03*
X149278000Y-102798880D03*
X146378000Y-102798880D03*
X149283080Y-99308920D03*
X146383080Y-99308920D03*
X149280540Y-106311700D03*
X146380540Y-106311700D03*
D32*
X142933240Y-71668600D03*
X142933240Y-72618600D03*
X142933240Y-73568600D03*
X145133240Y-73568600D03*
X145133240Y-71668600D03*
D13*
X155197680Y-79720440D03*
X158197680Y-79720440D03*
D33*
X160347580Y-60243220D03*
X160347580Y-52243220D03*
X164147580Y-60243220D03*
X164147580Y-52243220D03*
D34*
X135471480Y-78303120D03*
D14*
X140471480Y-77003120D03*
X140471480Y-79603120D03*
D35*
X148464420Y-51785520D03*
X145864420Y-51785520D03*
X150864420Y-51785520D03*
X153464420Y-51785520D03*
D36*
X152764420Y-54335520D03*
X146564420Y-54335520D03*
D37*
X148364420Y-54460520D03*
X149014420Y-54460520D03*
X149664420Y-54460520D03*
X150314420Y-54460520D03*
X150964420Y-54460520D03*
D38*
X163367720Y-79390240D03*
X162278060Y-72143620D03*
X162549840Y-79405480D03*
X161450020Y-72143620D03*
X161726880Y-79400400D03*
X160599120Y-72130920D03*
X163111180Y-72171560D03*
X164211000Y-79375000D03*
X144452340Y-70444360D03*
X141150340Y-70431660D03*
X135011160Y-59674760D03*
X138140440Y-59674760D03*
X135021320Y-58821320D03*
X138145520Y-58821320D03*
X131495800Y-53695600D03*
X131983480Y-57525920D03*
X130954780Y-57536080D03*
X130611880Y-54371240D03*
X135016240Y-60558680D03*
X138135360Y-60553600D03*
X147843240Y-99308920D03*
X153306780Y-80490060D03*
X149184360Y-73058020D03*
X149108160Y-77160120D03*
X151043640Y-74279760D03*
X129895600Y-80126840D03*
X134531100Y-93840300D03*
X138196320Y-72633840D03*
X134119620Y-83337400D03*
X151950420Y-74307700D03*
X151455120Y-75841860D03*
X136626600Y-97873820D03*
X132029200Y-88252300D03*
X142750540Y-89555320D03*
X146598640Y-82245200D03*
X138440160Y-99385120D03*
X147302220Y-86959440D03*
X151124920Y-83527900D03*
X149997160Y-82392520D03*
X160553400Y-80807560D03*
X157998160Y-59448700D03*
X159669480Y-80802480D03*
X154680920Y-58150760D03*
X149504400Y-60538360D03*
X152847040Y-56667400D03*
X138508740Y-75323700D03*
X137764520Y-76032360D03*
X134157720Y-84373720D03*
X133106160Y-84353400D03*
X133027420Y-85257640D03*
X147294600Y-83157060D03*
X148224240Y-83134200D03*
X150505160Y-103510080D03*
X166603680Y-74904600D03*
X165963600Y-61607700D03*
X153276300Y-76923900D03*
X148087080Y-73075800D03*
X136093200Y-82468720D03*
X131160520Y-90937080D03*
X134127240Y-90479880D03*
X138181080Y-70622160D03*
X139971780Y-69745860D03*
X164180520Y-54406800D03*
X162351720Y-60213240D03*
X141274800Y-72656700D03*
X141640560Y-75857100D03*
X139857480Y-64305180D03*
X144465040Y-68828920D03*
X141142720Y-68849240D03*
X144978120Y-80205580D03*
X137891520Y-106273600D03*
X132207000Y-94983300D03*
X145061940Y-92971620D03*
X147924520Y-93863160D03*
X140914120Y-81633060D03*
D39*
X141150340Y-70421500D02*
X141150340Y-70431660D01*
X135021320Y-59669680D02*
X135016240Y-59669680D01*
X135016240Y-59669680D02*
X135011160Y-59674760D01*
X131978400Y-57525920D02*
X131983480Y-57525920D01*
X138135360Y-60548520D02*
X138135360Y-60553600D01*
D40*
X134136000Y-53421280D02*
X134136000Y-56191920D01*
X134136000Y-56191920D02*
X134352000Y-56407920D01*
X128680000Y-56000000D02*
X131557280Y-56000000D01*
X131557280Y-56000000D02*
X134136000Y-53421280D01*
X149283080Y-99308920D02*
X147843240Y-99308920D01*
X149278000Y-102798880D02*
X149278000Y-99314000D01*
X149278000Y-99314000D02*
X149283080Y-99308920D01*
X155197680Y-79720440D02*
X154076400Y-79720440D01*
X154076400Y-79720440D02*
X153306780Y-80490060D01*
D39*
X149184360Y-73058020D02*
X149821900Y-73058020D01*
X149184360Y-71802120D02*
X149184360Y-73058020D01*
X148297200Y-77971080D02*
X148297200Y-80509000D01*
X149108160Y-77160120D02*
X148297200Y-77971080D01*
X149821900Y-73058020D02*
X151043640Y-74279760D01*
X145127980Y-93863160D02*
X134553960Y-93863160D01*
X129989580Y-80032860D02*
X130530600Y-80032860D01*
X129895600Y-80126840D02*
X129989580Y-80032860D01*
X134553960Y-93863160D02*
X134531100Y-93840300D01*
X149280540Y-106311700D02*
X159169100Y-106311700D01*
X159918400Y-102229920D02*
X158353760Y-102229920D01*
X160182560Y-102494080D02*
X159918400Y-102229920D01*
X160182560Y-105298240D02*
X160182560Y-102494080D01*
X159169100Y-106311700D02*
X160182560Y-105298240D01*
X149278000Y-102798880D02*
X149278000Y-106309160D01*
X149278000Y-106309160D02*
X149280540Y-106311700D01*
X149379600Y-102697280D02*
X149278000Y-102798880D01*
X146419440Y-93863160D02*
X145127980Y-93863160D01*
X132359400Y-82970580D02*
X132359400Y-81861660D01*
X132359400Y-81861660D02*
X130530600Y-80032860D01*
X133873580Y-75483720D02*
X136738700Y-72618600D01*
X130530600Y-80032860D02*
X130530600Y-75986640D01*
X130530600Y-75986640D02*
X131033520Y-75483720D01*
X131033520Y-75483720D02*
X133873580Y-75483720D01*
X136738700Y-72618600D02*
X138181080Y-72618600D01*
X138181080Y-72618600D02*
X138196320Y-72633840D01*
X132359400Y-82970580D02*
X133752800Y-82970580D01*
X133752800Y-82970580D02*
X134119620Y-83337400D01*
X149184360Y-71802120D02*
X149735280Y-71802120D01*
X149735280Y-71802120D02*
X151966800Y-69570600D01*
X145133240Y-71668600D02*
X149050840Y-71668600D01*
X149050840Y-71668600D02*
X149184360Y-71802120D01*
X153247200Y-81959000D02*
X154657240Y-81959000D01*
X155127960Y-81488280D02*
X155127960Y-79790160D01*
X154657240Y-81959000D02*
X155127960Y-81488280D01*
X155127960Y-79790160D02*
X155197680Y-79720440D01*
X146419440Y-93863160D02*
X146419440Y-92792680D01*
X148297200Y-90914920D02*
X148297200Y-88909000D01*
X146419440Y-92792680D02*
X148297200Y-90914920D01*
X169320000Y-61080000D02*
X169320000Y-58540000D01*
X147528320Y-64974980D02*
X148499320Y-64974980D01*
X168030300Y-62369700D02*
X169320000Y-61080000D01*
X151104600Y-62369700D02*
X168030300Y-62369700D01*
X148499320Y-64974980D02*
X151104600Y-62369700D01*
X142933240Y-71668600D02*
X142933240Y-68652440D01*
X142933240Y-68652440D02*
X142990440Y-68595240D01*
X142933240Y-73568600D02*
X143342320Y-73568600D01*
X143342320Y-73568600D02*
X144089120Y-72821800D01*
X144089120Y-72821800D02*
X144089120Y-71937880D01*
X144089120Y-71937880D02*
X143819840Y-71668600D01*
X143819840Y-71668600D02*
X142933240Y-71668600D01*
D40*
X142265400Y-65793280D02*
X144304680Y-65793280D01*
X146242320Y-66260980D02*
X147528320Y-64974980D01*
X144772380Y-66260980D02*
X146242320Y-66260980D01*
X144304680Y-65793280D02*
X144772380Y-66260980D01*
X142265400Y-65793280D02*
X142265400Y-67870200D01*
X142265400Y-67870200D02*
X142990440Y-68595240D01*
X138150600Y-66135120D02*
X141923560Y-66135120D01*
X141923560Y-66135120D02*
X142265400Y-65793280D01*
X136652000Y-64585720D02*
X136652000Y-64636520D01*
X136652000Y-64636520D02*
X138150600Y-66135120D01*
X136652000Y-62707920D02*
X136652000Y-64585720D01*
X136652000Y-64585720D02*
X135133080Y-66104640D01*
X136652000Y-56407920D02*
X136652000Y-62707920D01*
X144840960Y-61096020D02*
X147400220Y-61096020D01*
X147400220Y-61096020D02*
X148031540Y-60464700D01*
X146578320Y-62974980D02*
X146578320Y-62833380D01*
X146578320Y-62833380D02*
X144840960Y-61096020D01*
D39*
X140471480Y-79603120D02*
X141325120Y-79603120D01*
X141916660Y-80194660D02*
X141916660Y-81600040D01*
X141325120Y-79603120D02*
X141916660Y-80194660D01*
X142209520Y-81307180D02*
X141916660Y-81600040D01*
X142206220Y-81889600D02*
X143080740Y-81889600D01*
X143080740Y-81889600D02*
X143650140Y-82459000D01*
X143650140Y-82459000D02*
X144847200Y-82459000D01*
X140471480Y-77003120D02*
X140471480Y-77255960D01*
X140471480Y-77255960D02*
X141869160Y-78653640D01*
X141869160Y-78653640D02*
X142487140Y-78653640D01*
X142487140Y-78653640D02*
X143050260Y-79216760D01*
X143050260Y-79216760D02*
X143050260Y-80162060D01*
X143050260Y-80162060D02*
X144847200Y-81959000D01*
X144314220Y-81959000D02*
X144847200Y-81959000D01*
X148797200Y-80509000D02*
X148797200Y-78499780D01*
X151936320Y-74293600D02*
X151936320Y-72679560D01*
X151950420Y-74307700D02*
X151936320Y-74293600D01*
X148797200Y-78499780D02*
X151455120Y-75841860D01*
X132359400Y-78710580D02*
X132359400Y-76953240D01*
X135971280Y-83923000D02*
X135959980Y-83923000D01*
X135959980Y-83923000D02*
X132359400Y-80322420D01*
X132359400Y-80322420D02*
X132359400Y-78710580D01*
X144847200Y-84459000D02*
X137781220Y-84459000D01*
X137245220Y-83923000D02*
X135971280Y-83923000D01*
X137781220Y-84459000D02*
X137245220Y-83923000D01*
X143595360Y-102793800D02*
X146372920Y-102793800D01*
X146372920Y-102793800D02*
X146378000Y-102798880D01*
X140141960Y-88239600D02*
X132041900Y-88239600D01*
X138808460Y-102793800D02*
X136626600Y-100611940D01*
X136626600Y-100611940D02*
X136626600Y-97873820D01*
X140141960Y-88239600D02*
X141457680Y-89555320D01*
X141457680Y-89555320D02*
X142750540Y-89555320D01*
X146598640Y-82245200D02*
X146297200Y-81943760D01*
X146297200Y-80509000D02*
X146297200Y-81943760D01*
X138808460Y-102793800D02*
X140295360Y-102793800D01*
X132041900Y-88239600D02*
X132029200Y-88252300D01*
D40*
X143625840Y-99303840D02*
X146378000Y-99303840D01*
X146378000Y-99303840D02*
X146383080Y-99308920D01*
D39*
X150797200Y-80509000D02*
X150797200Y-81592480D01*
X138521440Y-99303840D02*
X140325840Y-99303840D01*
X138440160Y-99385120D02*
X138521440Y-99303840D01*
X147302220Y-84924900D02*
X147302220Y-86959440D01*
X147566380Y-84660740D02*
X147302220Y-84924900D01*
X148666200Y-84660740D02*
X147566380Y-84660740D01*
X149595840Y-83731100D02*
X148666200Y-84660740D01*
X150921720Y-83731100D02*
X149595840Y-83731100D01*
X151124920Y-83527900D02*
X150921720Y-83731100D01*
X150797200Y-81592480D02*
X149997160Y-82392520D01*
X143613140Y-106311700D02*
X146380540Y-106311700D01*
X150314420Y-54460520D02*
X150314420Y-55016780D01*
X150314420Y-55016780D02*
X150322040Y-55024400D01*
X150322040Y-55024400D02*
X150314420Y-54460520D01*
X156296540Y-59446120D02*
X157995580Y-59446120D01*
X155142122Y-83459000D02*
X153247200Y-83459000D01*
X156406722Y-82194400D02*
X155142122Y-83459000D01*
X159166560Y-82194400D02*
X156406722Y-82194400D01*
X160553400Y-80807560D02*
X159166560Y-82194400D01*
X157995580Y-59446120D02*
X157998160Y-59448700D01*
D40*
X150322040Y-55024400D02*
X150322040Y-56362360D01*
X156296540Y-58110300D02*
X156296540Y-59446120D01*
X155590240Y-57404000D02*
X156296540Y-58110300D01*
X151363680Y-57404000D02*
X155590240Y-57404000D01*
X150322040Y-56362360D02*
X151363680Y-57404000D01*
D39*
X149664420Y-54460520D02*
X149664420Y-55016780D01*
X149664420Y-55016780D02*
X149672040Y-55024400D01*
X149672040Y-55024400D02*
X149664420Y-54460520D01*
X154096540Y-59446120D02*
X154096540Y-58735140D01*
X154993280Y-82959000D02*
X153247200Y-82959000D01*
X156263340Y-81688940D02*
X154993280Y-82959000D01*
X158783020Y-81688940D02*
X156263340Y-81688940D01*
X159669480Y-80802480D02*
X158783020Y-81688940D01*
X154096540Y-58735140D02*
X154680920Y-58150760D01*
D40*
X149672040Y-55024400D02*
X149672040Y-57210960D01*
X152699680Y-59446120D02*
X154096540Y-59446120D01*
X151455120Y-58201560D02*
X152699680Y-59446120D01*
X150662640Y-58201560D02*
X151455120Y-58201560D01*
X149672040Y-57210960D02*
X150662640Y-58201560D01*
D39*
X150964420Y-54460520D02*
X150964420Y-55016780D01*
X150964420Y-55016780D02*
X150972040Y-55024400D01*
X150972040Y-55024400D02*
X150964420Y-54460520D01*
D40*
X150972040Y-55024400D02*
X150972040Y-56184320D01*
X149578060Y-60464700D02*
X150931540Y-60464700D01*
X149504400Y-60538360D02*
X149578060Y-60464700D01*
X151455120Y-56667400D02*
X152847040Y-56667400D01*
X150972040Y-56184320D02*
X151455120Y-56667400D01*
D39*
X150931540Y-60464700D02*
X151696420Y-60464700D01*
X152577840Y-61346120D02*
X154096540Y-61346120D01*
X151696420Y-60464700D02*
X152577840Y-61346120D01*
X144847200Y-82959000D02*
X139174280Y-82959000D01*
X138480800Y-75351640D02*
X138508740Y-75323700D01*
X138480800Y-82265520D02*
X138480800Y-75351640D01*
X139174280Y-82959000D02*
X138480800Y-82265520D01*
X144847200Y-83459000D02*
X138886880Y-83459000D01*
X137764520Y-82336640D02*
X137764520Y-76032360D01*
X138886880Y-83459000D02*
X137764520Y-82336640D01*
X144847200Y-84959000D02*
X134743000Y-84959000D01*
X134743000Y-84959000D02*
X134157720Y-84373720D01*
X144847200Y-85459000D02*
X134211760Y-85459000D01*
X134211760Y-85459000D02*
X133106160Y-84353400D01*
X144847200Y-85959000D02*
X133728780Y-85959000D01*
X133728780Y-85959000D02*
X133027420Y-85257640D01*
X144847200Y-86459000D02*
X133146740Y-86459000D01*
X129919080Y-81400000D02*
X128680000Y-81400000D01*
X130589020Y-82069940D02*
X129919080Y-81400000D01*
X130589020Y-83901280D02*
X130589020Y-82069940D01*
X133146740Y-86459000D02*
X130589020Y-83901280D01*
X144847200Y-86959000D02*
X132828860Y-86959000D01*
X129413440Y-84673440D02*
X128680000Y-83940000D01*
X130543300Y-84673440D02*
X129413440Y-84673440D01*
X132828860Y-86959000D02*
X130543300Y-84673440D01*
X144847200Y-87459000D02*
X131980120Y-87459000D01*
X131001120Y-86480000D02*
X128680000Y-86480000D01*
X131980120Y-87459000D02*
X131001120Y-86480000D01*
X146297200Y-88909000D02*
X146297200Y-90181880D01*
X139875880Y-89020000D02*
X128680000Y-89020000D01*
X141076680Y-90220800D02*
X139875880Y-89020000D01*
X146258280Y-90220800D02*
X141076680Y-90220800D01*
X146297200Y-90181880D02*
X146258280Y-90220800D01*
X128680000Y-91560000D02*
X128825640Y-91560000D01*
X128825640Y-91560000D02*
X130891280Y-89494360D01*
X130891280Y-89494360D02*
X139639040Y-89494360D01*
X139639040Y-89494360D02*
X140860780Y-90716100D01*
X140860780Y-90716100D02*
X146410680Y-90716100D01*
X146410680Y-90716100D02*
X146806920Y-90319860D01*
X146806920Y-90319860D02*
X146806920Y-88918720D01*
X146806920Y-88918720D02*
X146797200Y-88909000D01*
X147297200Y-88909000D02*
X147297200Y-90500140D01*
X130027060Y-94100000D02*
X128680000Y-94100000D01*
X132801360Y-91325700D02*
X130027060Y-94100000D01*
X146471640Y-91325700D02*
X132801360Y-91325700D01*
X147297200Y-90500140D02*
X146471640Y-91325700D01*
X147797200Y-88909000D02*
X147797200Y-90736740D01*
X133295800Y-92024200D02*
X128680000Y-96640000D01*
X146509740Y-92024200D02*
X133295800Y-92024200D01*
X147797200Y-90736740D02*
X146509740Y-92024200D01*
X149297200Y-88909000D02*
X149297200Y-91156600D01*
X131802280Y-96057720D02*
X128680000Y-99180000D01*
X149489160Y-96057720D02*
X131802280Y-96057720D01*
X150746460Y-94800420D02*
X149489160Y-96057720D01*
X150746460Y-92605860D02*
X150746460Y-94800420D01*
X149297200Y-91156600D02*
X150746460Y-92605860D01*
X149797200Y-88909000D02*
X149797200Y-90988580D01*
X133869840Y-96530160D02*
X128680000Y-101720000D01*
X149733000Y-96530160D02*
X133869840Y-96530160D01*
X151223980Y-95039180D02*
X149733000Y-96530160D01*
X151223980Y-92415360D02*
X151223980Y-95039180D01*
X149797200Y-90988580D02*
X151223980Y-92415360D01*
X150297200Y-88909000D02*
X150297200Y-90769760D01*
X135955180Y-96984820D02*
X128680000Y-104260000D01*
X150042880Y-96984820D02*
X135955180Y-96984820D01*
X151734520Y-95293180D02*
X150042880Y-96984820D01*
X151734520Y-92207080D02*
X151734520Y-95293180D01*
X150297200Y-90769760D02*
X151734520Y-92207080D01*
X146797200Y-80509000D02*
X146797200Y-76235120D01*
X168021000Y-69999000D02*
X169320000Y-68700000D01*
X168021000Y-71201280D02*
X168021000Y-69999000D01*
X165773100Y-73449180D02*
X168021000Y-71201280D01*
X158602680Y-73449180D02*
X165773100Y-73449180D01*
X156979620Y-75072240D02*
X158602680Y-73449180D01*
X147960080Y-75072240D02*
X156979620Y-75072240D01*
X146797200Y-76235120D02*
X147960080Y-75072240D01*
X149797200Y-80509000D02*
X149797200Y-78543720D01*
X168241120Y-72318880D02*
X169320000Y-71240000D01*
X167579040Y-72318880D02*
X168241120Y-72318880D01*
X165933120Y-73964800D02*
X167579040Y-72318880D01*
X158750000Y-73964800D02*
X165933120Y-73964800D01*
X157154880Y-75559920D02*
X158750000Y-73964800D01*
X152781000Y-75559920D02*
X157154880Y-75559920D01*
X149797200Y-78543720D02*
X152781000Y-75559920D01*
X151297200Y-80509000D02*
X151297200Y-79322100D01*
X168292160Y-73780000D02*
X169320000Y-73780000D01*
X167937180Y-74134980D02*
X168292160Y-73780000D01*
X167937180Y-75455780D02*
X167937180Y-74134980D01*
X165646100Y-77746860D02*
X167937180Y-75455780D01*
X152872440Y-77746860D02*
X165646100Y-77746860D01*
X151297200Y-79322100D02*
X152872440Y-77746860D01*
X151797200Y-80509000D02*
X151797200Y-79500280D01*
X167807640Y-76291440D02*
X169291440Y-76291440D01*
X165887400Y-78211680D02*
X167807640Y-76291440D01*
X153085800Y-78211680D02*
X165887400Y-78211680D01*
X151797200Y-79500280D02*
X153085800Y-78211680D01*
X169291440Y-76291440D02*
X169320000Y-76320000D01*
X153247200Y-83959000D02*
X155278520Y-83959000D01*
X165251540Y-82928460D02*
X169320000Y-78860000D01*
X156309060Y-82928460D02*
X165251540Y-82928460D01*
X155278520Y-83959000D02*
X156309060Y-82928460D01*
X153247200Y-84459000D02*
X155479560Y-84459000D01*
X167288620Y-83431380D02*
X169320000Y-81400000D01*
X156507180Y-83431380D02*
X167288620Y-83431380D01*
X155479560Y-84459000D02*
X156507180Y-83431380D01*
X153247200Y-84959000D02*
X155695840Y-84959000D01*
X156714840Y-83940000D02*
X169320000Y-83940000D01*
X155695840Y-84959000D02*
X156714840Y-83940000D01*
X153247200Y-85459000D02*
X155700160Y-85459000D01*
X156721160Y-86480000D02*
X169320000Y-86480000D01*
X155700160Y-85459000D02*
X156721160Y-86480000D01*
X153247200Y-85959000D02*
X155445780Y-85959000D01*
X158506780Y-89020000D02*
X169320000Y-89020000D01*
X155445780Y-85959000D02*
X158506780Y-89020000D01*
X153247200Y-86459000D02*
X155209180Y-86459000D01*
X160310180Y-91560000D02*
X169320000Y-91560000D01*
X155209180Y-86459000D02*
X160310180Y-91560000D01*
X153247200Y-86959000D02*
X154985280Y-86959000D01*
X162126280Y-94100000D02*
X169320000Y-94100000D01*
X154985280Y-86959000D02*
X162126280Y-94100000D01*
X153217200Y-87459000D02*
X154743600Y-87459000D01*
X163924600Y-96640000D02*
X169320000Y-96640000D01*
X154743600Y-87459000D02*
X163924600Y-96640000D01*
X151797200Y-88909000D02*
X151797200Y-90105680D01*
X160871520Y-99180000D02*
X169320000Y-99180000D01*
X151797200Y-90105680D02*
X160871520Y-99180000D01*
X151297200Y-88909000D02*
X151297200Y-90314340D01*
X162702860Y-101720000D02*
X169320000Y-101720000D01*
X151297200Y-90314340D02*
X162702860Y-101720000D01*
X150797200Y-88909000D02*
X150797200Y-90538240D01*
X164518960Y-104260000D02*
X169320000Y-104260000D01*
X150797200Y-90538240D02*
X164518960Y-104260000D01*
X147297200Y-80509000D02*
X147297200Y-83154460D01*
X147297200Y-83154460D02*
X147294600Y-83157060D01*
X147797200Y-82707160D02*
X148224240Y-83134200D01*
X147797200Y-82707160D02*
X147797200Y-80509000D01*
X150515320Y-103499920D02*
X153273760Y-103499920D01*
X150505160Y-103510080D02*
X150515320Y-103499920D01*
X160347580Y-60243220D02*
X160347580Y-59288760D01*
X154124660Y-76075540D02*
X153276300Y-76923900D01*
X157337760Y-76075540D02*
X154124660Y-76075540D01*
X158925260Y-74488040D02*
X157337760Y-76075540D01*
X166187120Y-74488040D02*
X158925260Y-74488040D01*
X166603680Y-74904600D02*
X166187120Y-74488040D01*
X165963600Y-58869580D02*
X165963600Y-61607700D01*
X164957760Y-57863740D02*
X165963600Y-58869580D01*
X161772600Y-57863740D02*
X164957760Y-57863740D01*
X160347580Y-59288760D02*
X161772600Y-57863740D01*
D40*
X160347580Y-52243220D02*
X160347580Y-60243220D01*
D39*
X139638700Y-72618600D02*
X139638700Y-74472460D01*
X148087080Y-73990200D02*
X148087080Y-73075800D01*
X147320000Y-74757280D02*
X148087080Y-73990200D01*
X139923520Y-74757280D02*
X147320000Y-74757280D01*
X139638700Y-74472460D02*
X139923520Y-74757280D01*
X153276300Y-76923900D02*
X152876250Y-76523850D01*
X150297200Y-78729520D02*
X152502870Y-76523850D01*
X150297200Y-80509000D02*
X150297200Y-78729520D01*
X152876250Y-76523850D02*
X152502870Y-76523850D01*
X148364420Y-54460520D02*
X148364420Y-55016780D01*
X148364420Y-55016780D02*
X148372040Y-55024400D01*
X148372040Y-55024400D02*
X148364420Y-54460520D01*
D40*
X148372040Y-55024400D02*
X148372040Y-56407840D01*
X148372040Y-56407840D02*
X148351240Y-56428640D01*
D39*
X144847200Y-83959000D02*
X138411520Y-83959000D01*
X136098280Y-82463640D02*
X136093200Y-82468720D01*
X136916160Y-82463640D02*
X136098280Y-82463640D01*
X138411520Y-83959000D02*
X136916160Y-82463640D01*
D41*
X135971280Y-80923000D02*
X135971280Y-82346800D01*
X135971280Y-82346800D02*
X136093200Y-82468720D01*
X135471480Y-78303120D02*
X135471480Y-80423200D01*
X135471480Y-80423200D02*
X135971280Y-80923000D01*
D40*
X134127240Y-90479880D02*
X134127240Y-90464640D01*
D39*
X139971780Y-69745860D02*
X139964160Y-69745860D01*
X164147580Y-60243220D02*
X162381700Y-60243220D01*
X164147580Y-54373860D02*
X164147580Y-52243220D01*
X164180520Y-54406800D02*
X164147580Y-54373860D01*
X162381700Y-60243220D02*
X162351720Y-60213240D01*
X143050260Y-77216760D02*
X143000220Y-77216760D01*
X143000220Y-77216760D02*
X141640560Y-75857100D01*
X141312900Y-72618600D02*
X142933240Y-72618600D01*
X141274800Y-72656700D02*
X141312900Y-72618600D01*
D40*
X139857480Y-64305180D02*
X141269380Y-62893280D01*
X141269380Y-62893280D02*
X142265400Y-62893280D01*
X138150600Y-69135120D02*
X140856840Y-69135120D01*
X144698720Y-68595240D02*
X145990440Y-68595240D01*
X144465040Y-68828920D02*
X144698720Y-68595240D01*
X140856840Y-69135120D02*
X141142720Y-68849240D01*
D39*
X135133080Y-69104640D02*
X138120120Y-69104640D01*
X138120120Y-69104640D02*
X138150600Y-69135120D01*
X142933240Y-72618600D02*
X142214600Y-72618600D01*
X139383640Y-70368160D02*
X138150600Y-69135120D01*
X139964160Y-70368160D02*
X139383640Y-70368160D01*
X142214600Y-72618600D02*
X139964160Y-70368160D01*
X143050260Y-77216760D02*
X144806160Y-77216760D01*
X144806160Y-77216760D02*
X144978120Y-77388720D01*
X144978120Y-77388720D02*
X144978120Y-80205580D01*
X149297200Y-83256120D02*
X150261320Y-83256120D01*
X151058440Y-82459000D02*
X153247200Y-82459000D01*
X150261320Y-83256120D02*
X151058440Y-82459000D01*
X144847200Y-83959000D02*
X148608480Y-83959000D01*
X149297200Y-83270280D02*
X149297200Y-83256120D01*
X149297200Y-83256120D02*
X149297200Y-80509000D01*
X148608480Y-83959000D02*
X149297200Y-83270280D01*
X149419440Y-93863160D02*
X147924520Y-93863160D01*
X137929620Y-106311700D02*
X140313140Y-106311700D01*
X137891520Y-106273600D02*
X137929620Y-106311700D01*
X134180580Y-93009720D02*
X132207000Y-94983300D01*
X145023840Y-93009720D02*
X134180580Y-93009720D01*
X145061940Y-92971620D02*
X145023840Y-93009720D01*
X157083760Y-102229920D02*
X155813760Y-102229920D01*
X140313140Y-106311700D02*
X140313140Y-107623340D01*
X140313140Y-107623340D02*
X141084300Y-108394500D01*
X141084300Y-108394500D02*
X157868620Y-108394500D01*
X157868620Y-108394500D02*
X160718500Y-105544620D01*
X160718500Y-105544620D02*
X160718500Y-101602540D01*
X160718500Y-101602540D02*
X159578040Y-100462080D01*
X159578040Y-100462080D02*
X157535880Y-100462080D01*
X157535880Y-100462080D02*
X157083760Y-100914200D01*
X157083760Y-100914200D02*
X157083760Y-102229920D01*
X139916660Y-81600040D02*
X140881100Y-81600040D01*
X140881100Y-81600040D02*
X140914120Y-81633060D01*
X153247200Y-82459000D02*
X154812560Y-82459000D01*
X154812560Y-82459000D02*
X156057600Y-81213960D01*
X156057600Y-81213960D02*
X157756860Y-81213960D01*
X157756860Y-81213960D02*
X158197680Y-80773140D01*
X158197680Y-80773140D02*
X158197680Y-79720440D01*
X149419440Y-93863160D02*
X149419440Y-92360880D01*
X148797200Y-91738640D02*
X148797200Y-88909000D01*
X149419440Y-92360880D02*
X148797200Y-91738640D01*
D42*
G36*
X163981559Y-104797401D02*
X164228121Y-104962148D01*
X164518960Y-105020000D01*
X168047046Y-105020000D01*
X168240853Y-105310054D01*
X168722622Y-105631961D01*
X169290907Y-105745000D01*
X169349093Y-105745000D01*
X169917378Y-105631961D01*
X170290000Y-105382984D01*
X170290000Y-109290000D01*
X127710000Y-109290000D01*
X127710000Y-106597450D01*
X138928140Y-106597450D01*
X138928140Y-107188010D01*
X139024813Y-107421399D01*
X139203442Y-107600027D01*
X139436831Y-107696700D01*
X140027390Y-107696700D01*
X140186140Y-107537950D01*
X140186140Y-106438700D01*
X140440140Y-106438700D01*
X140440140Y-107537950D01*
X140598890Y-107696700D01*
X141189449Y-107696700D01*
X141422838Y-107600027D01*
X141601467Y-107421399D01*
X141698140Y-107188010D01*
X141698140Y-106597450D01*
X141539390Y-106438700D01*
X140440140Y-106438700D01*
X140186140Y-106438700D01*
X139086890Y-106438700D01*
X138928140Y-106597450D01*
X127710000Y-106597450D01*
X127710000Y-105382984D01*
X128082622Y-105631961D01*
X128650907Y-105745000D01*
X128709093Y-105745000D01*
X129277378Y-105631961D01*
X129571567Y-105435390D01*
X138928140Y-105435390D01*
X138928140Y-106025950D01*
X139086890Y-106184700D01*
X140186140Y-106184700D01*
X140186140Y-105085450D01*
X140440140Y-105085450D01*
X140440140Y-106184700D01*
X141539390Y-106184700D01*
X141698140Y-106025950D01*
X141698140Y-105435390D01*
X141601467Y-105202001D01*
X141422838Y-105023373D01*
X141189449Y-104926700D01*
X140598890Y-104926700D01*
X140440140Y-105085450D01*
X140186140Y-105085450D01*
X140027390Y-104926700D01*
X139436831Y-104926700D01*
X139203442Y-105023373D01*
X139024813Y-105202001D01*
X138928140Y-105435390D01*
X129571567Y-105435390D01*
X129759147Y-105310054D01*
X130081054Y-104828285D01*
X130194093Y-104260000D01*
X130121210Y-103893592D01*
X135768737Y-98246065D01*
X135833483Y-98402763D01*
X135866600Y-98435938D01*
X135866600Y-100611940D01*
X135924452Y-100902779D01*
X136089199Y-101149341D01*
X138271059Y-103331201D01*
X138517621Y-103495948D01*
X138808460Y-103553800D01*
X138899802Y-103553800D01*
X138942198Y-103779117D01*
X139081270Y-103995241D01*
X139293470Y-104140231D01*
X139545360Y-104191240D01*
X141045360Y-104191240D01*
X141280677Y-104146962D01*
X141496801Y-104007890D01*
X141641791Y-103795690D01*
X141692800Y-103543800D01*
X141692800Y-102043800D01*
X141648522Y-101808483D01*
X141509450Y-101592359D01*
X141297250Y-101447369D01*
X141045360Y-101396360D01*
X139545360Y-101396360D01*
X139310043Y-101440638D01*
X139093919Y-101579710D01*
X138948929Y-101791910D01*
X138937552Y-101848090D01*
X137386600Y-100297138D01*
X137386600Y-99570287D01*
X137504998Y-99570287D01*
X137647043Y-99914063D01*
X137909833Y-100177312D01*
X138253361Y-100319958D01*
X138625327Y-100320282D01*
X138953055Y-100184868D01*
X138972678Y-100289157D01*
X139111750Y-100505281D01*
X139323950Y-100650271D01*
X139575840Y-100701280D01*
X141075840Y-100701280D01*
X141311157Y-100657002D01*
X141527281Y-100517930D01*
X141672271Y-100305730D01*
X141723280Y-100053840D01*
X141723280Y-98553840D01*
X141679002Y-98318523D01*
X141539930Y-98102399D01*
X141327730Y-97957409D01*
X141075840Y-97906400D01*
X139575840Y-97906400D01*
X139340523Y-97950678D01*
X139124399Y-98089750D01*
X138979409Y-98301950D01*
X138930425Y-98543840D01*
X138852271Y-98543840D01*
X138626959Y-98450282D01*
X138254993Y-98449958D01*
X137911217Y-98592003D01*
X137647968Y-98854793D01*
X137505322Y-99198321D01*
X137504998Y-99570287D01*
X137386600Y-99570287D01*
X137386600Y-98436283D01*
X137418792Y-98404147D01*
X137561438Y-98060619D01*
X137561713Y-97744820D01*
X145379155Y-97744820D01*
X145336649Y-97807030D01*
X145285640Y-98058920D01*
X145285640Y-98493840D01*
X145011990Y-98493840D01*
X144979002Y-98318523D01*
X144839930Y-98102399D01*
X144627730Y-97957409D01*
X144375840Y-97906400D01*
X142875840Y-97906400D01*
X142640523Y-97950678D01*
X142424399Y-98089750D01*
X142279409Y-98301950D01*
X142228400Y-98553840D01*
X142228400Y-100053840D01*
X142272678Y-100289157D01*
X142411750Y-100505281D01*
X142623950Y-100650271D01*
X142875840Y-100701280D01*
X144375840Y-100701280D01*
X144611157Y-100657002D01*
X144827281Y-100517930D01*
X144972271Y-100305730D01*
X145011130Y-100113840D01*
X145285640Y-100113840D01*
X145285640Y-100558920D01*
X145329918Y-100794237D01*
X145468990Y-101010361D01*
X145528760Y-101051200D01*
X145476559Y-101084790D01*
X145331569Y-101296990D01*
X145280560Y-101548880D01*
X145280560Y-102033800D01*
X144990918Y-102033800D01*
X144948522Y-101808483D01*
X144809450Y-101592359D01*
X144597250Y-101447369D01*
X144345360Y-101396360D01*
X142845360Y-101396360D01*
X142610043Y-101440638D01*
X142393919Y-101579710D01*
X142248929Y-101791910D01*
X142197920Y-102043800D01*
X142197920Y-103543800D01*
X142242198Y-103779117D01*
X142381270Y-103995241D01*
X142593470Y-104140231D01*
X142845360Y-104191240D01*
X144345360Y-104191240D01*
X144580677Y-104146962D01*
X144796801Y-104007890D01*
X144941791Y-103795690D01*
X144990775Y-103553800D01*
X145280560Y-103553800D01*
X145280560Y-104048880D01*
X145324838Y-104284197D01*
X145463910Y-104500321D01*
X145544605Y-104555458D01*
X145479099Y-104597610D01*
X145334109Y-104809810D01*
X145283100Y-105061700D01*
X145283100Y-105551700D01*
X145008698Y-105551700D01*
X144966302Y-105326383D01*
X144827230Y-105110259D01*
X144615030Y-104965269D01*
X144363140Y-104914260D01*
X142863140Y-104914260D01*
X142627823Y-104958538D01*
X142411699Y-105097610D01*
X142266709Y-105309810D01*
X142215700Y-105561700D01*
X142215700Y-107061700D01*
X142259978Y-107297017D01*
X142399050Y-107513141D01*
X142611250Y-107658131D01*
X142863140Y-107709140D01*
X144363140Y-107709140D01*
X144598457Y-107664862D01*
X144814581Y-107525790D01*
X144959571Y-107313590D01*
X145008555Y-107071700D01*
X145283100Y-107071700D01*
X145283100Y-107561700D01*
X145327378Y-107797017D01*
X145466450Y-108013141D01*
X145678650Y-108158131D01*
X145930540Y-108209140D01*
X146830540Y-108209140D01*
X147065857Y-108164862D01*
X147281981Y-108025790D01*
X147426971Y-107813590D01*
X147477980Y-107561700D01*
X147477980Y-105061700D01*
X147433702Y-104826383D01*
X147294630Y-104610259D01*
X147213935Y-104555122D01*
X147279441Y-104512970D01*
X147424431Y-104300770D01*
X147475440Y-104048880D01*
X147475440Y-101548880D01*
X147431162Y-101313563D01*
X147292090Y-101097439D01*
X147232320Y-101056600D01*
X147284521Y-101023010D01*
X147429511Y-100810810D01*
X147480520Y-100558920D01*
X147480520Y-100170709D01*
X147656441Y-100243758D01*
X148028407Y-100244082D01*
X148185640Y-100179115D01*
X148185640Y-100558920D01*
X148229918Y-100794237D01*
X148368990Y-101010361D01*
X148428760Y-101051200D01*
X148376559Y-101084790D01*
X148231569Y-101296990D01*
X148180560Y-101548880D01*
X148180560Y-104048880D01*
X148224838Y-104284197D01*
X148363910Y-104500321D01*
X148444605Y-104555458D01*
X148379099Y-104597610D01*
X148234109Y-104809810D01*
X148183100Y-105061700D01*
X148183100Y-107561700D01*
X148227378Y-107797017D01*
X148366450Y-108013141D01*
X148578650Y-108158131D01*
X148830540Y-108209140D01*
X149730540Y-108209140D01*
X149965857Y-108164862D01*
X150181981Y-108025790D01*
X150326971Y-107813590D01*
X150377980Y-107561700D01*
X150377980Y-107071700D01*
X159169100Y-107071700D01*
X159459939Y-107013848D01*
X159706501Y-106849101D01*
X160719961Y-105835641D01*
X160884708Y-105589079D01*
X160942560Y-105298240D01*
X160942560Y-102494080D01*
X160884708Y-102203241D01*
X160719961Y-101956679D01*
X160455801Y-101692519D01*
X160209239Y-101527772D01*
X159918400Y-101469920D01*
X159441039Y-101469920D01*
X159317850Y-101278479D01*
X159105650Y-101133489D01*
X158853760Y-101082480D01*
X157853760Y-101082480D01*
X157618443Y-101126758D01*
X157518728Y-101190923D01*
X157385634Y-101135801D01*
X157210760Y-101261966D01*
X157210760Y-101707995D01*
X157206320Y-101729920D01*
X157206320Y-102367063D01*
X157083760Y-102342684D01*
X156956760Y-102367946D01*
X156956760Y-102356920D01*
X155940760Y-102356920D01*
X155940760Y-102367946D01*
X155813760Y-102342684D01*
X155686760Y-102367946D01*
X155686760Y-102356920D01*
X155666760Y-102356920D01*
X155666760Y-102312484D01*
X155678760Y-102252156D01*
X155678760Y-102207684D01*
X155666760Y-102147356D01*
X155666760Y-102102920D01*
X155686760Y-102102920D01*
X155686760Y-101261966D01*
X155940760Y-101261966D01*
X155940760Y-102102920D01*
X156956760Y-102102920D01*
X156956760Y-101261966D01*
X156781886Y-101135801D01*
X156523551Y-101242793D01*
X156448760Y-101307409D01*
X156373969Y-101242793D01*
X156115634Y-101135801D01*
X155940760Y-101261966D01*
X155686760Y-101261966D01*
X155511886Y-101135801D01*
X155253551Y-101242793D01*
X155188064Y-101299371D01*
X154978106Y-101159081D01*
X154543760Y-101072684D01*
X154109414Y-101159081D01*
X153908760Y-101293154D01*
X153708106Y-101159081D01*
X153273760Y-101072684D01*
X152839414Y-101159081D01*
X152471194Y-101405118D01*
X152225157Y-101773338D01*
X152138760Y-102207684D01*
X152138760Y-102252156D01*
X152225157Y-102686502D01*
X152260850Y-102739920D01*
X151057481Y-102739920D01*
X151035487Y-102717888D01*
X150691959Y-102575242D01*
X150375440Y-102574966D01*
X150375440Y-101548880D01*
X150331162Y-101313563D01*
X150192090Y-101097439D01*
X150132320Y-101056600D01*
X150184521Y-101023010D01*
X150329511Y-100810810D01*
X150380520Y-100558920D01*
X150380520Y-98058920D01*
X150336242Y-97823603D01*
X150258010Y-97702028D01*
X150333719Y-97686968D01*
X150580281Y-97522221D01*
X152271921Y-95830581D01*
X152436668Y-95584020D01*
X152494520Y-95293180D01*
X152494520Y-93310362D01*
X163981559Y-104797401D01*
X163981559Y-104797401D01*
G37*
X163981559Y-104797401D02*
X164228121Y-104962148D01*
X164518960Y-105020000D01*
X168047046Y-105020000D01*
X168240853Y-105310054D01*
X168722622Y-105631961D01*
X169290907Y-105745000D01*
X169349093Y-105745000D01*
X169917378Y-105631961D01*
X170290000Y-105382984D01*
X170290000Y-109290000D01*
X127710000Y-109290000D01*
X127710000Y-106597450D01*
X138928140Y-106597450D01*
X138928140Y-107188010D01*
X139024813Y-107421399D01*
X139203442Y-107600027D01*
X139436831Y-107696700D01*
X140027390Y-107696700D01*
X140186140Y-107537950D01*
X140186140Y-106438700D01*
X140440140Y-106438700D01*
X140440140Y-107537950D01*
X140598890Y-107696700D01*
X141189449Y-107696700D01*
X141422838Y-107600027D01*
X141601467Y-107421399D01*
X141698140Y-107188010D01*
X141698140Y-106597450D01*
X141539390Y-106438700D01*
X140440140Y-106438700D01*
X140186140Y-106438700D01*
X139086890Y-106438700D01*
X138928140Y-106597450D01*
X127710000Y-106597450D01*
X127710000Y-105382984D01*
X128082622Y-105631961D01*
X128650907Y-105745000D01*
X128709093Y-105745000D01*
X129277378Y-105631961D01*
X129571567Y-105435390D01*
X138928140Y-105435390D01*
X138928140Y-106025950D01*
X139086890Y-106184700D01*
X140186140Y-106184700D01*
X140186140Y-105085450D01*
X140440140Y-105085450D01*
X140440140Y-106184700D01*
X141539390Y-106184700D01*
X141698140Y-106025950D01*
X141698140Y-105435390D01*
X141601467Y-105202001D01*
X141422838Y-105023373D01*
X141189449Y-104926700D01*
X140598890Y-104926700D01*
X140440140Y-105085450D01*
X140186140Y-105085450D01*
X140027390Y-104926700D01*
X139436831Y-104926700D01*
X139203442Y-105023373D01*
X139024813Y-105202001D01*
X138928140Y-105435390D01*
X129571567Y-105435390D01*
X129759147Y-105310054D01*
X130081054Y-104828285D01*
X130194093Y-104260000D01*
X130121210Y-103893592D01*
X135768737Y-98246065D01*
X135833483Y-98402763D01*
X135866600Y-98435938D01*
X135866600Y-100611940D01*
X135924452Y-100902779D01*
X136089199Y-101149341D01*
X138271059Y-103331201D01*
X138517621Y-103495948D01*
X138808460Y-103553800D01*
X138899802Y-103553800D01*
X138942198Y-103779117D01*
X139081270Y-103995241D01*
X139293470Y-104140231D01*
X139545360Y-104191240D01*
X141045360Y-104191240D01*
X141280677Y-104146962D01*
X141496801Y-104007890D01*
X141641791Y-103795690D01*
X141692800Y-103543800D01*
X141692800Y-102043800D01*
X141648522Y-101808483D01*
X141509450Y-101592359D01*
X141297250Y-101447369D01*
X141045360Y-101396360D01*
X139545360Y-101396360D01*
X139310043Y-101440638D01*
X139093919Y-101579710D01*
X138948929Y-101791910D01*
X138937552Y-101848090D01*
X137386600Y-100297138D01*
X137386600Y-99570287D01*
X137504998Y-99570287D01*
X137647043Y-99914063D01*
X137909833Y-100177312D01*
X138253361Y-100319958D01*
X138625327Y-100320282D01*
X138953055Y-100184868D01*
X138972678Y-100289157D01*
X139111750Y-100505281D01*
X139323950Y-100650271D01*
X139575840Y-100701280D01*
X141075840Y-100701280D01*
X141311157Y-100657002D01*
X141527281Y-100517930D01*
X141672271Y-100305730D01*
X141723280Y-100053840D01*
X141723280Y-98553840D01*
X141679002Y-98318523D01*
X141539930Y-98102399D01*
X141327730Y-97957409D01*
X141075840Y-97906400D01*
X139575840Y-97906400D01*
X139340523Y-97950678D01*
X139124399Y-98089750D01*
X138979409Y-98301950D01*
X138930425Y-98543840D01*
X138852271Y-98543840D01*
X138626959Y-98450282D01*
X138254993Y-98449958D01*
X137911217Y-98592003D01*
X137647968Y-98854793D01*
X137505322Y-99198321D01*
X137504998Y-99570287D01*
X137386600Y-99570287D01*
X137386600Y-98436283D01*
X137418792Y-98404147D01*
X137561438Y-98060619D01*
X137561713Y-97744820D01*
X145379155Y-97744820D01*
X145336649Y-97807030D01*
X145285640Y-98058920D01*
X145285640Y-98493840D01*
X145011990Y-98493840D01*
X144979002Y-98318523D01*
X144839930Y-98102399D01*
X144627730Y-97957409D01*
X144375840Y-97906400D01*
X142875840Y-97906400D01*
X142640523Y-97950678D01*
X142424399Y-98089750D01*
X142279409Y-98301950D01*
X142228400Y-98553840D01*
X142228400Y-100053840D01*
X142272678Y-100289157D01*
X142411750Y-100505281D01*
X142623950Y-100650271D01*
X142875840Y-100701280D01*
X144375840Y-100701280D01*
X144611157Y-100657002D01*
X144827281Y-100517930D01*
X144972271Y-100305730D01*
X145011130Y-100113840D01*
X145285640Y-100113840D01*
X145285640Y-100558920D01*
X145329918Y-100794237D01*
X145468990Y-101010361D01*
X145528760Y-101051200D01*
X145476559Y-101084790D01*
X145331569Y-101296990D01*
X145280560Y-101548880D01*
X145280560Y-102033800D01*
X144990918Y-102033800D01*
X144948522Y-101808483D01*
X144809450Y-101592359D01*
X144597250Y-101447369D01*
X144345360Y-101396360D01*
X142845360Y-101396360D01*
X142610043Y-101440638D01*
X142393919Y-101579710D01*
X142248929Y-101791910D01*
X142197920Y-102043800D01*
X142197920Y-103543800D01*
X142242198Y-103779117D01*
X142381270Y-103995241D01*
X142593470Y-104140231D01*
X142845360Y-104191240D01*
X144345360Y-104191240D01*
X144580677Y-104146962D01*
X144796801Y-104007890D01*
X144941791Y-103795690D01*
X144990775Y-103553800D01*
X145280560Y-103553800D01*
X145280560Y-104048880D01*
X145324838Y-104284197D01*
X145463910Y-104500321D01*
X145544605Y-104555458D01*
X145479099Y-104597610D01*
X145334109Y-104809810D01*
X145283100Y-105061700D01*
X145283100Y-105551700D01*
X145008698Y-105551700D01*
X144966302Y-105326383D01*
X144827230Y-105110259D01*
X144615030Y-104965269D01*
X144363140Y-104914260D01*
X142863140Y-104914260D01*
X142627823Y-104958538D01*
X142411699Y-105097610D01*
X142266709Y-105309810D01*
X142215700Y-105561700D01*
X142215700Y-107061700D01*
X142259978Y-107297017D01*
X142399050Y-107513141D01*
X142611250Y-107658131D01*
X142863140Y-107709140D01*
X144363140Y-107709140D01*
X144598457Y-107664862D01*
X144814581Y-107525790D01*
X144959571Y-107313590D01*
X145008555Y-107071700D01*
X145283100Y-107071700D01*
X145283100Y-107561700D01*
X145327378Y-107797017D01*
X145466450Y-108013141D01*
X145678650Y-108158131D01*
X145930540Y-108209140D01*
X146830540Y-108209140D01*
X147065857Y-108164862D01*
X147281981Y-108025790D01*
X147426971Y-107813590D01*
X147477980Y-107561700D01*
X147477980Y-105061700D01*
X147433702Y-104826383D01*
X147294630Y-104610259D01*
X147213935Y-104555122D01*
X147279441Y-104512970D01*
X147424431Y-104300770D01*
X147475440Y-104048880D01*
X147475440Y-101548880D01*
X147431162Y-101313563D01*
X147292090Y-101097439D01*
X147232320Y-101056600D01*
X147284521Y-101023010D01*
X147429511Y-100810810D01*
X147480520Y-100558920D01*
X147480520Y-100170709D01*
X147656441Y-100243758D01*
X148028407Y-100244082D01*
X148185640Y-100179115D01*
X148185640Y-100558920D01*
X148229918Y-100794237D01*
X148368990Y-101010361D01*
X148428760Y-101051200D01*
X148376559Y-101084790D01*
X148231569Y-101296990D01*
X148180560Y-101548880D01*
X148180560Y-104048880D01*
X148224838Y-104284197D01*
X148363910Y-104500321D01*
X148444605Y-104555458D01*
X148379099Y-104597610D01*
X148234109Y-104809810D01*
X148183100Y-105061700D01*
X148183100Y-107561700D01*
X148227378Y-107797017D01*
X148366450Y-108013141D01*
X148578650Y-108158131D01*
X148830540Y-108209140D01*
X149730540Y-108209140D01*
X149965857Y-108164862D01*
X150181981Y-108025790D01*
X150326971Y-107813590D01*
X150377980Y-107561700D01*
X150377980Y-107071700D01*
X159169100Y-107071700D01*
X159459939Y-107013848D01*
X159706501Y-106849101D01*
X160719961Y-105835641D01*
X160884708Y-105589079D01*
X160942560Y-105298240D01*
X160942560Y-102494080D01*
X160884708Y-102203241D01*
X160719961Y-101956679D01*
X160455801Y-101692519D01*
X160209239Y-101527772D01*
X159918400Y-101469920D01*
X159441039Y-101469920D01*
X159317850Y-101278479D01*
X159105650Y-101133489D01*
X158853760Y-101082480D01*
X157853760Y-101082480D01*
X157618443Y-101126758D01*
X157518728Y-101190923D01*
X157385634Y-101135801D01*
X157210760Y-101261966D01*
X157210760Y-101707995D01*
X157206320Y-101729920D01*
X157206320Y-102367063D01*
X157083760Y-102342684D01*
X156956760Y-102367946D01*
X156956760Y-102356920D01*
X155940760Y-102356920D01*
X155940760Y-102367946D01*
X155813760Y-102342684D01*
X155686760Y-102367946D01*
X155686760Y-102356920D01*
X155666760Y-102356920D01*
X155666760Y-102312484D01*
X155678760Y-102252156D01*
X155678760Y-102207684D01*
X155666760Y-102147356D01*
X155666760Y-102102920D01*
X155686760Y-102102920D01*
X155686760Y-101261966D01*
X155940760Y-101261966D01*
X155940760Y-102102920D01*
X156956760Y-102102920D01*
X156956760Y-101261966D01*
X156781886Y-101135801D01*
X156523551Y-101242793D01*
X156448760Y-101307409D01*
X156373969Y-101242793D01*
X156115634Y-101135801D01*
X155940760Y-101261966D01*
X155686760Y-101261966D01*
X155511886Y-101135801D01*
X155253551Y-101242793D01*
X155188064Y-101299371D01*
X154978106Y-101159081D01*
X154543760Y-101072684D01*
X154109414Y-101159081D01*
X153908760Y-101293154D01*
X153708106Y-101159081D01*
X153273760Y-101072684D01*
X152839414Y-101159081D01*
X152471194Y-101405118D01*
X152225157Y-101773338D01*
X152138760Y-102207684D01*
X152138760Y-102252156D01*
X152225157Y-102686502D01*
X152260850Y-102739920D01*
X151057481Y-102739920D01*
X151035487Y-102717888D01*
X150691959Y-102575242D01*
X150375440Y-102574966D01*
X150375440Y-101548880D01*
X150331162Y-101313563D01*
X150192090Y-101097439D01*
X150132320Y-101056600D01*
X150184521Y-101023010D01*
X150329511Y-100810810D01*
X150380520Y-100558920D01*
X150380520Y-98058920D01*
X150336242Y-97823603D01*
X150258010Y-97702028D01*
X150333719Y-97686968D01*
X150580281Y-97522221D01*
X152271921Y-95830581D01*
X152436668Y-95584020D01*
X152494520Y-95293180D01*
X152494520Y-93310362D01*
X163981559Y-104797401D01*
G36*
X145323009Y-92811270D02*
X145272000Y-93063160D01*
X145272000Y-93103160D01*
X135116383Y-93103160D01*
X135061427Y-93048108D01*
X134717899Y-92905462D01*
X134345933Y-92905138D01*
X134002157Y-93047183D01*
X133738908Y-93309973D01*
X133596262Y-93653501D01*
X133595938Y-94025467D01*
X133737983Y-94369243D01*
X134000773Y-94632492D01*
X134344301Y-94775138D01*
X134716267Y-94775462D01*
X135060043Y-94633417D01*
X135070318Y-94623160D01*
X145272000Y-94623160D01*
X145272000Y-94663160D01*
X145316278Y-94898477D01*
X145455350Y-95114601D01*
X145667550Y-95259591D01*
X145855837Y-95297720D01*
X131802280Y-95297720D01*
X131511441Y-95355572D01*
X131264879Y-95520319D01*
X130185981Y-96599217D01*
X130121210Y-96273592D01*
X133610602Y-92784200D01*
X145341505Y-92784200D01*
X145323009Y-92811270D01*
X145323009Y-92811270D01*
G37*
X145323009Y-92811270D02*
X145272000Y-93063160D01*
X145272000Y-93103160D01*
X135116383Y-93103160D01*
X135061427Y-93048108D01*
X134717899Y-92905462D01*
X134345933Y-92905138D01*
X134002157Y-93047183D01*
X133738908Y-93309973D01*
X133596262Y-93653501D01*
X133595938Y-94025467D01*
X133737983Y-94369243D01*
X134000773Y-94632492D01*
X134344301Y-94775138D01*
X134716267Y-94775462D01*
X135060043Y-94633417D01*
X135070318Y-94623160D01*
X145272000Y-94623160D01*
X145272000Y-94663160D01*
X145316278Y-94898477D01*
X145455350Y-95114601D01*
X145667550Y-95259591D01*
X145855837Y-95297720D01*
X131802280Y-95297720D01*
X131511441Y-95355572D01*
X131264879Y-95520319D01*
X130185981Y-96599217D01*
X130121210Y-96273592D01*
X133610602Y-92784200D01*
X145341505Y-92784200D01*
X145323009Y-92811270D01*
G36*
X148759799Y-91694001D02*
X149599574Y-92533776D01*
X149546440Y-92586910D01*
X149546440Y-93736160D01*
X149566440Y-93736160D01*
X149566440Y-93990160D01*
X149546440Y-93990160D01*
X149546440Y-94010160D01*
X149292440Y-94010160D01*
X149292440Y-93990160D01*
X148443190Y-93990160D01*
X148284440Y-94148910D01*
X148284440Y-94789470D01*
X148381113Y-95022859D01*
X148559742Y-95201487D01*
X148792069Y-95297720D01*
X146987891Y-95297720D01*
X147154757Y-95266322D01*
X147370881Y-95127250D01*
X147515871Y-94915050D01*
X147566880Y-94663160D01*
X147566880Y-93063160D01*
X147543114Y-92936850D01*
X148284440Y-92936850D01*
X148284440Y-93577410D01*
X148443190Y-93736160D01*
X149292440Y-93736160D01*
X149292440Y-92586910D01*
X149133690Y-92428160D01*
X148793131Y-92428160D01*
X148559742Y-92524833D01*
X148381113Y-92703461D01*
X148284440Y-92936850D01*
X147543114Y-92936850D01*
X147522602Y-92827843D01*
X147497730Y-92789192D01*
X148692957Y-91593965D01*
X148759799Y-91694001D01*
X148759799Y-91694001D01*
G37*
X148759799Y-91694001D02*
X149599574Y-92533776D01*
X149546440Y-92586910D01*
X149546440Y-93736160D01*
X149566440Y-93736160D01*
X149566440Y-93990160D01*
X149546440Y-93990160D01*
X149546440Y-94010160D01*
X149292440Y-94010160D01*
X149292440Y-93990160D01*
X148443190Y-93990160D01*
X148284440Y-94148910D01*
X148284440Y-94789470D01*
X148381113Y-95022859D01*
X148559742Y-95201487D01*
X148792069Y-95297720D01*
X146987891Y-95297720D01*
X147154757Y-95266322D01*
X147370881Y-95127250D01*
X147515871Y-94915050D01*
X147566880Y-94663160D01*
X147566880Y-93063160D01*
X147543114Y-92936850D01*
X148284440Y-92936850D01*
X148284440Y-93577410D01*
X148443190Y-93736160D01*
X149292440Y-93736160D01*
X149292440Y-92586910D01*
X149133690Y-92428160D01*
X148793131Y-92428160D01*
X148559742Y-92524833D01*
X148381113Y-92703461D01*
X148284440Y-92936850D01*
X147543114Y-92936850D01*
X147522602Y-92827843D01*
X147497730Y-92789192D01*
X148692957Y-91593965D01*
X148759799Y-91694001D01*
G36*
X139635578Y-90565700D02*
X132801360Y-90565700D01*
X132510521Y-90623552D01*
X132263959Y-90788299D01*
X129856545Y-93195713D01*
X129759147Y-93049946D01*
X129429974Y-92830000D01*
X129759147Y-92610054D01*
X130081054Y-92128285D01*
X130194093Y-91560000D01*
X130145373Y-91315069D01*
X131206082Y-90254360D01*
X139324238Y-90254360D01*
X139635578Y-90565700D01*
X139635578Y-90565700D01*
G37*
X139635578Y-90565700D02*
X132801360Y-90565700D01*
X132510521Y-90623552D01*
X132263959Y-90788299D01*
X129856545Y-93195713D01*
X129759147Y-93049946D01*
X129429974Y-92830000D01*
X129759147Y-92610054D01*
X130081054Y-92128285D01*
X130194093Y-91560000D01*
X130145373Y-91315069D01*
X131206082Y-90254360D01*
X139324238Y-90254360D01*
X139635578Y-90565700D01*
G36*
X133566480Y-79929430D02*
X133663153Y-80162819D01*
X133841782Y-80341447D01*
X134075171Y-80438120D01*
X134536280Y-80438120D01*
X134536280Y-80637250D01*
X134695030Y-80796000D01*
X135844280Y-80796000D01*
X135844280Y-80776000D01*
X136098280Y-80776000D01*
X136098280Y-80796000D01*
X136118280Y-80796000D01*
X136118280Y-81050000D01*
X136098280Y-81050000D01*
X136098280Y-81899250D01*
X136257030Y-82058000D01*
X136897590Y-82058000D01*
X137004520Y-82013708D01*
X137004520Y-82336640D01*
X137062372Y-82627479D01*
X137227119Y-82874041D01*
X137650189Y-83297111D01*
X137536059Y-83220852D01*
X137374642Y-83188744D01*
X137374442Y-83187683D01*
X137235370Y-82971559D01*
X137023170Y-82826569D01*
X136771280Y-82775560D01*
X135887342Y-82775560D01*
X135169782Y-82058000D01*
X135685530Y-82058000D01*
X135844280Y-81899250D01*
X135844280Y-81050000D01*
X134695030Y-81050000D01*
X134536280Y-81208750D01*
X134536280Y-81424498D01*
X133119400Y-80007618D01*
X133119400Y-79983020D01*
X133209400Y-79983020D01*
X133444717Y-79938742D01*
X133566480Y-79860390D01*
X133566480Y-79929430D01*
X133566480Y-79929430D01*
G37*
X133566480Y-79929430D02*
X133663153Y-80162819D01*
X133841782Y-80341447D01*
X134075171Y-80438120D01*
X134536280Y-80438120D01*
X134536280Y-80637250D01*
X134695030Y-80796000D01*
X135844280Y-80796000D01*
X135844280Y-80776000D01*
X136098280Y-80776000D01*
X136098280Y-80796000D01*
X136118280Y-80796000D01*
X136118280Y-81050000D01*
X136098280Y-81050000D01*
X136098280Y-81899250D01*
X136257030Y-82058000D01*
X136897590Y-82058000D01*
X137004520Y-82013708D01*
X137004520Y-82336640D01*
X137062372Y-82627479D01*
X137227119Y-82874041D01*
X137650189Y-83297111D01*
X137536059Y-83220852D01*
X137374642Y-83188744D01*
X137374442Y-83187683D01*
X137235370Y-82971559D01*
X137023170Y-82826569D01*
X136771280Y-82775560D01*
X135887342Y-82775560D01*
X135169782Y-82058000D01*
X135685530Y-82058000D01*
X135844280Y-81899250D01*
X135844280Y-81050000D01*
X134695030Y-81050000D01*
X134536280Y-81208750D01*
X134536280Y-81424498D01*
X133119400Y-80007618D01*
X133119400Y-79983020D01*
X133209400Y-79983020D01*
X133444717Y-79938742D01*
X133566480Y-79860390D01*
X133566480Y-79929430D01*
G36*
X151647200Y-81881440D02*
X151874760Y-81881440D01*
X151874760Y-82109000D01*
X151888180Y-82180323D01*
X151887200Y-82182690D01*
X151887200Y-82225250D01*
X151898821Y-82236871D01*
X151919038Y-82344317D01*
X151992820Y-82458978D01*
X151925769Y-82557110D01*
X151901120Y-82678830D01*
X151887200Y-82692750D01*
X151887200Y-82735310D01*
X151888867Y-82739335D01*
X151874760Y-82809000D01*
X151874760Y-82955604D01*
X151655247Y-82735708D01*
X151311719Y-82593062D01*
X150939753Y-82592738D01*
X150923666Y-82599385D01*
X150931998Y-82579319D01*
X150932039Y-82532443D01*
X151334601Y-82129881D01*
X151499348Y-81883320D01*
X151501764Y-81871173D01*
X151550871Y-81861933D01*
X151647200Y-81881440D01*
X151647200Y-81881440D01*
G37*
X151647200Y-81881440D02*
X151874760Y-81881440D01*
X151874760Y-82109000D01*
X151888180Y-82180323D01*
X151887200Y-82182690D01*
X151887200Y-82225250D01*
X151898821Y-82236871D01*
X151919038Y-82344317D01*
X151992820Y-82458978D01*
X151925769Y-82557110D01*
X151901120Y-82678830D01*
X151887200Y-82692750D01*
X151887200Y-82735310D01*
X151888867Y-82739335D01*
X151874760Y-82809000D01*
X151874760Y-82955604D01*
X151655247Y-82735708D01*
X151311719Y-82593062D01*
X150939753Y-82592738D01*
X150923666Y-82599385D01*
X150931998Y-82579319D01*
X150932039Y-82532443D01*
X151334601Y-82129881D01*
X151499348Y-81883320D01*
X151501764Y-81871173D01*
X151550871Y-81861933D01*
X151647200Y-81881440D01*
G36*
X140043660Y-81473040D02*
X140063660Y-81473040D01*
X140063660Y-81727040D01*
X140043660Y-81727040D01*
X140043660Y-81747040D01*
X139789660Y-81747040D01*
X139789660Y-81727040D01*
X139769660Y-81727040D01*
X139769660Y-81473040D01*
X139789660Y-81473040D01*
X139789660Y-81453040D01*
X140043660Y-81453040D01*
X140043660Y-81473040D01*
X140043660Y-81473040D01*
G37*
X140043660Y-81473040D02*
X140063660Y-81473040D01*
X140063660Y-81727040D01*
X140043660Y-81727040D01*
X140043660Y-81747040D01*
X139789660Y-81747040D01*
X139789660Y-81727040D01*
X139769660Y-81727040D01*
X139769660Y-81473040D01*
X139789660Y-81473040D01*
X139789660Y-81453040D01*
X140043660Y-81453040D01*
X140043660Y-81473040D01*
G36*
X139632680Y-75459428D02*
X139923520Y-75517280D01*
X146440238Y-75517280D01*
X146259799Y-75697719D01*
X146095052Y-75944281D01*
X146037200Y-76235120D01*
X146037200Y-79157258D01*
X145911883Y-79180838D01*
X145695759Y-79319910D01*
X145550769Y-79532110D01*
X145499760Y-79784000D01*
X145499760Y-81161560D01*
X145124562Y-81161560D01*
X144133663Y-80170661D01*
X144271691Y-79968650D01*
X144322700Y-79716760D01*
X144322700Y-78716760D01*
X144278422Y-78481443D01*
X144139350Y-78265319D01*
X144071254Y-78218791D01*
X144213587Y-78076458D01*
X144310260Y-77843069D01*
X144310260Y-77502510D01*
X144151510Y-77343760D01*
X143177260Y-77343760D01*
X143177260Y-77363760D01*
X142923260Y-77363760D01*
X142923260Y-77343760D01*
X142903260Y-77343760D01*
X142903260Y-77089760D01*
X142923260Y-77089760D01*
X142923260Y-76240510D01*
X143177260Y-76240510D01*
X143177260Y-77089760D01*
X144151510Y-77089760D01*
X144310260Y-76931010D01*
X144310260Y-76590451D01*
X144213587Y-76357062D01*
X144034959Y-76178433D01*
X143801570Y-76081760D01*
X143336010Y-76081760D01*
X143177260Y-76240510D01*
X142923260Y-76240510D01*
X142764510Y-76081760D01*
X142298950Y-76081760D01*
X142065561Y-76178433D01*
X141890724Y-76353271D01*
X141874642Y-76267803D01*
X141735570Y-76051679D01*
X141523370Y-75906689D01*
X141271480Y-75855680D01*
X139671480Y-75855680D01*
X139436163Y-75899958D01*
X139240800Y-76025671D01*
X139240800Y-75914054D01*
X139300932Y-75854027D01*
X139443578Y-75510499D01*
X139443732Y-75333177D01*
X139632680Y-75459428D01*
X139632680Y-75459428D01*
G37*
X139632680Y-75459428D02*
X139923520Y-75517280D01*
X146440238Y-75517280D01*
X146259799Y-75697719D01*
X146095052Y-75944281D01*
X146037200Y-76235120D01*
X146037200Y-79157258D01*
X145911883Y-79180838D01*
X145695759Y-79319910D01*
X145550769Y-79532110D01*
X145499760Y-79784000D01*
X145499760Y-81161560D01*
X145124562Y-81161560D01*
X144133663Y-80170661D01*
X144271691Y-79968650D01*
X144322700Y-79716760D01*
X144322700Y-78716760D01*
X144278422Y-78481443D01*
X144139350Y-78265319D01*
X144071254Y-78218791D01*
X144213587Y-78076458D01*
X144310260Y-77843069D01*
X144310260Y-77502510D01*
X144151510Y-77343760D01*
X143177260Y-77343760D01*
X143177260Y-77363760D01*
X142923260Y-77363760D01*
X142923260Y-77343760D01*
X142903260Y-77343760D01*
X142903260Y-77089760D01*
X142923260Y-77089760D01*
X142923260Y-76240510D01*
X143177260Y-76240510D01*
X143177260Y-77089760D01*
X144151510Y-77089760D01*
X144310260Y-76931010D01*
X144310260Y-76590451D01*
X144213587Y-76357062D01*
X144034959Y-76178433D01*
X143801570Y-76081760D01*
X143336010Y-76081760D01*
X143177260Y-76240510D01*
X142923260Y-76240510D01*
X142764510Y-76081760D01*
X142298950Y-76081760D01*
X142065561Y-76178433D01*
X141890724Y-76353271D01*
X141874642Y-76267803D01*
X141735570Y-76051679D01*
X141523370Y-75906689D01*
X141271480Y-75855680D01*
X139671480Y-75855680D01*
X139436163Y-75899958D01*
X139240800Y-76025671D01*
X139240800Y-75914054D01*
X139300932Y-75854027D01*
X139443578Y-75510499D01*
X139443732Y-75333177D01*
X139632680Y-75459428D01*
G36*
X157062680Y-79434690D02*
X157221430Y-79593440D01*
X158070680Y-79593440D01*
X158070680Y-79573440D01*
X158324680Y-79573440D01*
X158324680Y-79593440D01*
X159173930Y-79593440D01*
X159332680Y-79434690D01*
X159332680Y-78971680D01*
X160892497Y-78971680D01*
X160792042Y-79213601D01*
X160791718Y-79585567D01*
X160933763Y-79929343D01*
X160974264Y-79969915D01*
X160740199Y-79872722D01*
X160368233Y-79872398D01*
X160117364Y-79976055D01*
X159856279Y-79867642D01*
X159484313Y-79867318D01*
X159278746Y-79952256D01*
X159173930Y-79847440D01*
X158324680Y-79847440D01*
X158324680Y-79867440D01*
X158070680Y-79867440D01*
X158070680Y-79847440D01*
X157221430Y-79847440D01*
X157062680Y-80006190D01*
X157062680Y-80646750D01*
X157159353Y-80880139D01*
X157208154Y-80928940D01*
X156263340Y-80928940D01*
X156175113Y-80946490D01*
X156294111Y-80772330D01*
X156345120Y-80520440D01*
X156345120Y-78971680D01*
X157062680Y-78971680D01*
X157062680Y-79434690D01*
X157062680Y-79434690D01*
G37*
X157062680Y-79434690D02*
X157221430Y-79593440D01*
X158070680Y-79593440D01*
X158070680Y-79573440D01*
X158324680Y-79573440D01*
X158324680Y-79593440D01*
X159173930Y-79593440D01*
X159332680Y-79434690D01*
X159332680Y-78971680D01*
X160892497Y-78971680D01*
X160792042Y-79213601D01*
X160791718Y-79585567D01*
X160933763Y-79929343D01*
X160974264Y-79969915D01*
X160740199Y-79872722D01*
X160368233Y-79872398D01*
X160117364Y-79976055D01*
X159856279Y-79867642D01*
X159484313Y-79867318D01*
X159278746Y-79952256D01*
X159173930Y-79847440D01*
X158324680Y-79847440D01*
X158324680Y-79867440D01*
X158070680Y-79867440D01*
X158070680Y-79847440D01*
X157221430Y-79847440D01*
X157062680Y-80006190D01*
X157062680Y-80646750D01*
X157159353Y-80880139D01*
X157208154Y-80928940D01*
X156263340Y-80928940D01*
X156175113Y-80946490D01*
X156294111Y-80772330D01*
X156345120Y-80520440D01*
X156345120Y-78971680D01*
X157062680Y-78971680D01*
X157062680Y-79434690D01*
G36*
X138009521Y-73568678D02*
X138381487Y-73569002D01*
X138541260Y-73502985D01*
X138541260Y-73868600D01*
X138585538Y-74103917D01*
X138724610Y-74320041D01*
X138878700Y-74425326D01*
X138878700Y-74464917D01*
X138695539Y-74388862D01*
X138323573Y-74388538D01*
X137979797Y-74530583D01*
X137716548Y-74793373D01*
X137590384Y-75097208D01*
X137579353Y-75097198D01*
X137235577Y-75239243D01*
X136972328Y-75502033D01*
X136829682Y-75845561D01*
X136829401Y-76168120D01*
X135757230Y-76168120D01*
X135598480Y-76326870D01*
X135598480Y-78176120D01*
X135618480Y-78176120D01*
X135618480Y-78430120D01*
X135598480Y-78430120D01*
X135598480Y-78450120D01*
X135344480Y-78450120D01*
X135344480Y-78430120D01*
X135324480Y-78430120D01*
X135324480Y-78176120D01*
X135344480Y-78176120D01*
X135344480Y-76326870D01*
X135185730Y-76168120D01*
X134190981Y-76168120D01*
X134410981Y-76021121D01*
X135995379Y-74436723D01*
X136036810Y-74465031D01*
X136288700Y-74516040D01*
X137188700Y-74516040D01*
X137424017Y-74471762D01*
X137640141Y-74332690D01*
X137785131Y-74120490D01*
X137836140Y-73868600D01*
X137836140Y-73496684D01*
X138009521Y-73568678D01*
X138009521Y-73568678D01*
G37*
X138009521Y-73568678D02*
X138381487Y-73569002D01*
X138541260Y-73502985D01*
X138541260Y-73868600D01*
X138585538Y-74103917D01*
X138724610Y-74320041D01*
X138878700Y-74425326D01*
X138878700Y-74464917D01*
X138695539Y-74388862D01*
X138323573Y-74388538D01*
X137979797Y-74530583D01*
X137716548Y-74793373D01*
X137590384Y-75097208D01*
X137579353Y-75097198D01*
X137235577Y-75239243D01*
X136972328Y-75502033D01*
X136829682Y-75845561D01*
X136829401Y-76168120D01*
X135757230Y-76168120D01*
X135598480Y-76326870D01*
X135598480Y-78176120D01*
X135618480Y-78176120D01*
X135618480Y-78430120D01*
X135598480Y-78430120D01*
X135598480Y-78450120D01*
X135344480Y-78450120D01*
X135344480Y-78430120D01*
X135324480Y-78430120D01*
X135324480Y-78176120D01*
X135344480Y-78176120D01*
X135344480Y-76326870D01*
X135185730Y-76168120D01*
X134190981Y-76168120D01*
X134410981Y-76021121D01*
X135995379Y-74436723D01*
X136036810Y-74465031D01*
X136288700Y-74516040D01*
X137188700Y-74516040D01*
X137424017Y-74471762D01*
X137640141Y-74332690D01*
X137785131Y-74120490D01*
X137836140Y-73868600D01*
X137836140Y-73496684D01*
X138009521Y-73568678D01*
G36*
X132954560Y-57407920D02*
X132998838Y-57643237D01*
X133137910Y-57859361D01*
X133350110Y-58004351D01*
X133602000Y-58055360D01*
X134465173Y-58055360D01*
X134229128Y-58290993D01*
X134086482Y-58634521D01*
X134086158Y-59006487D01*
X134180968Y-59235946D01*
X134076322Y-59487961D01*
X134075998Y-59859927D01*
X134184722Y-60123060D01*
X134081402Y-60371881D01*
X134081078Y-60743847D01*
X134223123Y-61087623D01*
X134348355Y-61213074D01*
X134300559Y-61243830D01*
X134155569Y-61456030D01*
X134104560Y-61707920D01*
X134104560Y-63707920D01*
X134148838Y-63943237D01*
X134287910Y-64159361D01*
X134500110Y-64304351D01*
X134752000Y-64355360D01*
X135736847Y-64355360D01*
X135135008Y-64957200D01*
X134333080Y-64957200D01*
X134097763Y-65001478D01*
X133881639Y-65140550D01*
X133736649Y-65352750D01*
X133685640Y-65604640D01*
X133685640Y-66604640D01*
X133729918Y-66839957D01*
X133868990Y-67056081D01*
X134081190Y-67201071D01*
X134333080Y-67252080D01*
X135933080Y-67252080D01*
X136168397Y-67207802D01*
X136384521Y-67068730D01*
X136529511Y-66856530D01*
X136580520Y-66604640D01*
X136580520Y-65802713D01*
X136626600Y-65756632D01*
X136703160Y-65833192D01*
X136703160Y-66635120D01*
X136747438Y-66870437D01*
X136886510Y-67086561D01*
X137098710Y-67231551D01*
X137350600Y-67282560D01*
X138950600Y-67282560D01*
X139185917Y-67238282D01*
X139402041Y-67099210D01*
X139507326Y-66945120D01*
X141455400Y-66945120D01*
X141455400Y-67870200D01*
X141517058Y-68180174D01*
X141692644Y-68442956D01*
X141843000Y-68593312D01*
X141843000Y-69802085D01*
X141680667Y-69639468D01*
X141337139Y-69496822D01*
X140965173Y-69496498D01*
X140621397Y-69638543D01*
X140358148Y-69901333D01*
X140215502Y-70244861D01*
X140215178Y-70616827D01*
X140273773Y-70758638D01*
X140088700Y-70721160D01*
X139188700Y-70721160D01*
X138953383Y-70765438D01*
X138737259Y-70904510D01*
X138592269Y-71116710D01*
X138541260Y-71368600D01*
X138541260Y-71764668D01*
X138383119Y-71699002D01*
X138011153Y-71698678D01*
X137836140Y-71770992D01*
X137836140Y-71368600D01*
X137791862Y-71133283D01*
X137652790Y-70917159D01*
X137440590Y-70772169D01*
X137188700Y-70721160D01*
X136288700Y-70721160D01*
X136053383Y-70765438D01*
X135837259Y-70904510D01*
X135692269Y-71116710D01*
X135641260Y-71368600D01*
X135641260Y-72641238D01*
X133794400Y-74488098D01*
X133794400Y-74238990D01*
X133635650Y-74080240D01*
X132486400Y-74080240D01*
X132486400Y-74100240D01*
X132232400Y-74100240D01*
X132232400Y-74080240D01*
X131083150Y-74080240D01*
X130924400Y-74238990D01*
X130924400Y-74579549D01*
X130987878Y-74732799D01*
X130742680Y-74781572D01*
X130496119Y-74946319D01*
X129993199Y-75449239D01*
X129936073Y-75534735D01*
X129759147Y-75269946D01*
X129429974Y-75050000D01*
X129759147Y-74830054D01*
X130081054Y-74348285D01*
X130194093Y-73780000D01*
X130103972Y-73326931D01*
X130924400Y-73326931D01*
X130924400Y-73667490D01*
X131083150Y-73826240D01*
X132232400Y-73826240D01*
X132232400Y-72976990D01*
X132486400Y-72976990D01*
X132486400Y-73826240D01*
X133635650Y-73826240D01*
X133794400Y-73667490D01*
X133794400Y-73326931D01*
X133697727Y-73093542D01*
X133519099Y-72914913D01*
X133285710Y-72818240D01*
X132645150Y-72818240D01*
X132486400Y-72976990D01*
X132232400Y-72976990D01*
X132073650Y-72818240D01*
X131433090Y-72818240D01*
X131199701Y-72914913D01*
X131021073Y-73093542D01*
X130924400Y-73326931D01*
X130103972Y-73326931D01*
X130081054Y-73211715D01*
X129759147Y-72729946D01*
X129429974Y-72510000D01*
X129759147Y-72290054D01*
X130081054Y-71808285D01*
X130194093Y-71240000D01*
X130081054Y-70671715D01*
X129759147Y-70189946D01*
X129429974Y-69970000D01*
X129759147Y-69750054D01*
X129999466Y-69390390D01*
X133698080Y-69390390D01*
X133698080Y-69730949D01*
X133794753Y-69964338D01*
X133973381Y-70142967D01*
X134206770Y-70239640D01*
X134847330Y-70239640D01*
X135006080Y-70080890D01*
X135006080Y-69231640D01*
X135260080Y-69231640D01*
X135260080Y-70080890D01*
X135418830Y-70239640D01*
X136059390Y-70239640D01*
X136292779Y-70142967D01*
X136471407Y-69964338D01*
X136568080Y-69730949D01*
X136568080Y-69420870D01*
X136715600Y-69420870D01*
X136715600Y-69761429D01*
X136812273Y-69994818D01*
X136990901Y-70173447D01*
X137224290Y-70270120D01*
X137864850Y-70270120D01*
X138023600Y-70111370D01*
X138023600Y-69262120D01*
X138277600Y-69262120D01*
X138277600Y-70111370D01*
X138436350Y-70270120D01*
X139076910Y-70270120D01*
X139310299Y-70173447D01*
X139488927Y-69994818D01*
X139585600Y-69761429D01*
X139585600Y-69420870D01*
X139426850Y-69262120D01*
X138277600Y-69262120D01*
X138023600Y-69262120D01*
X136874350Y-69262120D01*
X136715600Y-69420870D01*
X136568080Y-69420870D01*
X136568080Y-69390390D01*
X136409330Y-69231640D01*
X135260080Y-69231640D01*
X135006080Y-69231640D01*
X133856830Y-69231640D01*
X133698080Y-69390390D01*
X129999466Y-69390390D01*
X130081054Y-69268285D01*
X130194093Y-68700000D01*
X130150001Y-68478331D01*
X133698080Y-68478331D01*
X133698080Y-68818890D01*
X133856830Y-68977640D01*
X135006080Y-68977640D01*
X135006080Y-68128390D01*
X135260080Y-68128390D01*
X135260080Y-68977640D01*
X136409330Y-68977640D01*
X136568080Y-68818890D01*
X136568080Y-68508811D01*
X136715600Y-68508811D01*
X136715600Y-68849370D01*
X136874350Y-69008120D01*
X138023600Y-69008120D01*
X138023600Y-68158870D01*
X138277600Y-68158870D01*
X138277600Y-69008120D01*
X139426850Y-69008120D01*
X139585600Y-68849370D01*
X139585600Y-68508811D01*
X139488927Y-68275422D01*
X139310299Y-68096793D01*
X139076910Y-68000120D01*
X138436350Y-68000120D01*
X138277600Y-68158870D01*
X138023600Y-68158870D01*
X137864850Y-68000120D01*
X137224290Y-68000120D01*
X136990901Y-68096793D01*
X136812273Y-68275422D01*
X136715600Y-68508811D01*
X136568080Y-68508811D01*
X136568080Y-68478331D01*
X136471407Y-68244942D01*
X136292779Y-68066313D01*
X136059390Y-67969640D01*
X135418830Y-67969640D01*
X135260080Y-68128390D01*
X135006080Y-68128390D01*
X134847330Y-67969640D01*
X134206770Y-67969640D01*
X133973381Y-68066313D01*
X133794753Y-68244942D01*
X133698080Y-68478331D01*
X130150001Y-68478331D01*
X130081054Y-68131715D01*
X129759147Y-67649946D01*
X129418447Y-67422298D01*
X129561358Y-67355183D01*
X129951645Y-66926924D01*
X130121476Y-66516890D01*
X130000155Y-66287000D01*
X128807000Y-66287000D01*
X128807000Y-66307000D01*
X128553000Y-66307000D01*
X128553000Y-66287000D01*
X128533000Y-66287000D01*
X128533000Y-66033000D01*
X128553000Y-66033000D01*
X128553000Y-63747000D01*
X128807000Y-63747000D01*
X128807000Y-66033000D01*
X130000155Y-66033000D01*
X130121476Y-65803110D01*
X129951645Y-65393076D01*
X129561358Y-64964817D01*
X129402046Y-64890000D01*
X129561358Y-64815183D01*
X129951645Y-64386924D01*
X130121476Y-63976890D01*
X130000155Y-63747000D01*
X128807000Y-63747000D01*
X128553000Y-63747000D01*
X128533000Y-63747000D01*
X128533000Y-63493000D01*
X128553000Y-63493000D01*
X128553000Y-63473000D01*
X128807000Y-63473000D01*
X128807000Y-63493000D01*
X130000155Y-63493000D01*
X130121476Y-63263110D01*
X129951645Y-62853076D01*
X129561358Y-62424817D01*
X129418447Y-62357702D01*
X129759147Y-62130054D01*
X130081054Y-61648285D01*
X130194093Y-61080000D01*
X130081054Y-60511715D01*
X129759147Y-60029946D01*
X129429974Y-59810000D01*
X129759147Y-59590054D01*
X130081054Y-59108285D01*
X130194093Y-58540000D01*
X130081054Y-57971715D01*
X129759147Y-57489946D01*
X129717548Y-57462150D01*
X129765317Y-57453162D01*
X129981441Y-57314090D01*
X130116839Y-57115928D01*
X130019942Y-57349281D01*
X130019618Y-57721247D01*
X130161663Y-58065023D01*
X130424453Y-58328272D01*
X130767981Y-58470918D01*
X131139947Y-58471242D01*
X131481781Y-58329999D01*
X131796681Y-58460758D01*
X132168647Y-58461082D01*
X132512423Y-58319037D01*
X132775672Y-58056247D01*
X132918318Y-57712719D01*
X132918642Y-57340753D01*
X132776597Y-56996977D01*
X132513807Y-56733728D01*
X132170279Y-56591082D01*
X132102697Y-56591023D01*
X132130036Y-56572756D01*
X132954560Y-55748232D01*
X132954560Y-57407920D01*
X132954560Y-57407920D01*
G37*
X132954560Y-57407920D02*
X132998838Y-57643237D01*
X133137910Y-57859361D01*
X133350110Y-58004351D01*
X133602000Y-58055360D01*
X134465173Y-58055360D01*
X134229128Y-58290993D01*
X134086482Y-58634521D01*
X134086158Y-59006487D01*
X134180968Y-59235946D01*
X134076322Y-59487961D01*
X134075998Y-59859927D01*
X134184722Y-60123060D01*
X134081402Y-60371881D01*
X134081078Y-60743847D01*
X134223123Y-61087623D01*
X134348355Y-61213074D01*
X134300559Y-61243830D01*
X134155569Y-61456030D01*
X134104560Y-61707920D01*
X134104560Y-63707920D01*
X134148838Y-63943237D01*
X134287910Y-64159361D01*
X134500110Y-64304351D01*
X134752000Y-64355360D01*
X135736847Y-64355360D01*
X135135008Y-64957200D01*
X134333080Y-64957200D01*
X134097763Y-65001478D01*
X133881639Y-65140550D01*
X133736649Y-65352750D01*
X133685640Y-65604640D01*
X133685640Y-66604640D01*
X133729918Y-66839957D01*
X133868990Y-67056081D01*
X134081190Y-67201071D01*
X134333080Y-67252080D01*
X135933080Y-67252080D01*
X136168397Y-67207802D01*
X136384521Y-67068730D01*
X136529511Y-66856530D01*
X136580520Y-66604640D01*
X136580520Y-65802713D01*
X136626600Y-65756632D01*
X136703160Y-65833192D01*
X136703160Y-66635120D01*
X136747438Y-66870437D01*
X136886510Y-67086561D01*
X137098710Y-67231551D01*
X137350600Y-67282560D01*
X138950600Y-67282560D01*
X139185917Y-67238282D01*
X139402041Y-67099210D01*
X139507326Y-66945120D01*
X141455400Y-66945120D01*
X141455400Y-67870200D01*
X141517058Y-68180174D01*
X141692644Y-68442956D01*
X141843000Y-68593312D01*
X141843000Y-69802085D01*
X141680667Y-69639468D01*
X141337139Y-69496822D01*
X140965173Y-69496498D01*
X140621397Y-69638543D01*
X140358148Y-69901333D01*
X140215502Y-70244861D01*
X140215178Y-70616827D01*
X140273773Y-70758638D01*
X140088700Y-70721160D01*
X139188700Y-70721160D01*
X138953383Y-70765438D01*
X138737259Y-70904510D01*
X138592269Y-71116710D01*
X138541260Y-71368600D01*
X138541260Y-71764668D01*
X138383119Y-71699002D01*
X138011153Y-71698678D01*
X137836140Y-71770992D01*
X137836140Y-71368600D01*
X137791862Y-71133283D01*
X137652790Y-70917159D01*
X137440590Y-70772169D01*
X137188700Y-70721160D01*
X136288700Y-70721160D01*
X136053383Y-70765438D01*
X135837259Y-70904510D01*
X135692269Y-71116710D01*
X135641260Y-71368600D01*
X135641260Y-72641238D01*
X133794400Y-74488098D01*
X133794400Y-74238990D01*
X133635650Y-74080240D01*
X132486400Y-74080240D01*
X132486400Y-74100240D01*
X132232400Y-74100240D01*
X132232400Y-74080240D01*
X131083150Y-74080240D01*
X130924400Y-74238990D01*
X130924400Y-74579549D01*
X130987878Y-74732799D01*
X130742680Y-74781572D01*
X130496119Y-74946319D01*
X129993199Y-75449239D01*
X129936073Y-75534735D01*
X129759147Y-75269946D01*
X129429974Y-75050000D01*
X129759147Y-74830054D01*
X130081054Y-74348285D01*
X130194093Y-73780000D01*
X130103972Y-73326931D01*
X130924400Y-73326931D01*
X130924400Y-73667490D01*
X131083150Y-73826240D01*
X132232400Y-73826240D01*
X132232400Y-72976990D01*
X132486400Y-72976990D01*
X132486400Y-73826240D01*
X133635650Y-73826240D01*
X133794400Y-73667490D01*
X133794400Y-73326931D01*
X133697727Y-73093542D01*
X133519099Y-72914913D01*
X133285710Y-72818240D01*
X132645150Y-72818240D01*
X132486400Y-72976990D01*
X132232400Y-72976990D01*
X132073650Y-72818240D01*
X131433090Y-72818240D01*
X131199701Y-72914913D01*
X131021073Y-73093542D01*
X130924400Y-73326931D01*
X130103972Y-73326931D01*
X130081054Y-73211715D01*
X129759147Y-72729946D01*
X129429974Y-72510000D01*
X129759147Y-72290054D01*
X130081054Y-71808285D01*
X130194093Y-71240000D01*
X130081054Y-70671715D01*
X129759147Y-70189946D01*
X129429974Y-69970000D01*
X129759147Y-69750054D01*
X129999466Y-69390390D01*
X133698080Y-69390390D01*
X133698080Y-69730949D01*
X133794753Y-69964338D01*
X133973381Y-70142967D01*
X134206770Y-70239640D01*
X134847330Y-70239640D01*
X135006080Y-70080890D01*
X135006080Y-69231640D01*
X135260080Y-69231640D01*
X135260080Y-70080890D01*
X135418830Y-70239640D01*
X136059390Y-70239640D01*
X136292779Y-70142967D01*
X136471407Y-69964338D01*
X136568080Y-69730949D01*
X136568080Y-69420870D01*
X136715600Y-69420870D01*
X136715600Y-69761429D01*
X136812273Y-69994818D01*
X136990901Y-70173447D01*
X137224290Y-70270120D01*
X137864850Y-70270120D01*
X138023600Y-70111370D01*
X138023600Y-69262120D01*
X138277600Y-69262120D01*
X138277600Y-70111370D01*
X138436350Y-70270120D01*
X139076910Y-70270120D01*
X139310299Y-70173447D01*
X139488927Y-69994818D01*
X139585600Y-69761429D01*
X139585600Y-69420870D01*
X139426850Y-69262120D01*
X138277600Y-69262120D01*
X138023600Y-69262120D01*
X136874350Y-69262120D01*
X136715600Y-69420870D01*
X136568080Y-69420870D01*
X136568080Y-69390390D01*
X136409330Y-69231640D01*
X135260080Y-69231640D01*
X135006080Y-69231640D01*
X133856830Y-69231640D01*
X133698080Y-69390390D01*
X129999466Y-69390390D01*
X130081054Y-69268285D01*
X130194093Y-68700000D01*
X130150001Y-68478331D01*
X133698080Y-68478331D01*
X133698080Y-68818890D01*
X133856830Y-68977640D01*
X135006080Y-68977640D01*
X135006080Y-68128390D01*
X135260080Y-68128390D01*
X135260080Y-68977640D01*
X136409330Y-68977640D01*
X136568080Y-68818890D01*
X136568080Y-68508811D01*
X136715600Y-68508811D01*
X136715600Y-68849370D01*
X136874350Y-69008120D01*
X138023600Y-69008120D01*
X138023600Y-68158870D01*
X138277600Y-68158870D01*
X138277600Y-69008120D01*
X139426850Y-69008120D01*
X139585600Y-68849370D01*
X139585600Y-68508811D01*
X139488927Y-68275422D01*
X139310299Y-68096793D01*
X139076910Y-68000120D01*
X138436350Y-68000120D01*
X138277600Y-68158870D01*
X138023600Y-68158870D01*
X137864850Y-68000120D01*
X137224290Y-68000120D01*
X136990901Y-68096793D01*
X136812273Y-68275422D01*
X136715600Y-68508811D01*
X136568080Y-68508811D01*
X136568080Y-68478331D01*
X136471407Y-68244942D01*
X136292779Y-68066313D01*
X136059390Y-67969640D01*
X135418830Y-67969640D01*
X135260080Y-68128390D01*
X135006080Y-68128390D01*
X134847330Y-67969640D01*
X134206770Y-67969640D01*
X133973381Y-68066313D01*
X133794753Y-68244942D01*
X133698080Y-68478331D01*
X130150001Y-68478331D01*
X130081054Y-68131715D01*
X129759147Y-67649946D01*
X129418447Y-67422298D01*
X129561358Y-67355183D01*
X129951645Y-66926924D01*
X130121476Y-66516890D01*
X130000155Y-66287000D01*
X128807000Y-66287000D01*
X128807000Y-66307000D01*
X128553000Y-66307000D01*
X128553000Y-66287000D01*
X128533000Y-66287000D01*
X128533000Y-66033000D01*
X128553000Y-66033000D01*
X128553000Y-63747000D01*
X128807000Y-63747000D01*
X128807000Y-66033000D01*
X130000155Y-66033000D01*
X130121476Y-65803110D01*
X129951645Y-65393076D01*
X129561358Y-64964817D01*
X129402046Y-64890000D01*
X129561358Y-64815183D01*
X129951645Y-64386924D01*
X130121476Y-63976890D01*
X130000155Y-63747000D01*
X128807000Y-63747000D01*
X128553000Y-63747000D01*
X128533000Y-63747000D01*
X128533000Y-63493000D01*
X128553000Y-63493000D01*
X128553000Y-63473000D01*
X128807000Y-63473000D01*
X128807000Y-63493000D01*
X130000155Y-63493000D01*
X130121476Y-63263110D01*
X129951645Y-62853076D01*
X129561358Y-62424817D01*
X129418447Y-62357702D01*
X129759147Y-62130054D01*
X130081054Y-61648285D01*
X130194093Y-61080000D01*
X130081054Y-60511715D01*
X129759147Y-60029946D01*
X129429974Y-59810000D01*
X129759147Y-59590054D01*
X130081054Y-59108285D01*
X130194093Y-58540000D01*
X130081054Y-57971715D01*
X129759147Y-57489946D01*
X129717548Y-57462150D01*
X129765317Y-57453162D01*
X129981441Y-57314090D01*
X130116839Y-57115928D01*
X130019942Y-57349281D01*
X130019618Y-57721247D01*
X130161663Y-58065023D01*
X130424453Y-58328272D01*
X130767981Y-58470918D01*
X131139947Y-58471242D01*
X131481781Y-58329999D01*
X131796681Y-58460758D01*
X132168647Y-58461082D01*
X132512423Y-58319037D01*
X132775672Y-58056247D01*
X132918318Y-57712719D01*
X132918642Y-57340753D01*
X132776597Y-56996977D01*
X132513807Y-56733728D01*
X132170279Y-56591082D01*
X132102697Y-56591023D01*
X132130036Y-56572756D01*
X132954560Y-55748232D01*
X132954560Y-57407920D01*
G36*
X167878524Y-63263110D02*
X167999845Y-63493000D01*
X169193000Y-63493000D01*
X169193000Y-63473000D01*
X169447000Y-63473000D01*
X169447000Y-63493000D01*
X169467000Y-63493000D01*
X169467000Y-63747000D01*
X169447000Y-63747000D01*
X169447000Y-66033000D01*
X169467000Y-66033000D01*
X169467000Y-66287000D01*
X169447000Y-66287000D01*
X169447000Y-66307000D01*
X169193000Y-66307000D01*
X169193000Y-66287000D01*
X167999845Y-66287000D01*
X167878524Y-66516890D01*
X168048355Y-66926924D01*
X168438642Y-67355183D01*
X168581553Y-67422298D01*
X168240853Y-67649946D01*
X167918946Y-68131715D01*
X167805907Y-68700000D01*
X167878790Y-69066408D01*
X167483599Y-69461599D01*
X167318852Y-69708161D01*
X167261000Y-69999000D01*
X167261000Y-70886478D01*
X165458298Y-72689180D01*
X163908648Y-72689180D01*
X164046018Y-72358359D01*
X164046342Y-71986393D01*
X163904297Y-71642617D01*
X163641507Y-71379368D01*
X163297979Y-71236722D01*
X162926013Y-71236398D01*
X162728201Y-71318132D01*
X162464859Y-71208782D01*
X162092893Y-71208458D01*
X161863901Y-71303075D01*
X161636819Y-71208782D01*
X161264853Y-71208458D01*
X161039733Y-71301475D01*
X160785919Y-71196082D01*
X160413953Y-71195758D01*
X160070177Y-71337803D01*
X159806928Y-71600593D01*
X159664282Y-71944121D01*
X159663958Y-72316087D01*
X159806003Y-72659863D01*
X159835269Y-72689180D01*
X158602680Y-72689180D01*
X158360094Y-72737434D01*
X158311840Y-72747032D01*
X158065279Y-72911779D01*
X156664818Y-74312240D01*
X152885417Y-74312240D01*
X152885582Y-74122533D01*
X152827651Y-73982330D01*
X152887761Y-73943650D01*
X153032751Y-73731450D01*
X153083760Y-73479560D01*
X153083760Y-72965310D01*
X153801320Y-72965310D01*
X153801320Y-73605870D01*
X153897993Y-73839259D01*
X154076622Y-74017887D01*
X154310011Y-74114560D01*
X154650570Y-74114560D01*
X154809320Y-73955810D01*
X154809320Y-72806560D01*
X155063320Y-72806560D01*
X155063320Y-73955810D01*
X155222070Y-74114560D01*
X155562629Y-74114560D01*
X155796018Y-74017887D01*
X155974647Y-73839259D01*
X156071320Y-73605870D01*
X156071320Y-72965310D01*
X155912570Y-72806560D01*
X155063320Y-72806560D01*
X154809320Y-72806560D01*
X153960070Y-72806560D01*
X153801320Y-72965310D01*
X153083760Y-72965310D01*
X153083760Y-71879560D01*
X153059994Y-71753250D01*
X153801320Y-71753250D01*
X153801320Y-72393810D01*
X153960070Y-72552560D01*
X154809320Y-72552560D01*
X154809320Y-71403310D01*
X155063320Y-71403310D01*
X155063320Y-72552560D01*
X155912570Y-72552560D01*
X156071320Y-72393810D01*
X156071320Y-71753250D01*
X155974647Y-71519861D01*
X155796018Y-71341233D01*
X155562629Y-71244560D01*
X155222070Y-71244560D01*
X155063320Y-71403310D01*
X154809320Y-71403310D01*
X154650570Y-71244560D01*
X154310011Y-71244560D01*
X154076622Y-71341233D01*
X153897993Y-71519861D01*
X153801320Y-71753250D01*
X153059994Y-71753250D01*
X153039482Y-71644243D01*
X152900410Y-71428119D01*
X152688210Y-71283129D01*
X152436320Y-71232120D01*
X151436320Y-71232120D01*
X151367047Y-71245155D01*
X151594162Y-71018040D01*
X152466800Y-71018040D01*
X152702117Y-70973762D01*
X152918241Y-70834690D01*
X153063231Y-70622490D01*
X153114240Y-70370600D01*
X153114240Y-69856350D01*
X153831800Y-69856350D01*
X153831800Y-70496910D01*
X153928473Y-70730299D01*
X154107102Y-70908927D01*
X154340491Y-71005600D01*
X154681050Y-71005600D01*
X154839800Y-70846850D01*
X154839800Y-69697600D01*
X155093800Y-69697600D01*
X155093800Y-70846850D01*
X155252550Y-71005600D01*
X155593109Y-71005600D01*
X155826498Y-70908927D01*
X156005127Y-70730299D01*
X156101800Y-70496910D01*
X156101800Y-69856350D01*
X155943050Y-69697600D01*
X155093800Y-69697600D01*
X154839800Y-69697600D01*
X153990550Y-69697600D01*
X153831800Y-69856350D01*
X153114240Y-69856350D01*
X153114240Y-68770600D01*
X153090474Y-68644290D01*
X153831800Y-68644290D01*
X153831800Y-69284850D01*
X153990550Y-69443600D01*
X154839800Y-69443600D01*
X154839800Y-68294350D01*
X155093800Y-68294350D01*
X155093800Y-69443600D01*
X155943050Y-69443600D01*
X156101800Y-69284850D01*
X156101800Y-68644290D01*
X156005127Y-68410901D01*
X155826498Y-68232273D01*
X155593109Y-68135600D01*
X155252550Y-68135600D01*
X155093800Y-68294350D01*
X154839800Y-68294350D01*
X154681050Y-68135600D01*
X154340491Y-68135600D01*
X154107102Y-68232273D01*
X153928473Y-68410901D01*
X153831800Y-68644290D01*
X153090474Y-68644290D01*
X153069962Y-68535283D01*
X152930890Y-68319159D01*
X152718690Y-68174169D01*
X152466800Y-68123160D01*
X151466800Y-68123160D01*
X151231483Y-68167438D01*
X151069360Y-68271761D01*
X151069360Y-68175811D01*
X150972687Y-67942422D01*
X150794059Y-67763793D01*
X150560670Y-67667120D01*
X149470110Y-67667120D01*
X149311360Y-67825870D01*
X149311360Y-68675120D01*
X149331360Y-68675120D01*
X149331360Y-68929120D01*
X149311360Y-68929120D01*
X149311360Y-69778370D01*
X149470110Y-69937120D01*
X150525478Y-69937120D01*
X149807918Y-70654680D01*
X147934360Y-70654680D01*
X147699043Y-70698958D01*
X147482919Y-70838030D01*
X147434701Y-70908600D01*
X146137909Y-70908600D01*
X146127330Y-70892159D01*
X145915130Y-70747169D01*
X145663240Y-70696160D01*
X145360187Y-70696160D01*
X145387178Y-70631159D01*
X145387309Y-70480240D01*
X145704690Y-70480240D01*
X145863440Y-70321490D01*
X145863440Y-68722240D01*
X146117440Y-68722240D01*
X146117440Y-70321490D01*
X146276190Y-70480240D01*
X146616749Y-70480240D01*
X146850138Y-70383567D01*
X147028767Y-70204939D01*
X147125440Y-69971550D01*
X147125440Y-69087870D01*
X147299360Y-69087870D01*
X147299360Y-69428429D01*
X147396033Y-69661818D01*
X147574661Y-69840447D01*
X147808050Y-69937120D01*
X148898610Y-69937120D01*
X149057360Y-69778370D01*
X149057360Y-68929120D01*
X147458110Y-68929120D01*
X147299360Y-69087870D01*
X147125440Y-69087870D01*
X147125440Y-68880990D01*
X146966690Y-68722240D01*
X146117440Y-68722240D01*
X145863440Y-68722240D01*
X145014190Y-68722240D01*
X144855440Y-68880990D01*
X144855440Y-69599338D01*
X144639139Y-69509522D01*
X144267173Y-69509198D01*
X144137880Y-69562621D01*
X144137880Y-67345240D01*
X144093602Y-67109923D01*
X143954530Y-66893799D01*
X143819986Y-66801869D01*
X143966841Y-66707370D01*
X144010037Y-66644150D01*
X144199624Y-66833737D01*
X144462407Y-67009323D01*
X144772380Y-67070980D01*
X144916723Y-67070980D01*
X144855440Y-67218930D01*
X144855440Y-68309490D01*
X145014190Y-68468240D01*
X145863440Y-68468240D01*
X145863440Y-68448240D01*
X146117440Y-68448240D01*
X146117440Y-68468240D01*
X146966690Y-68468240D01*
X147125440Y-68309490D01*
X147125440Y-68175811D01*
X147299360Y-68175811D01*
X147299360Y-68516370D01*
X147458110Y-68675120D01*
X149057360Y-68675120D01*
X149057360Y-67825870D01*
X148898610Y-67667120D01*
X147808050Y-67667120D01*
X147574661Y-67763793D01*
X147396033Y-67942422D01*
X147299360Y-68175811D01*
X147125440Y-68175811D01*
X147125440Y-67218930D01*
X147028767Y-66985541D01*
X146850138Y-66806913D01*
X146844312Y-66804500D01*
X147576393Y-66072420D01*
X147928320Y-66072420D01*
X148163637Y-66028142D01*
X148379761Y-65889070D01*
X148485046Y-65734980D01*
X148499320Y-65734980D01*
X148790159Y-65677128D01*
X149036721Y-65512381D01*
X150572212Y-63976890D01*
X167878524Y-63976890D01*
X168048355Y-64386924D01*
X168438642Y-64815183D01*
X168597954Y-64890000D01*
X168438642Y-64964817D01*
X168048355Y-65393076D01*
X167878524Y-65803110D01*
X167999845Y-66033000D01*
X169193000Y-66033000D01*
X169193000Y-63747000D01*
X167999845Y-63747000D01*
X167878524Y-63976890D01*
X150572212Y-63976890D01*
X151419402Y-63129700D01*
X167933781Y-63129700D01*
X167878524Y-63263110D01*
X167878524Y-63263110D01*
G37*
X167878524Y-63263110D02*
X167999845Y-63493000D01*
X169193000Y-63493000D01*
X169193000Y-63473000D01*
X169447000Y-63473000D01*
X169447000Y-63493000D01*
X169467000Y-63493000D01*
X169467000Y-63747000D01*
X169447000Y-63747000D01*
X169447000Y-66033000D01*
X169467000Y-66033000D01*
X169467000Y-66287000D01*
X169447000Y-66287000D01*
X169447000Y-66307000D01*
X169193000Y-66307000D01*
X169193000Y-66287000D01*
X167999845Y-66287000D01*
X167878524Y-66516890D01*
X168048355Y-66926924D01*
X168438642Y-67355183D01*
X168581553Y-67422298D01*
X168240853Y-67649946D01*
X167918946Y-68131715D01*
X167805907Y-68700000D01*
X167878790Y-69066408D01*
X167483599Y-69461599D01*
X167318852Y-69708161D01*
X167261000Y-69999000D01*
X167261000Y-70886478D01*
X165458298Y-72689180D01*
X163908648Y-72689180D01*
X164046018Y-72358359D01*
X164046342Y-71986393D01*
X163904297Y-71642617D01*
X163641507Y-71379368D01*
X163297979Y-71236722D01*
X162926013Y-71236398D01*
X162728201Y-71318132D01*
X162464859Y-71208782D01*
X162092893Y-71208458D01*
X161863901Y-71303075D01*
X161636819Y-71208782D01*
X161264853Y-71208458D01*
X161039733Y-71301475D01*
X160785919Y-71196082D01*
X160413953Y-71195758D01*
X160070177Y-71337803D01*
X159806928Y-71600593D01*
X159664282Y-71944121D01*
X159663958Y-72316087D01*
X159806003Y-72659863D01*
X159835269Y-72689180D01*
X158602680Y-72689180D01*
X158360094Y-72737434D01*
X158311840Y-72747032D01*
X158065279Y-72911779D01*
X156664818Y-74312240D01*
X152885417Y-74312240D01*
X152885582Y-74122533D01*
X152827651Y-73982330D01*
X152887761Y-73943650D01*
X153032751Y-73731450D01*
X153083760Y-73479560D01*
X153083760Y-72965310D01*
X153801320Y-72965310D01*
X153801320Y-73605870D01*
X153897993Y-73839259D01*
X154076622Y-74017887D01*
X154310011Y-74114560D01*
X154650570Y-74114560D01*
X154809320Y-73955810D01*
X154809320Y-72806560D01*
X155063320Y-72806560D01*
X155063320Y-73955810D01*
X155222070Y-74114560D01*
X155562629Y-74114560D01*
X155796018Y-74017887D01*
X155974647Y-73839259D01*
X156071320Y-73605870D01*
X156071320Y-72965310D01*
X155912570Y-72806560D01*
X155063320Y-72806560D01*
X154809320Y-72806560D01*
X153960070Y-72806560D01*
X153801320Y-72965310D01*
X153083760Y-72965310D01*
X153083760Y-71879560D01*
X153059994Y-71753250D01*
X153801320Y-71753250D01*
X153801320Y-72393810D01*
X153960070Y-72552560D01*
X154809320Y-72552560D01*
X154809320Y-71403310D01*
X155063320Y-71403310D01*
X155063320Y-72552560D01*
X155912570Y-72552560D01*
X156071320Y-72393810D01*
X156071320Y-71753250D01*
X155974647Y-71519861D01*
X155796018Y-71341233D01*
X155562629Y-71244560D01*
X155222070Y-71244560D01*
X155063320Y-71403310D01*
X154809320Y-71403310D01*
X154650570Y-71244560D01*
X154310011Y-71244560D01*
X154076622Y-71341233D01*
X153897993Y-71519861D01*
X153801320Y-71753250D01*
X153059994Y-71753250D01*
X153039482Y-71644243D01*
X152900410Y-71428119D01*
X152688210Y-71283129D01*
X152436320Y-71232120D01*
X151436320Y-71232120D01*
X151367047Y-71245155D01*
X151594162Y-71018040D01*
X152466800Y-71018040D01*
X152702117Y-70973762D01*
X152918241Y-70834690D01*
X153063231Y-70622490D01*
X153114240Y-70370600D01*
X153114240Y-69856350D01*
X153831800Y-69856350D01*
X153831800Y-70496910D01*
X153928473Y-70730299D01*
X154107102Y-70908927D01*
X154340491Y-71005600D01*
X154681050Y-71005600D01*
X154839800Y-70846850D01*
X154839800Y-69697600D01*
X155093800Y-69697600D01*
X155093800Y-70846850D01*
X155252550Y-71005600D01*
X155593109Y-71005600D01*
X155826498Y-70908927D01*
X156005127Y-70730299D01*
X156101800Y-70496910D01*
X156101800Y-69856350D01*
X155943050Y-69697600D01*
X155093800Y-69697600D01*
X154839800Y-69697600D01*
X153990550Y-69697600D01*
X153831800Y-69856350D01*
X153114240Y-69856350D01*
X153114240Y-68770600D01*
X153090474Y-68644290D01*
X153831800Y-68644290D01*
X153831800Y-69284850D01*
X153990550Y-69443600D01*
X154839800Y-69443600D01*
X154839800Y-68294350D01*
X155093800Y-68294350D01*
X155093800Y-69443600D01*
X155943050Y-69443600D01*
X156101800Y-69284850D01*
X156101800Y-68644290D01*
X156005127Y-68410901D01*
X155826498Y-68232273D01*
X155593109Y-68135600D01*
X155252550Y-68135600D01*
X155093800Y-68294350D01*
X154839800Y-68294350D01*
X154681050Y-68135600D01*
X154340491Y-68135600D01*
X154107102Y-68232273D01*
X153928473Y-68410901D01*
X153831800Y-68644290D01*
X153090474Y-68644290D01*
X153069962Y-68535283D01*
X152930890Y-68319159D01*
X152718690Y-68174169D01*
X152466800Y-68123160D01*
X151466800Y-68123160D01*
X151231483Y-68167438D01*
X151069360Y-68271761D01*
X151069360Y-68175811D01*
X150972687Y-67942422D01*
X150794059Y-67763793D01*
X150560670Y-67667120D01*
X149470110Y-67667120D01*
X149311360Y-67825870D01*
X149311360Y-68675120D01*
X149331360Y-68675120D01*
X149331360Y-68929120D01*
X149311360Y-68929120D01*
X149311360Y-69778370D01*
X149470110Y-69937120D01*
X150525478Y-69937120D01*
X149807918Y-70654680D01*
X147934360Y-70654680D01*
X147699043Y-70698958D01*
X147482919Y-70838030D01*
X147434701Y-70908600D01*
X146137909Y-70908600D01*
X146127330Y-70892159D01*
X145915130Y-70747169D01*
X145663240Y-70696160D01*
X145360187Y-70696160D01*
X145387178Y-70631159D01*
X145387309Y-70480240D01*
X145704690Y-70480240D01*
X145863440Y-70321490D01*
X145863440Y-68722240D01*
X146117440Y-68722240D01*
X146117440Y-70321490D01*
X146276190Y-70480240D01*
X146616749Y-70480240D01*
X146850138Y-70383567D01*
X147028767Y-70204939D01*
X147125440Y-69971550D01*
X147125440Y-69087870D01*
X147299360Y-69087870D01*
X147299360Y-69428429D01*
X147396033Y-69661818D01*
X147574661Y-69840447D01*
X147808050Y-69937120D01*
X148898610Y-69937120D01*
X149057360Y-69778370D01*
X149057360Y-68929120D01*
X147458110Y-68929120D01*
X147299360Y-69087870D01*
X147125440Y-69087870D01*
X147125440Y-68880990D01*
X146966690Y-68722240D01*
X146117440Y-68722240D01*
X145863440Y-68722240D01*
X145014190Y-68722240D01*
X144855440Y-68880990D01*
X144855440Y-69599338D01*
X144639139Y-69509522D01*
X144267173Y-69509198D01*
X144137880Y-69562621D01*
X144137880Y-67345240D01*
X144093602Y-67109923D01*
X143954530Y-66893799D01*
X143819986Y-66801869D01*
X143966841Y-66707370D01*
X144010037Y-66644150D01*
X144199624Y-66833737D01*
X144462407Y-67009323D01*
X144772380Y-67070980D01*
X144916723Y-67070980D01*
X144855440Y-67218930D01*
X144855440Y-68309490D01*
X145014190Y-68468240D01*
X145863440Y-68468240D01*
X145863440Y-68448240D01*
X146117440Y-68448240D01*
X146117440Y-68468240D01*
X146966690Y-68468240D01*
X147125440Y-68309490D01*
X147125440Y-68175811D01*
X147299360Y-68175811D01*
X147299360Y-68516370D01*
X147458110Y-68675120D01*
X149057360Y-68675120D01*
X149057360Y-67825870D01*
X148898610Y-67667120D01*
X147808050Y-67667120D01*
X147574661Y-67763793D01*
X147396033Y-67942422D01*
X147299360Y-68175811D01*
X147125440Y-68175811D01*
X147125440Y-67218930D01*
X147028767Y-66985541D01*
X146850138Y-66806913D01*
X146844312Y-66804500D01*
X147576393Y-66072420D01*
X147928320Y-66072420D01*
X148163637Y-66028142D01*
X148379761Y-65889070D01*
X148485046Y-65734980D01*
X148499320Y-65734980D01*
X148790159Y-65677128D01*
X149036721Y-65512381D01*
X150572212Y-63976890D01*
X167878524Y-63976890D01*
X168048355Y-64386924D01*
X168438642Y-64815183D01*
X168597954Y-64890000D01*
X168438642Y-64964817D01*
X168048355Y-65393076D01*
X167878524Y-65803110D01*
X167999845Y-66033000D01*
X169193000Y-66033000D01*
X169193000Y-63747000D01*
X167999845Y-63747000D01*
X167878524Y-63976890D01*
X150572212Y-63976890D01*
X151419402Y-63129700D01*
X167933781Y-63129700D01*
X167878524Y-63263110D01*
G36*
X141755800Y-71343600D02*
X141755800Y-71993600D01*
X141782159Y-72133686D01*
X141768240Y-72167290D01*
X141768240Y-72332850D01*
X141926990Y-72491600D01*
X142007291Y-72491600D01*
X142151350Y-72590031D01*
X142288360Y-72617776D01*
X142167923Y-72640438D01*
X142004497Y-72745600D01*
X141926990Y-72745600D01*
X141768240Y-72904350D01*
X141768240Y-73069910D01*
X141783508Y-73106771D01*
X141755800Y-73243600D01*
X141755800Y-73893600D01*
X141775309Y-73997280D01*
X140710082Y-73997280D01*
X140736140Y-73868600D01*
X140736140Y-71368600D01*
X140716438Y-71263891D01*
X140963541Y-71366498D01*
X141335507Y-71366822D01*
X141679283Y-71224777D01*
X141805346Y-71098934D01*
X141755800Y-71343600D01*
X141755800Y-71343600D01*
G37*
X141755800Y-71343600D02*
X141755800Y-71993600D01*
X141782159Y-72133686D01*
X141768240Y-72167290D01*
X141768240Y-72332850D01*
X141926990Y-72491600D01*
X142007291Y-72491600D01*
X142151350Y-72590031D01*
X142288360Y-72617776D01*
X142167923Y-72640438D01*
X142004497Y-72745600D01*
X141926990Y-72745600D01*
X141768240Y-72904350D01*
X141768240Y-73069910D01*
X141783508Y-73106771D01*
X141755800Y-73243600D01*
X141755800Y-73893600D01*
X141775309Y-73997280D01*
X140710082Y-73997280D01*
X140736140Y-73868600D01*
X140736140Y-71368600D01*
X140716438Y-71263891D01*
X140963541Y-71366498D01*
X141335507Y-71366822D01*
X141679283Y-71224777D01*
X141805346Y-71098934D01*
X141755800Y-71343600D01*
G36*
X144329420Y-51499770D02*
X144488170Y-51658520D01*
X145737420Y-51658520D01*
X145737420Y-51638520D01*
X145991420Y-51638520D01*
X145991420Y-51658520D01*
X148337420Y-51658520D01*
X148337420Y-51638520D01*
X148591420Y-51638520D01*
X148591420Y-51658520D01*
X150737420Y-51658520D01*
X150737420Y-51638520D01*
X150991420Y-51638520D01*
X150991420Y-51658520D01*
X153337420Y-51658520D01*
X153337420Y-51638520D01*
X153591420Y-51638520D01*
X153591420Y-51658520D01*
X154840670Y-51658520D01*
X154999420Y-51499770D01*
X154999420Y-50710000D01*
X170290000Y-50710000D01*
X170290000Y-54526861D01*
X170170000Y-54502560D01*
X168470000Y-54502560D01*
X168234683Y-54546838D01*
X168018559Y-54685910D01*
X167873569Y-54898110D01*
X167822560Y-55150000D01*
X167822560Y-56850000D01*
X167866838Y-57085317D01*
X168005910Y-57301441D01*
X168218110Y-57446431D01*
X168285541Y-57460086D01*
X168240853Y-57489946D01*
X167918946Y-57971715D01*
X167805907Y-58540000D01*
X167918946Y-59108285D01*
X168240853Y-59590054D01*
X168560000Y-59803301D01*
X168560000Y-59816699D01*
X168240853Y-60029946D01*
X167918946Y-60511715D01*
X167805907Y-61080000D01*
X167878790Y-61446408D01*
X167715498Y-61609700D01*
X166898599Y-61609700D01*
X166898762Y-61422533D01*
X166756717Y-61078757D01*
X166723600Y-61045582D01*
X166723600Y-58869580D01*
X166665748Y-58578741D01*
X166501001Y-58332179D01*
X165495161Y-57326339D01*
X165248599Y-57161592D01*
X164957760Y-57103740D01*
X161772600Y-57103740D01*
X161481761Y-57161592D01*
X161235199Y-57326339D01*
X161157580Y-57403958D01*
X161157580Y-53648325D01*
X161299021Y-53557310D01*
X161444011Y-53345110D01*
X161495020Y-53093220D01*
X161495020Y-52528970D01*
X163012580Y-52528970D01*
X163012580Y-53219529D01*
X163109253Y-53452918D01*
X163287881Y-53631547D01*
X163521270Y-53728220D01*
X163861830Y-53728220D01*
X164020580Y-53569470D01*
X164020580Y-52370220D01*
X164274580Y-52370220D01*
X164274580Y-53569470D01*
X164433330Y-53728220D01*
X164773890Y-53728220D01*
X165007279Y-53631547D01*
X165185907Y-53452918D01*
X165282580Y-53219529D01*
X165282580Y-52528970D01*
X165123830Y-52370220D01*
X164274580Y-52370220D01*
X164020580Y-52370220D01*
X163171330Y-52370220D01*
X163012580Y-52528970D01*
X161495020Y-52528970D01*
X161495020Y-51393220D01*
X161471254Y-51266911D01*
X163012580Y-51266911D01*
X163012580Y-51957470D01*
X163171330Y-52116220D01*
X164020580Y-52116220D01*
X164020580Y-50916970D01*
X164274580Y-50916970D01*
X164274580Y-52116220D01*
X165123830Y-52116220D01*
X165282580Y-51957470D01*
X165282580Y-51266911D01*
X165185907Y-51033522D01*
X165007279Y-50854893D01*
X164773890Y-50758220D01*
X164433330Y-50758220D01*
X164274580Y-50916970D01*
X164020580Y-50916970D01*
X163861830Y-50758220D01*
X163521270Y-50758220D01*
X163287881Y-50854893D01*
X163109253Y-51033522D01*
X163012580Y-51266911D01*
X161471254Y-51266911D01*
X161450742Y-51157903D01*
X161311670Y-50941779D01*
X161099470Y-50796789D01*
X160847580Y-50745780D01*
X159847580Y-50745780D01*
X159612263Y-50790058D01*
X159396139Y-50929130D01*
X159251149Y-51141330D01*
X159200140Y-51393220D01*
X159200140Y-53093220D01*
X159244418Y-53328537D01*
X159383490Y-53544661D01*
X159537580Y-53649946D01*
X159537580Y-58838115D01*
X159396139Y-58929130D01*
X159251149Y-59141330D01*
X159200140Y-59393220D01*
X159200140Y-61093220D01*
X159244418Y-61328537D01*
X159383490Y-61544661D01*
X159478678Y-61609700D01*
X157631540Y-61609700D01*
X157631540Y-61451870D01*
X157472790Y-61293120D01*
X156423540Y-61293120D01*
X156423540Y-61313120D01*
X156169540Y-61313120D01*
X156169540Y-61293120D01*
X156149540Y-61293120D01*
X156149540Y-61039120D01*
X156169540Y-61039120D01*
X156169540Y-61019120D01*
X156423540Y-61019120D01*
X156423540Y-61039120D01*
X157472790Y-61039120D01*
X157631540Y-60880370D01*
X157631540Y-60439811D01*
X157566036Y-60281669D01*
X157811361Y-60383538D01*
X158183327Y-60383862D01*
X158527103Y-60241817D01*
X158790352Y-59979027D01*
X158932998Y-59635499D01*
X158933322Y-59263533D01*
X158791277Y-58919757D01*
X158528487Y-58656508D01*
X158184959Y-58513862D01*
X157812993Y-58513538D01*
X157544226Y-58624590D01*
X157460630Y-58494679D01*
X157248430Y-58349689D01*
X157106540Y-58320956D01*
X157106540Y-58110300D01*
X157044882Y-57800326D01*
X156912740Y-57602562D01*
X156869296Y-57537543D01*
X156162996Y-56831244D01*
X156051996Y-56757076D01*
X155900214Y-56655658D01*
X155590240Y-56594000D01*
X153782105Y-56594000D01*
X153782202Y-56482233D01*
X153640157Y-56138457D01*
X153377367Y-55875208D01*
X153125252Y-55770520D01*
X153940729Y-55770520D01*
X154174118Y-55673847D01*
X154352747Y-55495219D01*
X154449420Y-55261830D01*
X154449420Y-54621270D01*
X154290670Y-54462520D01*
X152891420Y-54462520D01*
X152891420Y-54482520D01*
X152637420Y-54482520D01*
X152637420Y-54462520D01*
X152617420Y-54462520D01*
X152617420Y-54208520D01*
X152637420Y-54208520D01*
X152637420Y-54188520D01*
X152891420Y-54188520D01*
X152891420Y-54208520D01*
X154290670Y-54208520D01*
X154449420Y-54049770D01*
X154449420Y-53409210D01*
X154433394Y-53370520D01*
X154490729Y-53370520D01*
X154724118Y-53273847D01*
X154902747Y-53095219D01*
X154999420Y-52861830D01*
X154999420Y-52071270D01*
X154840670Y-51912520D01*
X153591420Y-51912520D01*
X153591420Y-51932520D01*
X153337420Y-51932520D01*
X153337420Y-51912520D01*
X150991420Y-51912520D01*
X150991420Y-51932520D01*
X150737420Y-51932520D01*
X150737420Y-51912520D01*
X148591420Y-51912520D01*
X148591420Y-51932520D01*
X148337420Y-51932520D01*
X148337420Y-51912520D01*
X145991420Y-51912520D01*
X145991420Y-51932520D01*
X145737420Y-51932520D01*
X145737420Y-51912520D01*
X144488170Y-51912520D01*
X144329420Y-52071270D01*
X144329420Y-52861830D01*
X144426093Y-53095219D01*
X144604722Y-53273847D01*
X144838111Y-53370520D01*
X144895446Y-53370520D01*
X144879420Y-53409210D01*
X144879420Y-54049770D01*
X145038170Y-54208520D01*
X146437420Y-54208520D01*
X146437420Y-54188520D01*
X146691420Y-54188520D01*
X146691420Y-54208520D01*
X146711420Y-54208520D01*
X146711420Y-54462520D01*
X146691420Y-54462520D01*
X146691420Y-55611770D01*
X146850170Y-55770520D01*
X147740729Y-55770520D01*
X147889420Y-55708930D01*
X148038111Y-55770520D01*
X148105670Y-55770520D01*
X148264420Y-55611770D01*
X148264420Y-55453453D01*
X148350330Y-55586961D01*
X148562530Y-55731951D01*
X148590205Y-55737555D01*
X148623170Y-55770520D01*
X148690729Y-55770520D01*
X148711173Y-55762052D01*
X148814420Y-55782960D01*
X148862040Y-55782960D01*
X148862040Y-57210960D01*
X148923698Y-57520934D01*
X149058634Y-57722879D01*
X149099284Y-57783716D01*
X150052051Y-58736484D01*
X150030099Y-58750610D01*
X149885109Y-58962810D01*
X149834100Y-59214700D01*
X149834100Y-59654700D01*
X149814449Y-59654700D01*
X149691199Y-59603522D01*
X149319233Y-59603198D01*
X149128980Y-59681809D01*
X149128980Y-59214700D01*
X149084702Y-58979383D01*
X148945630Y-58763259D01*
X148733430Y-58618269D01*
X148481540Y-58567260D01*
X147581540Y-58567260D01*
X147346223Y-58611538D01*
X147130099Y-58750610D01*
X146985109Y-58962810D01*
X146934100Y-59214700D01*
X146934100Y-60286020D01*
X146646065Y-60286020D01*
X146555050Y-60144579D01*
X146342850Y-59999589D01*
X146090960Y-59948580D01*
X143590960Y-59948580D01*
X143355643Y-59992858D01*
X143139519Y-60131930D01*
X142994529Y-60344130D01*
X142943520Y-60596020D01*
X142943520Y-61596020D01*
X142983460Y-61808280D01*
X142551150Y-61808280D01*
X142392400Y-61967030D01*
X142392400Y-62766280D01*
X143991650Y-62766280D01*
X144150400Y-62607530D01*
X144150400Y-62316971D01*
X144119951Y-62243460D01*
X144842888Y-62243460D01*
X145530880Y-62931453D01*
X145530880Y-63424980D01*
X145575158Y-63660297D01*
X145714230Y-63876421D01*
X145841006Y-63963044D01*
X145755320Y-64048730D01*
X145755320Y-64847980D01*
X145775320Y-64847980D01*
X145775320Y-65101980D01*
X145755320Y-65101980D01*
X145755320Y-65121980D01*
X145501320Y-65121980D01*
X145501320Y-65101980D01*
X144752070Y-65101980D01*
X144731223Y-65122827D01*
X144614654Y-65044938D01*
X144304680Y-64983280D01*
X144038331Y-64983280D01*
X143979490Y-64891839D01*
X143767290Y-64746849D01*
X143515400Y-64695840D01*
X141015400Y-64695840D01*
X140780083Y-64740118D01*
X140563959Y-64879190D01*
X140418969Y-65091390D01*
X140371637Y-65325120D01*
X139505705Y-65325120D01*
X139414690Y-65183679D01*
X139202490Y-65038689D01*
X138950600Y-64987680D01*
X138148673Y-64987680D01*
X137559664Y-64398671D01*
X144593320Y-64398671D01*
X144593320Y-64689230D01*
X144752070Y-64847980D01*
X145501320Y-64847980D01*
X145501320Y-64048730D01*
X145342570Y-63889980D01*
X145102010Y-63889980D01*
X144868621Y-63986653D01*
X144689993Y-64165282D01*
X144593320Y-64398671D01*
X137559664Y-64398671D01*
X137516352Y-64355360D01*
X138552000Y-64355360D01*
X138787317Y-64311082D01*
X139003441Y-64172010D01*
X139148431Y-63959810D01*
X139199440Y-63707920D01*
X139199440Y-63179030D01*
X140380400Y-63179030D01*
X140380400Y-63469589D01*
X140477073Y-63702978D01*
X140655701Y-63881607D01*
X140889090Y-63978280D01*
X141979650Y-63978280D01*
X142138400Y-63819530D01*
X142138400Y-63020280D01*
X142392400Y-63020280D01*
X142392400Y-63819530D01*
X142551150Y-63978280D01*
X143641710Y-63978280D01*
X143875099Y-63881607D01*
X144053727Y-63702978D01*
X144150400Y-63469589D01*
X144150400Y-63179030D01*
X143991650Y-63020280D01*
X142392400Y-63020280D01*
X142138400Y-63020280D01*
X140539150Y-63020280D01*
X140380400Y-63179030D01*
X139199440Y-63179030D01*
X139199440Y-62316971D01*
X140380400Y-62316971D01*
X140380400Y-62607530D01*
X140539150Y-62766280D01*
X142138400Y-62766280D01*
X142138400Y-61967030D01*
X141979650Y-61808280D01*
X140889090Y-61808280D01*
X140655701Y-61904953D01*
X140477073Y-62083582D01*
X140380400Y-62316971D01*
X139199440Y-62316971D01*
X139199440Y-61707920D01*
X139155162Y-61472603D01*
X139016090Y-61256479D01*
X138860912Y-61150451D01*
X138927552Y-61083927D01*
X139070198Y-60740399D01*
X139070522Y-60368433D01*
X138967917Y-60120111D01*
X139075278Y-59861559D01*
X139075602Y-59489593D01*
X138978258Y-59254002D01*
X139080358Y-59008119D01*
X139080682Y-58636153D01*
X138975574Y-58381770D01*
X142955960Y-58381770D01*
X142955960Y-58722329D01*
X143052633Y-58955718D01*
X143231261Y-59134347D01*
X143464650Y-59231020D01*
X144555210Y-59231020D01*
X144713960Y-59072270D01*
X144713960Y-58223020D01*
X144967960Y-58223020D01*
X144967960Y-59072270D01*
X145126710Y-59231020D01*
X146217270Y-59231020D01*
X146450659Y-59134347D01*
X146629287Y-58955718D01*
X146725960Y-58722329D01*
X146725960Y-58381770D01*
X146567210Y-58223020D01*
X144967960Y-58223020D01*
X144713960Y-58223020D01*
X143114710Y-58223020D01*
X142955960Y-58381770D01*
X138975574Y-58381770D01*
X138938637Y-58292377D01*
X138677943Y-58031227D01*
X138825000Y-57884170D01*
X138825000Y-56534920D01*
X139079000Y-56534920D01*
X139079000Y-57884170D01*
X139237750Y-58042920D01*
X139828310Y-58042920D01*
X140061699Y-57946247D01*
X140240327Y-57767618D01*
X140337000Y-57534229D01*
X140337000Y-57469711D01*
X142955960Y-57469711D01*
X142955960Y-57810270D01*
X143114710Y-57969020D01*
X144713960Y-57969020D01*
X144713960Y-57119770D01*
X144967960Y-57119770D01*
X144967960Y-57969020D01*
X146567210Y-57969020D01*
X146725960Y-57810270D01*
X146725960Y-57469711D01*
X146629287Y-57236322D01*
X146450659Y-57057693D01*
X146217270Y-56961020D01*
X145126710Y-56961020D01*
X144967960Y-57119770D01*
X144713960Y-57119770D01*
X144555210Y-56961020D01*
X143464650Y-56961020D01*
X143231261Y-57057693D01*
X143052633Y-57236322D01*
X142955960Y-57469711D01*
X140337000Y-57469711D01*
X140337000Y-56693670D01*
X140178250Y-56534920D01*
X139079000Y-56534920D01*
X138825000Y-56534920D01*
X138805000Y-56534920D01*
X138805000Y-56280920D01*
X138825000Y-56280920D01*
X138825000Y-54931670D01*
X139079000Y-54931670D01*
X139079000Y-56280920D01*
X140178250Y-56280920D01*
X140337000Y-56122170D01*
X140337000Y-55281611D01*
X140240327Y-55048222D01*
X140061699Y-54869593D01*
X139828310Y-54772920D01*
X139237750Y-54772920D01*
X139079000Y-54931670D01*
X138825000Y-54931670D01*
X138666250Y-54772920D01*
X138075690Y-54772920D01*
X137842301Y-54869593D01*
X137800340Y-54911554D01*
X137719444Y-54856280D01*
X137762309Y-54856280D01*
X137995698Y-54759607D01*
X138134035Y-54621270D01*
X144879420Y-54621270D01*
X144879420Y-55261830D01*
X144976093Y-55495219D01*
X145154722Y-55673847D01*
X145388111Y-55770520D01*
X146278670Y-55770520D01*
X146437420Y-55611770D01*
X146437420Y-54462520D01*
X145038170Y-54462520D01*
X144879420Y-54621270D01*
X138134035Y-54621270D01*
X138174327Y-54580979D01*
X138271000Y-54347590D01*
X138271000Y-53707030D01*
X138112250Y-53548280D01*
X137263000Y-53548280D01*
X137263000Y-53568280D01*
X137009000Y-53568280D01*
X137009000Y-53548280D01*
X136159750Y-53548280D01*
X136001000Y-53707030D01*
X136001000Y-54347590D01*
X136097673Y-54580979D01*
X136276302Y-54759607D01*
X136278410Y-54760480D01*
X135902000Y-54760480D01*
X135666683Y-54804758D01*
X135500523Y-54911679D01*
X135353890Y-54811489D01*
X135102000Y-54760480D01*
X134970717Y-54760480D01*
X135087441Y-54685370D01*
X135232431Y-54473170D01*
X135283440Y-54221280D01*
X135283440Y-52621280D01*
X135259674Y-52494970D01*
X136001000Y-52494970D01*
X136001000Y-53135530D01*
X136159750Y-53294280D01*
X137009000Y-53294280D01*
X137009000Y-52145030D01*
X137263000Y-52145030D01*
X137263000Y-53294280D01*
X138112250Y-53294280D01*
X138271000Y-53135530D01*
X138271000Y-52494970D01*
X138174327Y-52261581D01*
X137995698Y-52082953D01*
X137762309Y-51986280D01*
X137421750Y-51986280D01*
X137263000Y-52145030D01*
X137009000Y-52145030D01*
X136850250Y-51986280D01*
X136509691Y-51986280D01*
X136276302Y-52082953D01*
X136097673Y-52261581D01*
X136001000Y-52494970D01*
X135259674Y-52494970D01*
X135239162Y-52385963D01*
X135100090Y-52169839D01*
X134887890Y-52024849D01*
X134636000Y-51973840D01*
X133636000Y-51973840D01*
X133400683Y-52018118D01*
X133184559Y-52157190D01*
X133039569Y-52369390D01*
X132988560Y-52621280D01*
X132988560Y-53423207D01*
X132360530Y-54051238D01*
X132430638Y-53882399D01*
X132430962Y-53510433D01*
X132288917Y-53166657D01*
X132026127Y-52903408D01*
X131682599Y-52760762D01*
X131310633Y-52760438D01*
X130966857Y-52902483D01*
X130703608Y-53165273D01*
X130591100Y-53436221D01*
X130426713Y-53436078D01*
X130082937Y-53578123D01*
X129819688Y-53840913D01*
X129677042Y-54184441D01*
X129676739Y-54532275D01*
X129530000Y-54502560D01*
X127830000Y-54502560D01*
X127710000Y-54525140D01*
X127710000Y-50710000D01*
X144329420Y-50710000D01*
X144329420Y-51499770D01*
X144329420Y-51499770D01*
G37*
X144329420Y-51499770D02*
X144488170Y-51658520D01*
X145737420Y-51658520D01*
X145737420Y-51638520D01*
X145991420Y-51638520D01*
X145991420Y-51658520D01*
X148337420Y-51658520D01*
X148337420Y-51638520D01*
X148591420Y-51638520D01*
X148591420Y-51658520D01*
X150737420Y-51658520D01*
X150737420Y-51638520D01*
X150991420Y-51638520D01*
X150991420Y-51658520D01*
X153337420Y-51658520D01*
X153337420Y-51638520D01*
X153591420Y-51638520D01*
X153591420Y-51658520D01*
X154840670Y-51658520D01*
X154999420Y-51499770D01*
X154999420Y-50710000D01*
X170290000Y-50710000D01*
X170290000Y-54526861D01*
X170170000Y-54502560D01*
X168470000Y-54502560D01*
X168234683Y-54546838D01*
X168018559Y-54685910D01*
X167873569Y-54898110D01*
X167822560Y-55150000D01*
X167822560Y-56850000D01*
X167866838Y-57085317D01*
X168005910Y-57301441D01*
X168218110Y-57446431D01*
X168285541Y-57460086D01*
X168240853Y-57489946D01*
X167918946Y-57971715D01*
X167805907Y-58540000D01*
X167918946Y-59108285D01*
X168240853Y-59590054D01*
X168560000Y-59803301D01*
X168560000Y-59816699D01*
X168240853Y-60029946D01*
X167918946Y-60511715D01*
X167805907Y-61080000D01*
X167878790Y-61446408D01*
X167715498Y-61609700D01*
X166898599Y-61609700D01*
X166898762Y-61422533D01*
X166756717Y-61078757D01*
X166723600Y-61045582D01*
X166723600Y-58869580D01*
X166665748Y-58578741D01*
X166501001Y-58332179D01*
X165495161Y-57326339D01*
X165248599Y-57161592D01*
X164957760Y-57103740D01*
X161772600Y-57103740D01*
X161481761Y-57161592D01*
X161235199Y-57326339D01*
X161157580Y-57403958D01*
X161157580Y-53648325D01*
X161299021Y-53557310D01*
X161444011Y-53345110D01*
X161495020Y-53093220D01*
X161495020Y-52528970D01*
X163012580Y-52528970D01*
X163012580Y-53219529D01*
X163109253Y-53452918D01*
X163287881Y-53631547D01*
X163521270Y-53728220D01*
X163861830Y-53728220D01*
X164020580Y-53569470D01*
X164020580Y-52370220D01*
X164274580Y-52370220D01*
X164274580Y-53569470D01*
X164433330Y-53728220D01*
X164773890Y-53728220D01*
X165007279Y-53631547D01*
X165185907Y-53452918D01*
X165282580Y-53219529D01*
X165282580Y-52528970D01*
X165123830Y-52370220D01*
X164274580Y-52370220D01*
X164020580Y-52370220D01*
X163171330Y-52370220D01*
X163012580Y-52528970D01*
X161495020Y-52528970D01*
X161495020Y-51393220D01*
X161471254Y-51266911D01*
X163012580Y-51266911D01*
X163012580Y-51957470D01*
X163171330Y-52116220D01*
X164020580Y-52116220D01*
X164020580Y-50916970D01*
X164274580Y-50916970D01*
X164274580Y-52116220D01*
X165123830Y-52116220D01*
X165282580Y-51957470D01*
X165282580Y-51266911D01*
X165185907Y-51033522D01*
X165007279Y-50854893D01*
X164773890Y-50758220D01*
X164433330Y-50758220D01*
X164274580Y-50916970D01*
X164020580Y-50916970D01*
X163861830Y-50758220D01*
X163521270Y-50758220D01*
X163287881Y-50854893D01*
X163109253Y-51033522D01*
X163012580Y-51266911D01*
X161471254Y-51266911D01*
X161450742Y-51157903D01*
X161311670Y-50941779D01*
X161099470Y-50796789D01*
X160847580Y-50745780D01*
X159847580Y-50745780D01*
X159612263Y-50790058D01*
X159396139Y-50929130D01*
X159251149Y-51141330D01*
X159200140Y-51393220D01*
X159200140Y-53093220D01*
X159244418Y-53328537D01*
X159383490Y-53544661D01*
X159537580Y-53649946D01*
X159537580Y-58838115D01*
X159396139Y-58929130D01*
X159251149Y-59141330D01*
X159200140Y-59393220D01*
X159200140Y-61093220D01*
X159244418Y-61328537D01*
X159383490Y-61544661D01*
X159478678Y-61609700D01*
X157631540Y-61609700D01*
X157631540Y-61451870D01*
X157472790Y-61293120D01*
X156423540Y-61293120D01*
X156423540Y-61313120D01*
X156169540Y-61313120D01*
X156169540Y-61293120D01*
X156149540Y-61293120D01*
X156149540Y-61039120D01*
X156169540Y-61039120D01*
X156169540Y-61019120D01*
X156423540Y-61019120D01*
X156423540Y-61039120D01*
X157472790Y-61039120D01*
X157631540Y-60880370D01*
X157631540Y-60439811D01*
X157566036Y-60281669D01*
X157811361Y-60383538D01*
X158183327Y-60383862D01*
X158527103Y-60241817D01*
X158790352Y-59979027D01*
X158932998Y-59635499D01*
X158933322Y-59263533D01*
X158791277Y-58919757D01*
X158528487Y-58656508D01*
X158184959Y-58513862D01*
X157812993Y-58513538D01*
X157544226Y-58624590D01*
X157460630Y-58494679D01*
X157248430Y-58349689D01*
X157106540Y-58320956D01*
X157106540Y-58110300D01*
X157044882Y-57800326D01*
X156912740Y-57602562D01*
X156869296Y-57537543D01*
X156162996Y-56831244D01*
X156051996Y-56757076D01*
X155900214Y-56655658D01*
X155590240Y-56594000D01*
X153782105Y-56594000D01*
X153782202Y-56482233D01*
X153640157Y-56138457D01*
X153377367Y-55875208D01*
X153125252Y-55770520D01*
X153940729Y-55770520D01*
X154174118Y-55673847D01*
X154352747Y-55495219D01*
X154449420Y-55261830D01*
X154449420Y-54621270D01*
X154290670Y-54462520D01*
X152891420Y-54462520D01*
X152891420Y-54482520D01*
X152637420Y-54482520D01*
X152637420Y-54462520D01*
X152617420Y-54462520D01*
X152617420Y-54208520D01*
X152637420Y-54208520D01*
X152637420Y-54188520D01*
X152891420Y-54188520D01*
X152891420Y-54208520D01*
X154290670Y-54208520D01*
X154449420Y-54049770D01*
X154449420Y-53409210D01*
X154433394Y-53370520D01*
X154490729Y-53370520D01*
X154724118Y-53273847D01*
X154902747Y-53095219D01*
X154999420Y-52861830D01*
X154999420Y-52071270D01*
X154840670Y-51912520D01*
X153591420Y-51912520D01*
X153591420Y-51932520D01*
X153337420Y-51932520D01*
X153337420Y-51912520D01*
X150991420Y-51912520D01*
X150991420Y-51932520D01*
X150737420Y-51932520D01*
X150737420Y-51912520D01*
X148591420Y-51912520D01*
X148591420Y-51932520D01*
X148337420Y-51932520D01*
X148337420Y-51912520D01*
X145991420Y-51912520D01*
X145991420Y-51932520D01*
X145737420Y-51932520D01*
X145737420Y-51912520D01*
X144488170Y-51912520D01*
X144329420Y-52071270D01*
X144329420Y-52861830D01*
X144426093Y-53095219D01*
X144604722Y-53273847D01*
X144838111Y-53370520D01*
X144895446Y-53370520D01*
X144879420Y-53409210D01*
X144879420Y-54049770D01*
X145038170Y-54208520D01*
X146437420Y-54208520D01*
X146437420Y-54188520D01*
X146691420Y-54188520D01*
X146691420Y-54208520D01*
X146711420Y-54208520D01*
X146711420Y-54462520D01*
X146691420Y-54462520D01*
X146691420Y-55611770D01*
X146850170Y-55770520D01*
X147740729Y-55770520D01*
X147889420Y-55708930D01*
X148038111Y-55770520D01*
X148105670Y-55770520D01*
X148264420Y-55611770D01*
X148264420Y-55453453D01*
X148350330Y-55586961D01*
X148562530Y-55731951D01*
X148590205Y-55737555D01*
X148623170Y-55770520D01*
X148690729Y-55770520D01*
X148711173Y-55762052D01*
X148814420Y-55782960D01*
X148862040Y-55782960D01*
X148862040Y-57210960D01*
X148923698Y-57520934D01*
X149058634Y-57722879D01*
X149099284Y-57783716D01*
X150052051Y-58736484D01*
X150030099Y-58750610D01*
X149885109Y-58962810D01*
X149834100Y-59214700D01*
X149834100Y-59654700D01*
X149814449Y-59654700D01*
X149691199Y-59603522D01*
X149319233Y-59603198D01*
X149128980Y-59681809D01*
X149128980Y-59214700D01*
X149084702Y-58979383D01*
X148945630Y-58763259D01*
X148733430Y-58618269D01*
X148481540Y-58567260D01*
X147581540Y-58567260D01*
X147346223Y-58611538D01*
X147130099Y-58750610D01*
X146985109Y-58962810D01*
X146934100Y-59214700D01*
X146934100Y-60286020D01*
X146646065Y-60286020D01*
X146555050Y-60144579D01*
X146342850Y-59999589D01*
X146090960Y-59948580D01*
X143590960Y-59948580D01*
X143355643Y-59992858D01*
X143139519Y-60131930D01*
X142994529Y-60344130D01*
X142943520Y-60596020D01*
X142943520Y-61596020D01*
X142983460Y-61808280D01*
X142551150Y-61808280D01*
X142392400Y-61967030D01*
X142392400Y-62766280D01*
X143991650Y-62766280D01*
X144150400Y-62607530D01*
X144150400Y-62316971D01*
X144119951Y-62243460D01*
X144842888Y-62243460D01*
X145530880Y-62931453D01*
X145530880Y-63424980D01*
X145575158Y-63660297D01*
X145714230Y-63876421D01*
X145841006Y-63963044D01*
X145755320Y-64048730D01*
X145755320Y-64847980D01*
X145775320Y-64847980D01*
X145775320Y-65101980D01*
X145755320Y-65101980D01*
X145755320Y-65121980D01*
X145501320Y-65121980D01*
X145501320Y-65101980D01*
X144752070Y-65101980D01*
X144731223Y-65122827D01*
X144614654Y-65044938D01*
X144304680Y-64983280D01*
X144038331Y-64983280D01*
X143979490Y-64891839D01*
X143767290Y-64746849D01*
X143515400Y-64695840D01*
X141015400Y-64695840D01*
X140780083Y-64740118D01*
X140563959Y-64879190D01*
X140418969Y-65091390D01*
X140371637Y-65325120D01*
X139505705Y-65325120D01*
X139414690Y-65183679D01*
X139202490Y-65038689D01*
X138950600Y-64987680D01*
X138148673Y-64987680D01*
X137559664Y-64398671D01*
X144593320Y-64398671D01*
X144593320Y-64689230D01*
X144752070Y-64847980D01*
X145501320Y-64847980D01*
X145501320Y-64048730D01*
X145342570Y-63889980D01*
X145102010Y-63889980D01*
X144868621Y-63986653D01*
X144689993Y-64165282D01*
X144593320Y-64398671D01*
X137559664Y-64398671D01*
X137516352Y-64355360D01*
X138552000Y-64355360D01*
X138787317Y-64311082D01*
X139003441Y-64172010D01*
X139148431Y-63959810D01*
X139199440Y-63707920D01*
X139199440Y-63179030D01*
X140380400Y-63179030D01*
X140380400Y-63469589D01*
X140477073Y-63702978D01*
X140655701Y-63881607D01*
X140889090Y-63978280D01*
X141979650Y-63978280D01*
X142138400Y-63819530D01*
X142138400Y-63020280D01*
X142392400Y-63020280D01*
X142392400Y-63819530D01*
X142551150Y-63978280D01*
X143641710Y-63978280D01*
X143875099Y-63881607D01*
X144053727Y-63702978D01*
X144150400Y-63469589D01*
X144150400Y-63179030D01*
X143991650Y-63020280D01*
X142392400Y-63020280D01*
X142138400Y-63020280D01*
X140539150Y-63020280D01*
X140380400Y-63179030D01*
X139199440Y-63179030D01*
X139199440Y-62316971D01*
X140380400Y-62316971D01*
X140380400Y-62607530D01*
X140539150Y-62766280D01*
X142138400Y-62766280D01*
X142138400Y-61967030D01*
X141979650Y-61808280D01*
X140889090Y-61808280D01*
X140655701Y-61904953D01*
X140477073Y-62083582D01*
X140380400Y-62316971D01*
X139199440Y-62316971D01*
X139199440Y-61707920D01*
X139155162Y-61472603D01*
X139016090Y-61256479D01*
X138860912Y-61150451D01*
X138927552Y-61083927D01*
X139070198Y-60740399D01*
X139070522Y-60368433D01*
X138967917Y-60120111D01*
X139075278Y-59861559D01*
X139075602Y-59489593D01*
X138978258Y-59254002D01*
X139080358Y-59008119D01*
X139080682Y-58636153D01*
X138975574Y-58381770D01*
X142955960Y-58381770D01*
X142955960Y-58722329D01*
X143052633Y-58955718D01*
X143231261Y-59134347D01*
X143464650Y-59231020D01*
X144555210Y-59231020D01*
X144713960Y-59072270D01*
X144713960Y-58223020D01*
X144967960Y-58223020D01*
X144967960Y-59072270D01*
X145126710Y-59231020D01*
X146217270Y-59231020D01*
X146450659Y-59134347D01*
X146629287Y-58955718D01*
X146725960Y-58722329D01*
X146725960Y-58381770D01*
X146567210Y-58223020D01*
X144967960Y-58223020D01*
X144713960Y-58223020D01*
X143114710Y-58223020D01*
X142955960Y-58381770D01*
X138975574Y-58381770D01*
X138938637Y-58292377D01*
X138677943Y-58031227D01*
X138825000Y-57884170D01*
X138825000Y-56534920D01*
X139079000Y-56534920D01*
X139079000Y-57884170D01*
X139237750Y-58042920D01*
X139828310Y-58042920D01*
X140061699Y-57946247D01*
X140240327Y-57767618D01*
X140337000Y-57534229D01*
X140337000Y-57469711D01*
X142955960Y-57469711D01*
X142955960Y-57810270D01*
X143114710Y-57969020D01*
X144713960Y-57969020D01*
X144713960Y-57119770D01*
X144967960Y-57119770D01*
X144967960Y-57969020D01*
X146567210Y-57969020D01*
X146725960Y-57810270D01*
X146725960Y-57469711D01*
X146629287Y-57236322D01*
X146450659Y-57057693D01*
X146217270Y-56961020D01*
X145126710Y-56961020D01*
X144967960Y-57119770D01*
X144713960Y-57119770D01*
X144555210Y-56961020D01*
X143464650Y-56961020D01*
X143231261Y-57057693D01*
X143052633Y-57236322D01*
X142955960Y-57469711D01*
X140337000Y-57469711D01*
X140337000Y-56693670D01*
X140178250Y-56534920D01*
X139079000Y-56534920D01*
X138825000Y-56534920D01*
X138805000Y-56534920D01*
X138805000Y-56280920D01*
X138825000Y-56280920D01*
X138825000Y-54931670D01*
X139079000Y-54931670D01*
X139079000Y-56280920D01*
X140178250Y-56280920D01*
X140337000Y-56122170D01*
X140337000Y-55281611D01*
X140240327Y-55048222D01*
X140061699Y-54869593D01*
X139828310Y-54772920D01*
X139237750Y-54772920D01*
X139079000Y-54931670D01*
X138825000Y-54931670D01*
X138666250Y-54772920D01*
X138075690Y-54772920D01*
X137842301Y-54869593D01*
X137800340Y-54911554D01*
X137719444Y-54856280D01*
X137762309Y-54856280D01*
X137995698Y-54759607D01*
X138134035Y-54621270D01*
X144879420Y-54621270D01*
X144879420Y-55261830D01*
X144976093Y-55495219D01*
X145154722Y-55673847D01*
X145388111Y-55770520D01*
X146278670Y-55770520D01*
X146437420Y-55611770D01*
X146437420Y-54462520D01*
X145038170Y-54462520D01*
X144879420Y-54621270D01*
X138134035Y-54621270D01*
X138174327Y-54580979D01*
X138271000Y-54347590D01*
X138271000Y-53707030D01*
X138112250Y-53548280D01*
X137263000Y-53548280D01*
X137263000Y-53568280D01*
X137009000Y-53568280D01*
X137009000Y-53548280D01*
X136159750Y-53548280D01*
X136001000Y-53707030D01*
X136001000Y-54347590D01*
X136097673Y-54580979D01*
X136276302Y-54759607D01*
X136278410Y-54760480D01*
X135902000Y-54760480D01*
X135666683Y-54804758D01*
X135500523Y-54911679D01*
X135353890Y-54811489D01*
X135102000Y-54760480D01*
X134970717Y-54760480D01*
X135087441Y-54685370D01*
X135232431Y-54473170D01*
X135283440Y-54221280D01*
X135283440Y-52621280D01*
X135259674Y-52494970D01*
X136001000Y-52494970D01*
X136001000Y-53135530D01*
X136159750Y-53294280D01*
X137009000Y-53294280D01*
X137009000Y-52145030D01*
X137263000Y-52145030D01*
X137263000Y-53294280D01*
X138112250Y-53294280D01*
X138271000Y-53135530D01*
X138271000Y-52494970D01*
X138174327Y-52261581D01*
X137995698Y-52082953D01*
X137762309Y-51986280D01*
X137421750Y-51986280D01*
X137263000Y-52145030D01*
X137009000Y-52145030D01*
X136850250Y-51986280D01*
X136509691Y-51986280D01*
X136276302Y-52082953D01*
X136097673Y-52261581D01*
X136001000Y-52494970D01*
X135259674Y-52494970D01*
X135239162Y-52385963D01*
X135100090Y-52169839D01*
X134887890Y-52024849D01*
X134636000Y-51973840D01*
X133636000Y-51973840D01*
X133400683Y-52018118D01*
X133184559Y-52157190D01*
X133039569Y-52369390D01*
X132988560Y-52621280D01*
X132988560Y-53423207D01*
X132360530Y-54051238D01*
X132430638Y-53882399D01*
X132430962Y-53510433D01*
X132288917Y-53166657D01*
X132026127Y-52903408D01*
X131682599Y-52760762D01*
X131310633Y-52760438D01*
X130966857Y-52902483D01*
X130703608Y-53165273D01*
X130591100Y-53436221D01*
X130426713Y-53436078D01*
X130082937Y-53578123D01*
X129819688Y-53840913D01*
X129677042Y-54184441D01*
X129676739Y-54532275D01*
X129530000Y-54502560D01*
X127830000Y-54502560D01*
X127710000Y-54525140D01*
X127710000Y-50710000D01*
X144329420Y-50710000D01*
X144329420Y-51499770D01*
G36*
X164779947Y-58760729D02*
X164773890Y-58758220D01*
X164433330Y-58758220D01*
X164274580Y-58916970D01*
X164274580Y-60116220D01*
X164294580Y-60116220D01*
X164294580Y-60370220D01*
X164274580Y-60370220D01*
X164274580Y-60390220D01*
X164020580Y-60390220D01*
X164020580Y-60370220D01*
X163171330Y-60370220D01*
X163012580Y-60528970D01*
X163012580Y-61219529D01*
X163109253Y-61452918D01*
X163266034Y-61609700D01*
X161217605Y-61609700D01*
X161299021Y-61557310D01*
X161444011Y-61345110D01*
X161495020Y-61093220D01*
X161495020Y-59393220D01*
X161471254Y-59266911D01*
X163012580Y-59266911D01*
X163012580Y-59957470D01*
X163171330Y-60116220D01*
X164020580Y-60116220D01*
X164020580Y-58916970D01*
X163861830Y-58758220D01*
X163521270Y-58758220D01*
X163287881Y-58854893D01*
X163109253Y-59033522D01*
X163012580Y-59266911D01*
X161471254Y-59266911D01*
X161466974Y-59244168D01*
X162087402Y-58623740D01*
X164642958Y-58623740D01*
X164779947Y-58760729D01*
X164779947Y-58760729D01*
G37*
X164779947Y-58760729D02*
X164773890Y-58758220D01*
X164433330Y-58758220D01*
X164274580Y-58916970D01*
X164274580Y-60116220D01*
X164294580Y-60116220D01*
X164294580Y-60370220D01*
X164274580Y-60370220D01*
X164274580Y-60390220D01*
X164020580Y-60390220D01*
X164020580Y-60370220D01*
X163171330Y-60370220D01*
X163012580Y-60528970D01*
X163012580Y-61219529D01*
X163109253Y-61452918D01*
X163266034Y-61609700D01*
X161217605Y-61609700D01*
X161299021Y-61557310D01*
X161444011Y-61345110D01*
X161495020Y-61093220D01*
X161495020Y-59393220D01*
X161471254Y-59266911D01*
X163012580Y-59266911D01*
X163012580Y-59957470D01*
X163171330Y-60116220D01*
X164020580Y-60116220D01*
X164020580Y-58916970D01*
X163861830Y-58758220D01*
X163521270Y-58758220D01*
X163287881Y-58854893D01*
X163109253Y-59033522D01*
X163012580Y-59266911D01*
X161471254Y-59266911D01*
X161466974Y-59244168D01*
X162087402Y-58623740D01*
X164642958Y-58623740D01*
X164779947Y-58760729D01*
M02*
