G04 #@! TF.FileFunction,Soldermask,Bot*
%FSLAX46Y46*%
G04 Gerber Fmt 4.6, Leading zero omitted, Abs format (unit mm)*
G04 Created by KiCad (PCBNEW 4.0.7) date 01/19/19 15:04:45*
%MOMM*%
%LPD*%
G01*
G04 APERTURE LIST*
%ADD10C,0.100000*%
%ADD11R,2.100000X2.100000*%
%ADD12O,2.100000X2.100000*%
%ADD13R,1.400000X1.400000*%
%ADD14O,1.400000X1.400000*%
G04 APERTURE END LIST*
D10*
D11*
X128680000Y-56000000D03*
D12*
X128680000Y-58540000D03*
X128680000Y-61080000D03*
X128680000Y-63620000D03*
X128680000Y-66160000D03*
X128680000Y-68700000D03*
X128680000Y-71240000D03*
X128680000Y-73780000D03*
X128680000Y-76320000D03*
X128680000Y-78860000D03*
X128680000Y-81400000D03*
X128680000Y-83940000D03*
X128680000Y-86480000D03*
X128680000Y-89020000D03*
X128680000Y-91560000D03*
X128680000Y-94100000D03*
X128680000Y-96640000D03*
X128680000Y-99180000D03*
X128680000Y-101720000D03*
X128680000Y-104260000D03*
D11*
X169320000Y-56000000D03*
D12*
X169320000Y-58540000D03*
X169320000Y-61080000D03*
X169320000Y-63620000D03*
X169320000Y-66160000D03*
X169320000Y-68700000D03*
X169320000Y-71240000D03*
X169320000Y-73780000D03*
X169320000Y-76320000D03*
X169320000Y-78860000D03*
X169320000Y-81400000D03*
X169320000Y-83940000D03*
X169320000Y-86480000D03*
X169320000Y-89020000D03*
X169320000Y-91560000D03*
X169320000Y-94100000D03*
X169320000Y-96640000D03*
X169320000Y-99180000D03*
X169320000Y-101720000D03*
X169320000Y-104260000D03*
D13*
X158353760Y-102229920D03*
D14*
X158353760Y-103499920D03*
X157083760Y-102229920D03*
X157083760Y-103499920D03*
X155813760Y-102229920D03*
X155813760Y-103499920D03*
X154543760Y-102229920D03*
X154543760Y-103499920D03*
X153273760Y-102229920D03*
X153273760Y-103499920D03*
M02*
